SplineFontDB: 3.0
FontName: UniversElse-Light
FullName: Univers Else Light 
FamilyName: Univers Else
Weight: Light
Copyright: Processed by Pierre Marchand with Fonzie and FontForge 2.0 (http://fontforge.sf.net)
Version: 001.000
ItalicAngle: 0
UnderlinePosition: -200
UnderlineWidth: 50
Ascent: 800
Descent: 200
LayerCount: 2
Layer: 0 0 "Back" 
Layer: 1 0 "Fore" 
XUID: [1021 658 791704704 1001041]
UniqueID: 4128035
FSType: 0
OS2Version: 3
OS2_WeightWidthSlopeOnly: 0
OS2_UseTypoMetrics: 1
CreationTime: 1288561162
ModificationTime: 1291856676
PfmFamily: 17
TTFWeight: 200
TTFWidth: 5
LineGap: 90
VLineGap: 0
Panose: 2 0 3 3 0 0 0 0 0 0
OS2TypoAscent: 0
OS2TypoAOffset: 1
OS2TypoDescent: 0
OS2TypoDOffset: 1
OS2TypoLinegap: 90
OS2WinAscent: 0
OS2WinAOffset: 1
OS2WinDescent: 0
OS2WinDOffset: 1
HheadAscent: 0
HheadAOffset: 1
HheadDescent: 0
HheadDOffset: 1
OS2SubXSize: 650
OS2SubYSize: 700
OS2SubXOff: 0
OS2SubYOff: 140
OS2SupXSize: 650
OS2SupYSize: 700
OS2SupXOff: 0
OS2SupYOff: 480
OS2StrikeYSize: 49
OS2StrikeYPos: 258
OS2Vendor: 'PfEd'
OS2CodePages: 00000001.00000000
OS2UnicodeRanges: 80000007.00000002.00000000.00000000
DEI: 0
LangName: 1033 "" "" "Light " "" "" "Version 001.000" 
Encoding: UnicodeBmp
UnicodeInterp: none
NameList: Adobe Glyph List
DisplaySize: -48
AntiAlias: 1
FitToEm: 1
WinInfo: 60 20 16
BeginPrivate: 10
BlueValues 22 [-4 6 514 529 723 759]
OtherBlues 11 [-193 -156]
BlueScale 9 0.0267568
BlueShift 1 5
BlueFuzz 1 1
StdHW 4 [50]
StdVW 4 [50]
StemSnapH 4 [50]
StemSnapV 4 [50]
ExpansionFactor 4 0.06
EndPrivate
BeginChars: 65537 208

StartChar: .notdef
Encoding: 65536 -1 0
Width: 500
Flags: MW
HStem: 0 50<100 400 100 450> 483 50<100 400 100 100>
VStem: 50 50<50 50 50 483> 400 50<50 483 483 483>
LayerCount: 2
Fore
SplineSet
50 0 m 1
 50 533 l 1
 450 533 l 1
 450 0 l 1
 50 0 l 1
100 50 m 1
 400 50 l 1
 400 483 l 1
 100 483 l 1
 100 50 l 1
EndSplineSet
Validated: 1
EndChar

StartChar: uni0021
Encoding: 33 33 2
Width: 475
GlyphClass: 2
Flags: W
LayerCount: 2
Fore
SplineSet
232 90 m 0
 234.292 93.0557 235.416 94.3613 238.049 94.3613 c 0
 238.862 94.3613 239.819 94.2363 241 94 c 0
 245 93 253 92 261 91 c 0
 272 90 274 90 279 84 c 0
 283 79 284 77 283 72 c 0
 282 67 283 63 284 60 c 1
 286.093 56.8613 288.375 46.0859 288.375 40.25 c 0
 288.375 35.9375 287.25 32.75 285 29 c 0
 283 25 282 21 282 20 c 0
 282 19 279 16 276 12 c 0
 273 9 269 7 267 7 c 0
 265 7 252 6 239 6 c 0
 225 6 211 6 207 7 c 0
 202 8 199 10 197 14 c 0
 195 17 194 22 194 25 c 0
 194 29 195 33 196 35 c 0
 197 37 196 41 194 49 c 0
 191.856 54.3594 190.861 57.1338 190.861 59.3242 c 0
 190.861 61.2207 191.607 62.6797 193 65 c 2
 194 68 196 73 197 76 c 0
 198 79 201 81 202 81 c 0
 204 81 207 82 209 83 c 1
 211 85 216 86 221 86 c 0
 228 86 230 87 232 90 c 0
255.999 731.001 m 1
 257.999 731.001 260.999 732 261.999 732 c 0
 263.999 732 267.999 731 270.999 730 c 0
 275.999 729 279.999 726 283.999 721 c 0
 287.454 716.854 288.521 715.573 288.521 704.95 c 0
 288.521 700.199 288.308 693.58 287.999 684 c 0
 287.999 666 286.999 651 286.999 649 c 0
 286.999 647 287.999 631 287.999 613 c 0
 287.999 593 286.999 578 285.999 574 c 2
 281.999 562 l 2
 280.999 558 279.999 553 279.999 551 c 0
 279.999 548 281.999 543 284.999 540 c 0
 287.666 536 288.555 534.223 288.555 527.853 c 0
 288.555 524.667 288.332 520.334 287.999 514.001 c 0
 286.999 499.001 285.999 493.001 283.999 490.001 c 0
 280.999 487.001 280.999 480.001 280.999 404.001 c 0
 280.999 329.001 280.999 322.001 277.999 318.001 c 1
 276.999 315.001 274.999 310.001 273.999 305.001 c 0
 272.999 299.001 273.999 296.001 276.999 292.001 c 0
 278.999 289.001 279.999 284.001 279.999 278.001 c 0
 279.999 272.001 278.999 268.001 276.999 264.001 c 1
 272.999 259.001 272.999 256.001 272.999 233.001 c 0
 272.999 209.001 272.999 207.001 269.999 203.001 c 0
 266.999 200.001 265.999 197.001 265.999 192.001 c 0
 265.999 188.001 264.999 184.001 263.999 183.001 c 0
 262.999 182.001 259.999 181.001 257.999 181.001 c 0
 255.999 181.001 253.999 180.001 251.999 178.001 c 0
 250.65 177.102 249.908 176.606 249.046 176.606 c 0
 247.989 176.606 246.752 177.349 243.999 179 c 1
 240.999 182 237.999 182 230.999 181 c 0
 222.999 180 221.999 181 215.999 187 c 0
 208.999 193 208.999 193 208.999 230 c 0
 208.999 265 208.999 268 204.999 275 c 0
 201.999 281 201.999 284 202.999 287 c 0
 203.999 290 203.999 292 203.999 293 c 1
 202.999 294 201.999 313 201.999 334 c 0
 201.999 368 200.999 374 198.999 378 c 0
 196.999 381 195.999 386 195.999 392 c 2
 195.999 407 l 2
 195.999 410 194.999 413 193.999 413 c 1
 192.999 414 192.999 419 193.999 425 c 2
 193.999 431 195.999 440 198.999 445 c 1
 201.999 453 201.999 455 201.999 496 c 0
 200.999 520 200.999 541 200.999 543 c 2
 200.999 566 l 2
 200.999 583 200.999 588 197.999 590 c 1
 195.999 593 194.999 599 194.999 638 c 0
 194.999 680 193.999 683 190.999 687 c 0
 189.097 689.536 188.4 691.269 188.4 694.235 c 0
 188.4 695.948 188.633 698.072 188.999 701.001 c 0
 189.999 707.001 190.999 711.001 192.999 712.001 c 0
 194.999 713.001 198.999 716.001 201.999 719.001 c 0
 205.999 722.001 210.999 724.001 215.999 725.001 c 1
 236.999 725.001 l 2
 244.999 725.001 249.999 726.001 250.999 727.001 c 0
 251.999 728.001 253.999 730.001 255.999 731.001 c 1
EndSplineSet
Validated: 33
EndChar

StartChar: uni0022
Encoding: 34 34 3
Width: 656
GlyphClass: 2
Flags: W
LayerCount: 2
Fore
SplineSet
155 717 m 1
 174 717 l 2
 181 717 190 716 194 714 c 0
 197 712 202 711 204 711 c 0
 206 711 211 706 218 699 c 0
 224 692 231 686 233 686 c 1
 236 685 240 683 243 681 c 0
 246 679 249 675 250 672 c 2
 252 669 253 659 253 649 c 0
 253 634 253 630 256 625 c 0
 259 621 260 616 260 608 c 0
 260 603 260 592 259 584 c 0
 258 576 257 569 256 567 c 0
 255 565 254 558 253 551 c 0
 253 546.333 252.556 535.444 252.556 523.074 c 0
 252.556 516.889 252.667 510.333 253 504 c 0
 253 470 253 470 246 463 c 0
 240 456 239 454 239 448 c 1
 240 442 239 440 235 437 c 0
 233.098 435.098 231.195 434.401 227.765 434.401 c 0
 225.784 434.401 223.294 434.634 220 435 c 0
 213 435 205 437 201 438 c 1
 197 440 192 442 190 443 c 0
 188 444 186 446 185 448 c 1
 178 455 l 1
 174 457 172 461 170 466 c 0
 168 471 167 476 167 478 c 0
 167 480 165 483 162 485 c 1
 160 488 158 491 158 492 c 0
 158 494 157 497 156 499 c 0
 154 502 153 511 152 529 c 0
 151 543 151 559 151 565 c 1
 152 572 152 581 152 586 c 0
 152 593 150 600 147 608 c 0
 142 619 142 621 144 627 c 0
 145 631 146 637 145 641 c 2
 145 645 144 653 143 658 c 0
 142 662 141 668 139 669 c 1
 137 672 137 675 137 685 c 1
 138 692 139 698 141 701 c 0
 143 703 144 706 144 708 c 0
 144 709 145 712 147 713 c 1
 149 715 153 716 155 717 c 1
435 723 m 1
 435 724 438 725 442 725 c 0
 445 725 450 724 453 721 c 0
 457 717 460 716 465 717 c 0
 469 718 472 717 475 715 c 0
 477 713 481 711 483 711 c 0
 484 711 490 707 495 702 c 0
 500 697 505 691 506 689 c 0
 507 686 511 681 514 677 c 0
 517 672 520 667 520 665 c 0
 520 663 518 656 516 651 c 0
 514 645 512 636 512 630 c 0
 512 625 512 616 513 609 c 1
 513 603 513 593 512 587 c 0
 511 578 511 575 514 570 c 0
 517 565 518 559 518 553 c 0
 518 548 516 542 515 539 c 1
 513 536 512 528 511 500 c 0
 511 471 510 465 507 459 c 0
 505 456 504 451 505 450 c 1
 505 448 505 445 503 444 c 2
 502 442 496 441 489 440 c 0
 486.95 439.707 484.985 439.586 483.182 439.586 c 0
 478.828 439.586 475.414 440.293 474 441 c 0
 472 442 468 442 465 442 c 1
 462 443 457 444 455 446 c 0
 452 448 449 449 448 449 c 0
 447 449 445 452 444 454 c 0
 443 457 440 461 438 463 c 0
 436 466 434 470 434 472 c 0
 434 475 432 480 430 484 c 0
 428 488 427 494 427 499 c 0
 427 505 426 509 423 512 c 1
 421 516 420.19 521.008 419 546 c 0
 418 567 417 576 415 580 c 0
 413 585 412 592 412 612 c 0
 412 635 411 639 408 647 c 1
 404 654 404 657 405 670 c 0
 405.924 682.006 405 685 402 689 c 0
 400 692 399 696 399 699 c 0
 399 701 400 707 403 711 c 0
 405 715 407 719 409 719 c 0
 410 719 413 719 416 718 c 0
 420 717 424 717 428 719 c 0
 431 720 434 722 435 723 c 1
EndSplineSet
Validated: 33
EndChar

StartChar: uni0023
Encoding: 35 35 4
Width: 564
GlyphClass: 2
Flags: W
LayerCount: 2
Fore
SplineSet
276 419 m 0
 272 420 264.999 420.999 259.999 420.999 c 0
 251.999 420.999 248.999 420.999 247.999 417.999 c 0
 246.999 415.999 242.999 413.999 237.999 413.999 c 1
 233.999 412.999 229.999 411.999 228.999 409.999 c 1
 226.999 408.999 225.999 403.999 225.999 397.999 c 1
 224.999 392.999 223.999 386.999 222.999 383.999 c 1
 220.999 381.999 219.999 373.999 220.999 360.999 c 0
 220.999 344.999 220.999 340.999 217.999 338.999 c 0
 215.999 336.999 214.999 332.999 214.999 329.999 c 0
 214.999 327.999 213.999 321.999 212.999 318.999 c 0
 211.999 314.999 209.999 309.999 208.999 307.999 c 0
 206.999 304.999 206.999 296.999 205.999 281.999 c 0
 205.999 260.999 205.999 260.999 258.999 260.999 c 0
 287.999 260.999 313.999 259.999 316.999 258.999 c 0
 318.656 258.585 319.97 258.343 320.94 258.343 c 0
 322.313 258.343 323 258.828 323 260 c 0
 323 261 328 267 333 274 c 0
 344 286 344 286 345 308 c 0
 345 321 346 331 347 332 c 1
 347 333 347 335 346 337 c 1
 344 339 345 341 348 344 c 0
 351 346 353 349 353 350 c 0
 353 351 354 355 356 358 c 0
 359 363 359 368 359 387 c 0
 359 406 359 409 356 413 c 0
 353 416 351 418 343 418 c 1
 337 419 330 420 327 421 c 1
 323 421 319 421 314 418 c 0
 307 415 304 415 294 416 c 0
 288 417 280 418 276 419 c 0
252.999 676.999 m 1
 253.999 678.999 257 679.999 259 679.999 c 0
 261 679.999 265 676.999 268 674.999 c 0
 273 670.999 274 667.999 275 660.999 c 0
 276 653.999 275 650.999 273 648.999 c 1
 272 646.999 271 641.999 271 636.999 c 0
 271 631.999 270 622.999 269 616.999 c 2
 269 610.999 266 603.999 264 599.999 c 0
 261 593.999 261 590.999 262 580.999 c 0
 263 571.999 262 566.999 261 563.999 c 1
 259 560.999 258 555.999 257 552.999 c 1
 257 548.999 254 543.999 252 540.999 c 0
 248 535.999 248 533.999 249 515.999 c 0
 249 500.999 248 494.999 246 491.999 c 0
 245 489.999 244 485.999 244 482.999 c 0
 244 480.999 245 475.999 246 472.999 c 0
 247 468.999 250 466.999 252 465.999 c 0
 254 464.999 258 465.999 262 467.999 c 0
 267 470.999 273 470.999 312 470.999 c 0
 337 470.999 358 470.999 360 471.999 c 1
 362 471.999 365 475.999 368 479.999 c 0
 371 483.999 374 488.999 374 491.999 c 0
 374 494.999 376 499.999 378 502.999 c 0
 383 508.999 383 509.999 381 516.999 c 0
 380 520.999 379 526.999 379 528.999 c 0
 379 530.999 381 534.999 383 537.999 c 0
 385 540.999 386 544.999 386 550.999 c 0
 386 555.999 386 560.999 385 562.999 c 0
 384 565.999 385 566.999 389 568.999 c 0
 393 570.999 394 571.999 393 579.999 c 0
 393 584.999 394 588.999 396 593.999 c 1
 399 597.999 400 604.999 402 622.999 c 0
 403 635.999 404 649.999 404 652.999 c 2
 405 656.999 406 661.999 406 664.999 c 1
 407 667.999 409 670.999 410 672.999 c 1
 412 674.999 416 674.999 426 674.999 c 0
 438 674.999 441 674.999 445 670.999 c 0
 448 667.999 450 666.999 455 667.999 c 0
 459 667.999 462 667.999 463 666.999 c 1
 464 664.999 465 655.999 466 646.999 c 0
 467 630.999 466 628.999 463 625.999 c 0
 460 621.999 459 618.999 459 607.999 c 0
 459 597.999 458 593.999 454 589.999 c 1
 451 584.999 451 582.999 452 575.999 c 0
 453 571.999 454 563.999 453 558.999 c 2
 453 553.999 451 547.999 449 544.999 c 0
 446 541.999 445 535.999 444 528.999 c 1
 444 520.999 442 514.999 440 511.999 c 0
 438 508.999 437 505.999 438 502.999 c 1
 438 500.999 439 495.999 440 491.999 c 0
 441 487.999 445 480.999 448 476.999 c 0
 453 469.999 453 469.999 474 470.999 c 0
 485 471.999 496 471.999 499 471.999 c 0
 502 471.999 507 473.999 510 475.999 c 0
 515 478.999 517 478.999 520 477.999 c 0
 523 476.999 526 472.999 528 468.999 c 0
 531 462.999 532 459.999 531 452.999 c 0
 530 445.999 530 441.999 533 436.999 c 0
 534.5 433.499 535.25 431.749 535.25 429.999 c 0
 535.25 428.249 534.5 426.499 533 422.999 c 0
 531 418.999 528 414.999 525 412.999 c 0
 522 410.999 520 410.999 513 411.999 c 1
 509 413.999 503 415.999 501 416.999 c 1
 499 418.999 489 419.999 469 419.999 c 0
 460.348 420.308 454.369 420.521 450.002 420.521 c 0
 440.236 420.521 438.528 419.454 433 415.999 c 0
 424 410.999 424 410.999 424 395.999 c 0
 424 384.999 423 380.999 421 377.999 c 0
 419 375.999 418 372.999 417 370.999 c 0
 416 368.999 414 365.999 412 363.999 c 0
 409 361.999 409 358.999 409 343.999 c 0
 409 330.999 408 324.999 406 321.999 c 0
 404 318.999 403 313.999 403 308.999 c 0
 403 304.999 402 297.999 401 294.999 c 0
 400 290.999 400 286.999 402 280.999 c 0
 404 271.999 404 271.999 415 266.999 c 0
 421 263.999 428 260.999 431 260.999 c 1
 434 261.999 439 261.999 442 261.999 c 0
 446 261.999 458 260.999 470 260.999 c 0
 487 259.999 493 258.999 495 256.999 c 0
 497 254.999 499 252.999 499 250.999 c 2
 500 248.999 499 243.999 497 239.999 c 0
 495 234.999 493 227.999 493 218.999 c 0
 492 210.999 491 204.999 491 203.999 c 1
 490 202.999 488 203.999 487 205.999 c 0
 486 207.999 484 209.999 484 210.999 c 0
 484 211.999 480 210.999 476 209.999 c 0
 473 208.999 468 206.999 465 204.999 c 0
 463 202.999 459 201.999 455 201.999 c 0
 452 201.999 448 202.999 445 204.999 c 0
 442 207.999 438 208.999 422 208.999 c 0
 417.037 209.26 413.37 209.453 410.465 209.453 c 0
 402.249 209.453 400.126 207.909 391.999 201.999 c 0
 379.999 193.999 379.999 193.999 380.999 183.999 c 0
 381.999 178.999 381.999 168.999 380.999 162.999 c 0
 379.999 156.999 378.999 149.999 377.999 146.999 c 2
 377.999 143.999 376.999 140.999 375.999 139.999 c 0
 373.999 137.999 373.999 134.999 374.999 130.999 c 1
 374.999 124.999 374.999 122.999 370.999 116.999 c 0
 366.999 111.999 365.999 108.999 366.999 100.999 c 0
 367.999 95.999 368.999 87.999 368.999 82.999 c 1
 369.999 75.999 369.999 74.999 365.999 70.999 c 0
 362.999 68.999 360.999 64.999 360.999 61.999 c 1
 359.999 58.999 358.999 53.999 356.999 51.999 c 1
 355.999 49.999 353.999 44.999 353.999 38.999 c 0
 353.999 34.999 352.999 26.999 351.999 22.999 c 1
 349.999 18.999 346.999 14.999 344.999 14.999 c 2
 343.999 13.999 333.999 12.999 324.999 12.999 c 0
 315.999 12.999 303.999 12.999 298.999 13.999 c 0
 291.999 14.999 289.999 15.999 287.999 19.999 c 0
 284.999 23.999 284.999 24.999 289.999 27.999 c 0
 294.999 31.999 294.999 32.999 294.999 57.999 c 0
 295.999 81.999 295.999 84.999 299.999 88.999 c 0
 301.999 91.999 302.999 95.999 302.999 96.999 c 0
 302.999 97.999 304.999 102.999 306.999 107.999 c 0
 309.999 113.999 310.999 118.999 309.999 129.999 c 0
 309.999 142.999 309.999 144.999 313.999 146.999 c 1
 316.999 149.999 316.999 150.999 316.999 172.999 c 0
 315.999 194.999 315.999 196.999 310.999 202.999 c 0
 308.999 205.999 304.999 208.999 302.999 209.999 c 1
 299.999 209.999 289.999 210.999 278.999 209.999 c 0
 262.999 209.999 259.999 208.999 254.999 205.999 c 0
 251.999 203.999 246.999 201.999 244.999 201.999 c 0
 242.999 201.999 237.999 202.999 233.999 203.999 c 1
 230.999 205.999 226.999 206.999 225.999 205.999 c 1
 224.999 205.999 221.999 205.999 219.999 207.999 c 0
 216.999 209.999 214.999 209.999 209.999 208.999 c 1
 206.999 206.999 202.999 205.999 201.999 204.999 c 1
 199.999 204.999 197.999 201.999 195.999 197.999 c 0
 194.999 194.999 191.999 188.999 189.999 183.999 c 1
 186.999 178.999 185.999 171.999 185.999 160.999 c 0
 185.999 147.999 184.999 143.999 180.999 138.999 c 0
 176.999 132.999 176.999 130.999 176.999 118.999 c 0
 176.999 111.999 176.999 100.999 175.999 94.999 c 0
 174.999 85.999 173.999 81.999 169.999 78.999 c 0
 166.999 75.999 164.999 71.999 163.999 65.999 c 1
 163.999 60.999 162.999 50.999 162.999 42.999 c 0
 162.999 34.999 161.999 25.999 160.999 21.999 c 0
 159.999 18.999 157.999 14.999 156.999 14.999 c 1
 156.999 13.999 146.999 12.999 136.999 12.999 c 0
 119.999 12.999 116.999 12.999 109.999 16.999 c 0
 105.999 18.999 100.999 20.999 98.999 20.999 c 0
 97.999 20.999 95.999 21.999 94.999 22.999 c 0
 93.999 23.999 92.999 27.999 91.999 31.999 c 0
 90.999 37.999 91.999 40.999 95.999 46.999 c 0
 98.999 51.999 102.999 58.999 103.999 62.999 c 1
 105.999 66.999 108.999 72.999 110.999 75.999 c 0
 114.999 80.999 114.999 80.999 110.999 86.999 c 0
 106.999 92.999 106.999 94.999 108.999 97.999 c 0
 110.999 99.999 111.999 106.999 112.999 116.999 c 0
 112.999 126.999 113.999 132.999 115.999 134.999 c 0
 117.999 136.999 119.999 142.999 119.999 149.999 c 1
 120.999 155.999 122.999 162.999 124.999 163.999 c 1
 126.999 166.999 126.999 170.999 126.999 182.999 c 0
 126.999 191.999 125.999 199.999 124.999 200.999 c 1
 124.999 202.999 121.999 203.999 118.999 203.999 c 0
 115.999 203.999 112.999 204.999 111.999 205.999 c 0
 110.999 206.999 106.999 208.999 102.999 209.999 c 1
 97.999 209.999 94.999 209.999 90.999 206.999 c 0
 88.999 204.999 83.999 202.999 79.999 202.999 c 2
 76.999 201.999 72.999 200.999 71.999 201.999 c 1
 71.999 201.999 63.999 202.999 55.999 202.999 c 0
 47.999 202.999 40.999 203.999 39.999 203.999 c 1
 38.999 204.999 35.999 208.999 33.999 212.999 c 0
 29.999 219.999 28.999 223.999 28.999 235.999 c 0
 28.999 247.999 29.999 250.999 32.999 254.999 c 0
 34.999 256.999 38.999 259.999 41.999 260.999 c 0
 45.999 262.999 47.999 262.999 51.999 261.999 c 0
 54.999 260.999 67.999 259.999 82.999 259.999 c 0
 104.999 259.999 109.999 259.999 113.999 256.999 c 0
 116.999 254.999 119.999 254.999 123.999 255.999 c 2
 127.999 255.999 132.999 257.999 134.999 258.999 c 0
 137.999 260.999 139.999 262.999 139.999 263.999 c 0
 139.999 264.999 140.999 270.999 140.999 276.999 c 0
 140.999 283.999 142.999 289.999 144.999 293.999 c 0
 147.999 297.999 148.999 301.999 148.999 307.999 c 1
 147.999 311.999 148.999 316.999 150.999 318.999 c 0
 151.999 319.999 153.999 328.999 153.999 337.999 c 0
 154.999 345.999 156.999 354.999 158.999 357.999 c 0
 159.999 359.999 160.999 362.999 160.999 365.999 c 0
 160.999 367.999 160.999 379.999 161.999 393.999 c 0
 161.999 409.999 161.999 417.999 160.999 418.999 c 1
 158.999 419.999 146.999 420.999 133.999 420.999 c 0
 116.999 419.999 106.999 418.999 100.999 416.999 c 0
 95.999 415.999 89.999 413.999 87.999 413.999 c 0
 84.999 413.999 80.999 415.999 79.999 416.999 c 1
 78.999 418.999 75.999 423.999 72.999 426.999 c 1
 69.999 432.999 68.999 435.999 69.999 445.999 c 0
 69.999 451.999 69.999 458.999 70.999 461.999 c 2
 70.999 463.999 71.999 467.999 72.999 468.999 c 0
 74.4629 470.463 79.1426 471.391 97.6299 471.391 c 0
 104.396 471.391 113.013 471.267 123.999 470.999 c 0
 151.999 470.999 173.999 471.999 175.999 472.999 c 1
 179.999 473.999 180.999 476.999 180.999 483.999 c 1
 181.999 489.999 182.999 495.999 184.999 498.999 c 0
 185.999 500.999 187.999 506.999 188.999 511.999 c 0
 189.999 517.999 189.999 522.999 188.999 525.999 c 0
 187.999 528.999 188.999 530.999 191.999 534.999 c 0
 193.999 536.999 196.999 540.999 196.999 543.999 c 2
 197.999 545.999 197.999 552.999 196.999 557.999 c 0
 195.999 562.999 194.999 568.999 195.999 569.999 c 2
 195.999 571.999 198.999 574.999 200.999 575.999 c 1
 203.999 578.999 204.999 579.999 203.999 604.999 c 0
 203.692 612.667 203.443 617.999 203.443 621.999 c 0
 203.443 629.999 204.332 632.666 206.999 637.999 c 0
 208.999 642.999 209.999 648.999 209.999 651.999 c 0
 209.999 654.999 211.999 657.999 213.999 659.999 c 0
 215.999 661.999 218.999 665.999 219.999 668.999 c 0
 221.999 674.999 221.999 674.999 235.999 674.999 c 0
 244.999 674.999 251.999 675.999 252.999 676.999 c 1
EndSplineSet
Validated: 33
EndChar

StartChar: uni0024
Encoding: 36 36 5
Width: 589
GlyphClass: 2
Flags: W
LayerCount: 2
Fore
SplineSet
347 310 m 1
 345 312 340.999 311.999 334.999 311.999 c 0
 328.999 311.999 321.999 310.999 317.999 308.999 c 0
 312.999 306.999 310.999 304.999 308.999 298.999 c 0
 306.999 293.999 304.999 284.999 304.999 276.999 c 2
 303.999 269.999 303.999 251.999 303.999 236.999 c 2
 303.999 203.999 l 1
 303.999 174.999 l 1
 303.999 140.999 l 1
 304.999 134.999 303.999 120.999 303.999 109.999 c 0
 303.267 102.679 302.803 98.0381 302.803 94.8018 c 0
 302.803 89.1963 304.195 87.8037 307.999 84 c 0
 309.999 81 312.999 77 313.999 75 c 1
 313.999 73 318.999 70 323.999 68 c 0
 330.218 64.5449 333.095 63.4775 339.888 63.4775 c 0
 342.926 63.4775 346.747 63.6914 352 64 c 0
 364 65 372 66 375 68 c 0
 377 69 381 72 384 74 c 0
 387 76 395 79 401 82 c 0
 406 85 415 91 419 95 c 0
 425 100 428 103 428 107 c 0
 428 110 429 114 432 117 c 1
 439 128 l 2
 441 131 444 137 446 139 c 0
 450 144 450 147 450 179 c 0
 450 210 450 215 447 222 c 0
 445 227 443 233 443 236 c 0
 443 240 442 245 440 249 c 0
 438 253 433 259 429 263 c 1
 425 266 420 272 418 274 c 1
 417 277 412 280 407 283 c 0
 403 285 399 288 398 289 c 1
 398 290 394 293 391 296 c 1
 387 298 381 300 378 300 c 0
 375 300 370 302 367 304 c 0
 364 306 359 307 355 307 c 0
 352 307 348 308 347 310 c 1
244.999 654.999 m 0
 242.999 656.999 237.999 657.999 233.999 657.999 c 0
 228.999 657.999 223.999 656.999 219.999 653.999 c 0
 215.999 651.999 211.999 648.999 209.999 646.999 c 1
 208.999 643.999 205.999 642.999 202.999 642.999 c 0
 199.999 642.999 194.999 641.999 190.999 639.999 c 0
 186.999 637.999 182.999 633.999 180.999 631.999 c 0
 178.999 629.999 175.999 628.999 173.999 628.999 c 0
 172.999 628.999 168.999 625.999 166.999 622.999 c 0
 164.999 619.999 160.999 614.999 159.999 611.999 c 1
 157.999 608.999 155.999 604.999 154.999 603.999 c 2
 153.999 601.999 149.999 596.999 146.999 591.999 c 0
 142.738 584.898 141.503 582.84 141.503 569.353 c 0
 141.503 563.847 141.709 556.436 141.999 545.999 c 0
 141.999 516.999 141.999 508.999 143.999 505.999 c 0
 145.999 502.999 148.999 498.999 150.999 496.999 c 0
 152.999 493.999 155.999 488.999 157.999 483.999 c 0
 158.999 479.999 162.999 474.999 164.999 471.999 c 0
 166.999 469.999 168.999 465.999 168.999 463.999 c 0
 168.999 461.999 169.999 459.999 170.999 458.999 c 0
 172.999 456.999 174.999 455.999 176.999 455.999 c 0
 178.999 455.999 182.999 454.999 184.999 452.999 c 0
 187.999 450.999 190.999 448.999 193.999 448.999 c 1
 195.999 447.999 202.999 444.999 208.999 441.999 c 0
 214.999 438.999 219.999 435.999 219.999 434.999 c 0
 219.999 432.999 221.999 430.999 223.999 429.999 c 0
 225.999 428.999 233.999 428.999 244.999 428.999 c 0
 259.999 429.999 263.999 430.999 266.999 433.999 c 0
 268.999 435.999 270.999 438.999 270.999 440.999 c 0
 270.999 442.999 271.999 445.999 273.999 447.999 c 0
 275.999 450.999 275.999 454.999 274.999 463.999 c 0
 273.999 470.999 273.999 481.999 273.999 487.999 c 1
 274.999 493.999 276.999 501.999 277.999 504.999 c 1
 280.999 509.999 281.999 512.999 280.999 529.999 c 0
 279.999 543.999 278.999 550.999 276.999 553.999 c 0
 274.999 557.999 273.999 563.999 272.999 577.999 c 2
 272.999 618.999 l 2
 272.999 639.999 272.999 639.999 267.999 644.999 c 0
 264.999 647.999 259.999 649.999 255.999 650.999 c 0
 251.999 651.999 246.999 652.999 244.999 654.999 c 0
284.999 804.999 m 0
 287.999 807.999 292 810.997 293 810.997 c 0
 294 810.997 297 809.997 300 807.997 c 0
 305 803.997 305 803.997 304 789.997 c 0
 303 782.997 302 772.997 302 766.997 c 0
 301 758.997 302 755.997 305 749.997 c 0
 308 743.997 311 740.997 316 738.997 c 0
 320 737.997 325 734.997 327 733.997 c 1
 329 731.997 333 731.997 339 731.997 c 0
 346 731.997 349 730.997 352 728.997 c 0
 355 726.997 359 724.997 363 723.997 c 1
 366 723.997 371 721.997 374 719.997 c 1
 377 718.997 385 717.997 397 717.997 c 0
 410 716.997 416 715.997 419 713.997 c 0
 421 712.997 425 710.997 428 710.997 c 0
 431 710.997 436 708.997 440 706.997 c 0
 444 703.997 452 697.997 458 691.997 c 0
 464 686.997 474 676.997 480 669.997 c 0
 486 663.997 492 657.997 494 656.997 c 0
 496 655.997 498 653.997 498 651.997 c 0
 498 650.997 501 646.997 506 643.997 c 1
 510 639.997 515 633.997 518 627.997 c 0
 522 619.997 522 616.997 521 609.997 c 0
 520 601.997 521 600.997 524 597.997 c 0
 528 594.997 529 592.997 529 575.997 c 0
 528 557.997 528 557.997 523 552.997 c 0
 520 549.997 515 547.997 512 547.997 c 0
 510 547.997 497 547.997 485 546.997 c 0
 462 546.997 462 546.997 453 552.997 c 0
 448 555.997 442 560.997 440 562.997 c 0
 437 566.997 436 569.997 436 577.997 c 0
 436 583.997 435 588.997 432 594.997 c 1
 429 598.997 428 602.997 429 603.997 c 1
 429 604.997 428 607.997 426 609.997 c 0
 424 611.997 422 615.997 421 617.997 c 1
 421 620.997 418 623.997 416 626.997 c 0
 414 628.997 410 631.997 406 633.997 c 0
 403 635.997 398 640.997 396 643.997 c 0
 394 647.997 391 651.997 390 651.997 c 1
 388 652.997 385 652.997 382 652.997 c 0
 379 652.997 375 654.997 373 655.997 c 0
 370 658.247 367 659.372 355.562 659.372 c 0
 351.75 659.372 347 659.247 341 658.997 c 0
 326 658.997 313 658.997 312 657.997 c 0
 311 656.997 310 652.997 310 648.997 c 0
 310 643.997 308 635.997 306 628.997 c 0
 303 619.997 303 615.997 304 608.997 c 1
 304 603.997 305 596.997 304 593.997 c 1
 304 548.997 l 1
 304 492.997 l 2
 304.333 490.33 304.444 486.663 304.444 482.515 c 0
 304.444 474.219 304 463.996 304 455.996 c 0
 303 442.996 303 430.996 304 428.996 c 2
 304 426.996 308 420.996 313 415.996 c 0
 319 410.996 324 406.996 328 406.996 c 0
 333 405.996 335 403.996 338 398.996 c 0
 340 394.996 343 392.996 346 392.996 c 0
 348 392.996 353 391.996 357 389.996 c 0
 361 387.996 368 385.996 372 385.996 c 0
 376 385.996 382 384.996 385 382.996 c 0
 388 380.996 391 378.996 391 377.996 c 0
 391 376.996 394 373.996 397 371.996 c 0
 402 368.996 407 366.996 414 365.996 c 1
 420 365.996 427 363.996 429 361.996 c 1
 431 360.996 435 358.996 436 358.996 c 0
 438 358.996 442 356.996 444 354.996 c 0
 446 352.996 449 350.996 450 350.996 c 0
 451 350.996 454 349.996 457 347.996 c 0
 459 345.996 463 343.996 464 343.996 c 0
 465 343.996 470 340.996 475 337.996 c 0
 481 333.996 484 329.996 485 324.996 c 1
 487 319.996 489 316.996 491 315.996 c 0
 493 314.996 499 311.996 504 308.996 c 0
 509 304.996 515 299.996 518 296.996 c 1
 520 292.996 522 289.996 522 288.996 c 0
 522 287.996 525 283.996 528 279.996 c 0
 531 275.996 534 269.996 535 265.996 c 0
 536 261.996 538 254.996 539 250.996 c 1
 541 246.996 542 237.996 542 230.996 c 0
 542 223.996 543 215.996 544 212.996 c 0
 545.5 209.996 546.25 208.246 546.25 206.746 c 0
 546.25 205.246 545.5 203.996 544 201.996 c 0
 542 198.996 542.149 195.004 543 177.996 c 0
 544 157.996 544 156.996 540 153.996 c 0
 538 151.996 536 147.996 536 143.996 c 0
 536 140.996 535 135.996 532 131.996 c 0
 530 127.996 528 122.996 528 119.996 c 0
 528 117.996 525 110.996 522 106.996 c 0
 519 101.996 517 97.9961 517 96.9961 c 1
 517 96.9961 515 92.9961 512 88.9961 c 0
 509 84.9961 505 76.9961 502 71.9961 c 1
 500 66.9961 495 59.9961 493 56.9961 c 1
 490 54.9961 487 52.9961 485 52.9961 c 0
 484 52.9961 481 50.9961 479 48.9961 c 0
 477 46.9961 472 42.9961 467 40.9961 c 2
 457 36.9961 l 1
 456 36.9961 453 34.9961 450 31.9961 c 1
 446 29.9961 440 26.9961 436 25.9961 c 1
 432 25.9961 426 23.9961 424 21.9961 c 0
 422 19.9961 418 18.9961 415 18.9961 c 0
 413 18.9961 409 17.9961 407 15.9961 c 0
 405 12.9961 403 11.9961 396 12.9961 c 0
 389 13.9961 386 12.9961 372 5.99609 c 0
 357 -1.00391 356 -2.00391 344 -1.00391 c 0
 332 -0.00390625 331 -1.00391 324 -5.00391 c 0
 320 -8.00391 316 -13.0039 314 -15.0039 c 0
 311 -19.0039 311 -26.0039 310 -53.0039 c 0
 309 -80.0039 308 -87.0039 306 -88.0039 c 1
 305 -89.0039 303 -90.0039 301 -90.0039 c 0
 300 -90.0039 295 -88.0039 291 -86.0039 c 0
 283 -82.0039 283 -82.0039 282 -60.0039 c 0
 281 -49.0039 280 -37.0039 279 -34.0039 c 2
 279 -31.0039 277 -26.0039 276 -23.0039 c 0
 275 -18.0039 273 -16.0039 266 -12.0039 c 0
 261 -9.00391 256 -7.00391 255 -7.00391 c 0
 254 -7.00391 250 -6.00391 248 -4.00391 c 0
 244 -1.00391 242 -0.00390625 240 -2.00391 c 1
 238 -3.00391 232 -3.00391 226 -2.00391 c 0
 219 -1.00391 214 -0.00390625 211 2.99609 c 0
 207 5.99609 203 6.99609 196 6.99609 c 0
 189 6.99609 185 7.99609 182 9.99609 c 0
 180 11.9961 175 13.9961 173 13.9961 c 0
 170 13.9961 166 15.9961 163 17.9961 c 0
 160 19.9961 157 20.9961 155 19.9961 c 1
 153 19.9961 147 20.9961 142 22.9961 c 0
 137 24.9961 131 26.9961 129 27.9961 c 1
 127 29.9961 124 32.9961 123 34.9961 c 0
 121 37.9961 119 39.9961 117 40.9961 c 1
 116 40.9961 113 41.9961 110 41.9961 c 0
 108 41.9961 103 43.9961 100 46.9961 c 0
 97 49.9961 94 53.9961 94 55.9961 c 0
 94 57.9961 88 65.9961 82 72.9961 c 0
 74 80.9961 69 87.9961 69 89.9961 c 0
 69 91.9961 68 95.9961 66 97.9961 c 0
 64 100.996 61 105.996 59 109.996 c 0
 57 114.996 54 120.996 53 124.996 c 1
 51 127.996 49 134.996 47 138.996 c 0
 44 144.996 43 152.996 42 160.996 c 0
 42 167.996 41 174.996 40 175.996 c 0
 38.8281 177.168 38.3428 178.683 38.3428 180.54 c 0
 38.3428 181.854 38.585 183.339 38.999 184.996 c 0
 38.999 188.996 41.999 194.996 43.999 199.996 c 0
 45.999 203.996 49.999 207.996 51.999 208.996 c 1
 52.999 209.996 66.999 210.996 80.999 210.996 c 0
 89.418 211.362 95.291 211.595 99.5498 211.595 c 0
 106.927 211.595 109.463 210.898 111.999 208.996 c 0
 115.999 206.996 120.999 199.996 126.999 187.996 c 0
 134.999 171.996 135.999 167.996 135.999 158.996 c 0
 135.999 153.996 136.999 146.996 138.999 142.996 c 0
 139.999 139.996 140.999 134.996 140.999 132.996 c 0
 140.999 130.996 142.999 126.996 143.999 123.996 c 1
 145.999 120.996 148.999 114.996 150.999 109.996 c 0
 152.999 105.996 157.999 99.9961 160.999 96.9961 c 0
 163.999 94.9961 167.999 92.9961 168.999 92.9961 c 0
 170.999 92.9961 174.999 89.9961 177.999 86.9961 c 0
 180.999 83.9961 188.999 78.9961 193.999 76.9961 c 0
 198.999 74.9961 204.999 73.9961 205.999 73.9961 c 0
 207.999 73.9961 209.999 70.9961 211.999 67.9961 c 0
 213.999 64.9961 215.999 62.9961 218.999 62.9961 c 0
 221.999 62.9961 227.999 61.9961 233.999 59.9961 c 0
 239.999 57.9961 247.999 56.9961 251.999 56.9961 c 0
 259.999 56.9961 261.999 58.9961 268.999 65.9961 c 0
 274.999 71.9961 278.999 76.9961 279.999 81.9961 c 0
 280.999 85.9961 280.999 117.996 280.999 158.996 c 0
 279.999 196.996 279.999 230.996 279.999 232.996 c 1
 279.706 233.875 279.585 235.955 279.585 238.959 c 0
 279.585 246.212 280.292 258.854 280.999 272.997 c 0
 281.292 280.905 281.413 287.184 281.413 292.158 c 0
 281.413 304.169 280.706 308.583 279.999 309.997 c 1
 277.999 311.997 274.999 316.997 272.999 321.997 c 0
 269.999 327.997 266.999 331.997 262.999 333.997 c 0
 259.999 334.997 255.999 337.997 253.999 339.997 c 1
 251.999 340.997 248.999 341.997 245.999 341.997 c 0
 243.999 341.997 239.999 343.997 236.999 345.997 c 0
 234.999 347.997 229.999 349.997 225.999 350.997 c 0
 220.999 351.997 216.999 352.997 215.999 353.997 c 1
 214.999 355.997 211.999 355.997 208.999 355.997 c 0
 206.999 355.997 200.999 357.997 195.999 360.997 c 0
 191.999 362.997 185.999 364.997 182.999 364.997 c 0
 180.999 364.997 176.999 365.997 175.999 367.997 c 1
 173.999 368.997 169.999 369.997 167.999 369.997 c 0
 165.999 369.997 162.999 371.997 160.999 375.997 c 0
 158.999 378.997 156.999 380.997 155.999 379.997 c 1
 154.999 379.997 149.999 381.997 144.999 384.997 c 2
 139.999 386.997 134.999 389.997 133.999 389.997 c 0
 132.999 389.997 128.999 392.997 124.999 397.997 c 1
 119.999 401.997 115.999 405.997 113.999 405.997 c 0
 111.999 405.997 108.999 406.997 106.999 407.997 c 1
 105.999 408.997 101.999 413.997 97.999 417.997 c 1
 94.999 421.997 91.999 426.997 91.999 428.997 c 0
 91.999 429.997 88.999 433.997 84.999 436.997 c 0
 80.999 439.997 74.999 445.997 70.999 449.997 c 0
 65.999 453.997 63.999 457.997 63.999 460.997 c 0
 63.999 463.997 61.999 469.997 59.999 474.997 c 1
 56.999 479.997 53.999 489.997 51.999 496.997 c 0
 49.999 506.997 48.999 517.997 48.999 541.997 c 0
 48.999 568.997 48.999 573.997 51.999 576.997 c 0
 53.999 579.997 54.999 582.997 54.999 583.997 c 0
 54.999 585.997 56.999 589.997 58.999 592.997 c 0
 60.999 596.997 63.999 603.997 66.999 609.997 c 1
 68.999 615.997 70.999 620.997 70.999 622.997 c 0
 70.999 623.997 72.999 628.997 75.999 632.997 c 0
 78.999 636.997 81.999 642.997 83.999 646.997 c 0
 85.999 650.997 90.999 657.997 95.999 662.997 c 0
 100.999 668.997 106.999 672.997 109.999 673.997 c 1
 112.999 673.997 116.999 675.997 118.999 676.997 c 1
 120.999 678.997 121.999 680.997 121.999 681.997 c 0
 121.999 682.997 123.999 685.997 127.999 688.997 c 0
 130.999 690.997 135.999 694.997 139.999 696.997 c 0
 143.999 698.997 150.999 701.997 155.999 704.997 c 0
 162.999 708.997 165.999 708.997 177.999 708.997 c 0
 189.999 708.997 192.999 709.997 195.999 712.997 c 0
 197.999 714.997 201.999 715.997 205.999 715.997 c 0
 208.999 715.997 216.999 717.997 223.999 719.997 c 0
 229.999 721.997 238.999 722.997 243.999 722.997 c 0
 250.999 722.997 254.999 724.997 260.999 728.997 c 0
 264.999 731.997 271.999 736.997 274.999 739.997 c 0
 280.079 744.352 281.473 745.546 281.473 755.811 c 0
 281.473 759.69 281.273 764.866 280.999 771.998 c 0
 280.69 780.032 280.477 785.584 280.477 789.627 c 0
 280.477 798.667 281.544 800.162 284.999 804.999 c 0
EndSplineSet
Validated: 33
EndChar

StartChar: uni0025
Encoding: 37 37 6
Width: 967
GlyphClass: 2
Flags: W
LayerCount: 2
Fore
SplineSet
728 311 m 0
 726 312 719.001 313 713.001 313 c 0
 710.751 313.25 708.876 313.375 707.22 313.375 c 0
 702.251 313.375 699.251 312.25 694.001 310 c 0
 689.001 307 684.001 305 682.001 305 c 0
 681.001 305 678.001 303 676.001 301 c 0
 674.001 298 670.001 296 665.001 295 c 1
 660.001 295 656.001 293 654.001 292 c 1
 652.001 290 651.001 288 651.001 287 c 0
 651.001 286 646.001 279 640.001 273 c 0
 631.001 262 630.001 261 630.001 253 c 0
 630.001 247 628.001 243 625.001 238 c 0
 622.001 234 621.001 230 621.001 227 c 2
 621.001 195 l 1
 621.001 156 l 2
 621.001 148 622.001 143 625.001 136 c 0
 627.001 131 631.001 124 632.001 120 c 2
 634.001 116 635.001 109 635.001 106 c 0
 635.001 101 637.001 97 643.001 90 c 0
 648.001 84 654.001 79 658.001 78 c 1
 661.001 76 667.001 73 672.001 71 c 2
 684.001 65 l 2
 687.001 63 691.001 61 695.001 60 c 0
 698.001 59 704.001 57 708.001 57 c 0
 710.164 56.6914 711.754 56.4775 713.096 56.4775 c 0
 716.096 56.4775 717.854 57.5449 722 61 c 0
 725 64 730 67 732 67 c 0
 734 67 740 68 744 71 c 0
 749 74 753 77 755 82 c 0
 758 88 760 90 764 92 c 0
 767 93 772 95 774 98 c 2
 777 100 779 103 779 104 c 0
 779 105 781 109 784 111 c 0
 789 116 790 117 789 127 c 0
 789 136 789 139 793 143 c 0
 795 146 797 150 797 153 c 0
 797 156 795 163 793 169 c 0
 789 179 789 180 792 187 c 0
 795 192 795 197 795 204 c 0
 795 212 793 216 791 219 c 0
 788 222 787 225 788 238 c 0
 788 250 787 255 784 259 c 1
 783 262 781 266 780 269 c 1
 780 271 777 274 774 276 c 0
 770 278 768 281 767 284 c 1
 767 287 765 291 763 292 c 1
 761 294 757 294 754 294 c 1
 750 293 749 294 746 300 c 0
 743 305 741 307 737 308 c 1
 735 309 730 310 728 311 c 0
698.001 351 m 0
 702.001 352 711.001 352 718.001 352 c 0
 728.001 352 732.001 351 734.001 349 c 1
 735.001 347 739.001 346 744.001 345 c 0
 748.001 344 754.001 342 758.001 341 c 2
 762.001 339 766.001 337 768.001 337 c 0
 771.001 337 774.001 338 776.001 339 c 0
 778.001 340 780.001 340 782.001 337 c 0
 784.001 335 788.001 330 792.001 326 c 0
 796.001 322 802.001 318 804.001 317 c 0
 807.001 316 814.001 311 819.001 306 c 0
 824.001 301 830.001 294 833.001 289 c 0
 838.001 282 839.001 280 838.001 273 c 1
 838.001 260 l 1
 839.001 255 841.001 253 845.001 251 c 0
 848.001 250 851.001 247 852.001 246 c 1
 853.001 244 854.001 225 854.001 186 c 0
 853.001 134 853.001 128 850.001 123 c 0
 848.001 119 845.001 115 844.001 112 c 1
 842.001 110 840.001 105 839.001 101 c 0
 838.001 97 834.001 90 831.001 86 c 0
 827.001 81 823.001 77 820.001 75 c 1
 817.001 74 816.001 71 815.001 67 c 0
 814.001 63 814.001 59 813.001 58 c 1
 813.001 57 809.001 55 805.001 54 c 0
 800.001 53 798.001 51 798.001 49 c 0
 798.001 47 796.001 43 794.001 40 c 0
 791.001 37 788.001 35 786.001 35 c 0
 784.001 35 781.001 34 779.001 33 c 0
 777.001 32 775.001 30 775.001 28 c 0
 775.001 26 774.001 24 773.001 22 c 1
 770.001 21 762.001 20 739.001 20 c 0
 722.001 20 701.001 19 692.001 19 c 2
 670.001 19 l 2
 665.001 19 663.001 20 662.001 22 c 1
 661.001 23 658.001 26 655.001 28 c 0
 651.001 30 644.001 33 640.001 33 c 0
 633.001 34 629.001 36 626.001 40 c 0
 624.001 43 620.001 45 619.001 45 c 0
 617.001 45 615.001 47 613.001 49 c 0
 611.001 51 608.001 53 606.001 53 c 1
 604.001 54 601.001 56 600.001 58 c 0
 599.001 60 598.001 65 596.001 67 c 2
 595.001 70 592.001 74 589.001 76 c 0
 587.001 77 581.001 84 577.001 91 c 0
 571.001 101 570.001 105 570.001 112 c 0
 570.001 118 568.001 124 564.001 133 c 1
 560.001 139 558.001 146 558.001 148 c 0
 558.001 150 559.001 154 561.001 157 c 0
 564.001 162 565.001 165 564.001 171 c 0
 563.001 175 562.001 180 560.001 182 c 1
 559.001 184 558.001 189 558.001 196 c 0
 558.001 202 559.001 213 561.001 220 c 0
 563.001 227 565.001 235 565.001 237 c 0
 565.001 239 566.001 243 567.001 245 c 1
 569.001 247 570.001 250 570.001 252 c 0
 570.001 254 572.001 257 573.001 260 c 1
 575.001 262 577.001 265 577.001 266 c 1
 577.001 266 579.001 270 581.001 273 c 0
 585.001 277 586.001 280 585.001 284 c 0
 584.001 288 585.001 290 589.001 296 c 0
 592.001 300 595.001 304 597.001 305 c 2
 598.001 306 603.001 311 609.001 316 c 0
 614.001 321 620.001 325 621.001 325 c 0
 623.001 325 625.001 326 627.001 328 c 0
 629.001 331 632.001 332 634.001 331 c 0
 637.001 330 640.001 331 642.001 332 c 0
 644.001 333 647.001 336 648.001 339 c 1
 651.001 344 651.001 344 664.001 344 c 0
 672.001 344 681.001 345 685.001 347 c 2
 689.001 348 695.001 350 698.001 351 c 0
291.001 660 m 1
 287.001 664 282.001 667 280.001 667 c 0
 278.001 667 273.001 665 271.001 663 c 1
 266.001 660 263.001 659 254.001 660 c 0
 243.001 660 241.001 660 237.001 656 c 1
 233.001 653 229.001 651 224.001 651 c 0
 217.001 651 217.001 651 214.001 644 c 0
 212.001 640 209.001 636 206.001 635 c 1
 204.001 633 201.001 630 200.001 628 c 0
 199.001 626 196.001 619 192.001 613 c 0
 186.001 604 185.001 601 186.001 591 c 0
 186.001 585 185.001 574 185.001 565 c 0
 185.001 553 184.001 550 182.001 547 c 0
 179.334 544.333 178.445 542.556 178.445 533.667 c 0
 178.445 529.223 178.668 523 179.001 514 c 0
 179.001 485 179.001 485 186.001 471 c 0
 190.001 464 194.001 455 195.001 452 c 1
 195.001 449 198.001 445 200.001 443 c 2
 201.001 440 206.001 437 209.001 435 c 1
 213.001 434 218.001 430 220.001 428 c 0
 222.001 425 228.001 422 234.001 421 c 1
 240.001 419 248.001 416 253.001 415 c 0
 260.001 413 263.001 413 270.001 414 c 1
 275.001 416 280.001 417 281.001 418 c 0
 282.001 419 286.001 421 291.001 424 c 1
 296.001 426 302.001 428 305.001 428 c 0
 309.001 428 313.001 430 316.001 432 c 0
 319.001 434 323.001 439 325.001 443 c 0
 327.001 446 331.001 449 333.001 449 c 0
 334.001 449 337.001 450 338.001 452 c 2
 339.001 453 340.001 455 340.001 457 c 0
 340.001 460 342.001 463 344.001 465 c 0
 347.001 468 347.001 469 346.001 488 c 0
 345.054 506.003 345.001 508 349.001 514 c 0
 351.001 518 353.001 524 353.001 531 c 0
 354.001 540 354.001 543 351.001 548 c 0
 347.001 554 347.001 554 350.001 562 c 0
 354.001 571 354.001 571 350.001 578 c 0
 348.001 581 347.001 588 347.001 592 c 0
 347.001 597 346.001 602 344.001 604 c 0
 342.001 607 340.001 611 339.001 615 c 0
 338.001 618 336.001 624 333.001 629 c 0
 330.001 635 327.001 638 324.001 639 c 0
 320.001 640 316.001 643 313.001 646 c 0
 310.001 649 305.001 652 302.001 652 c 1
 300.001 653 294.001 656 291.001 660 c 1
258.001 706 m 0
 260.929 707.464 264.394 708.392 266.824 708.392 c 0
 267.714 708.392 268.465 708.268 269.001 708 c 1
 271.001 708 278.001 706 285.001 705 c 2
 291.001 703 301.001 702 306.001 703 c 1
 317.001 703 l 2
 318.001 703 322.001 700 325.001 696 c 1
 329.001 693 334.001 690 337.001 689 c 1
 340.001 689 345.001 687 348.001 686 c 1
 351.001 684 356.001 682 359.001 681 c 0
 362.001 680 368.001 675 373.001 668 c 0
 378.001 661 382.001 655 382.001 653 c 0
 382.001 652 384.001 649 386.001 647 c 1
 387.001 645 389.001 642 389.001 639 c 0
 389.001 637 391.001 633 393.001 631 c 0
 395.001 629 397.001 624 399.001 619 c 0
 400.001 615 402.001 609 403.001 608 c 0
 404.001 607 406.001 601 406.001 596 c 0
 406.001 591 407.001 585 409.001 583 c 0
 410.001 582 412.001 579 412.001 578 c 2
 413.001 577 413.001 572 412.001 567 c 0
 410.001 559 411.001 557 414.001 552 c 0
 417.001 546 418.001 543 418.001 527 c 0
 417.001 514 417.001 508 415.001 505 c 0
 413.001 502 412.001 497 412.001 494 c 0
 412.001 489 411.001 486 408.001 484 c 0
 406.001 483 404.001 479 403.001 475 c 0
 402.001 471 400.001 464 400.001 460 c 0
 399.001 454 397.001 450 394.001 448 c 0
 392.001 446 387.001 440 384.001 434 c 0
 381.001 428 377.001 422 376.001 422 c 1
 374.001 421 372.001 418 370.001 415 c 1
 369.001 412 365.001 407 362.001 403 c 0
 359.001 400 355.001 397 354.001 397 c 0
 352.001 397 349.001 396 346.001 394 c 1
 343.001 393 340.001 392 339.001 392 c 0
 338.001 392 335.001 389 332.001 386 c 0
 329.001 383 323.001 380 319.001 379 c 0
 316.001 378 305.001 378 297.001 379 c 0
 283.001 380 280.001 379 276.001 376 c 0
 272.001 374 267.001 373 254.001 373 c 0
 245.001 373 235.001 374 232.001 375 c 0
 228.001 376 227.001 376 226.001 372 c 1
 226.001 370 225.001 369 224.001 369 c 0
 223.001 369 222.001 370 222.001 372 c 0
 222.001 374 219.001 377 215.001 380 c 0
 212.001 383 207.001 384 206.001 384 c 1
 204.001 383 200.001 384 197.001 385 c 1
 194.001 387 190.001 390 189.001 394 c 1
 186.001 399 186.001 399 177.001 399 c 0
 172.001 399 167.001 401 165.001 402 c 1
 164.001 403 162.001 405 162.001 406 c 0
 162.001 407 159.001 413 155.001 418 c 0
 150.001 424 146.001 430 145.001 431 c 0
 144.001 432 141.001 434 139.001 436 c 0
 136.001 439 134.001 442 134.001 447 c 0
 134.001 451 133.001 456 132.001 457 c 0
 130.001 460 129.001 466 129.001 479 c 0
 129.001 496 129.001 497 125.001 501 c 0
 122.001 504 120.001 507 120.001 511 c 0
 120.001 514 119.001 520 117.001 523 c 1
 115.001 528 114.001 533 114.001 542 c 0
 114.001 550 116.001 557 118.001 562 c 0
 120.001 566 122.001 572 122.001 574 c 0
 122.001 576 124.001 581 126.001 584 c 0
 128.001 588 129.001 592 129.001 595 c 1
 128.001 598 129.001 603 130.001 607 c 1
 132.001 611 134.001 618 135.001 622 c 0
 136.001 629 138.001 632 142.001 634 c 0
 144.001 635 149.001 642 152.001 648 c 0
 157.001 657 159.001 660 163.001 660 c 0
 165.001 660 169.001 663 173.001 666 c 0
 176.001 669 178.001 673 178.001 675 c 0
 178.001 676 180.001 679 183.001 680 c 0
 186.001 681 192.001 685 198.001 689 c 0
 205.001 694 209.001 695 215.001 695 c 0
 220.001 695 224.001 697 227.001 699 c 0
 230.001 701 234.001 702 241.001 702 c 0
 247.001 702 254.001 704 258.001 706 c 0
666.002 724.999 m 2
 669.002 726.999 672.002 728.999 673.002 728.999 c 0
 674.002 728.999 680.002 727.999 687.002 725.999 c 0
 694.002 724.999 701.002 722.999 702.002 721.999 c 0
 702.502 721.499 702.752 720.749 702.752 719.874 c 0
 702.752 718.999 702.502 717.999 702.002 716.999 c 0
 701.002 714.999 700.002 710.999 700.002 708.999 c 0
 700.002 705.999 698.002 701.999 695.002 699.999 c 0
 693.002 697.999 689.002 694.999 687.002 692.999 c 1
 686.002 690.999 684.002 687.999 684.002 683.999 c 0
 684.002 680.999 683.002 675.999 681.002 671.999 c 0
 679.002 667.999 676.002 662.999 674.002 660.999 c 0
 672.002 658.999 670.002 655.999 670.002 653.999 c 0
 670.002 650.999 669.002 646.999 667.002 643.999 c 2
 666.002 640.999 662.002 635.999 660.002 631.999 c 1
 657.002 628.999 653.002 622.999 652.002 619.999 c 2
 650.002 616.999 649.002 612.999 649.002 609.999 c 0
 649.002 606.999 647.002 604.999 644.002 601.999 c 0
 640.002 598.999 639.002 596.999 638.002 589.999 c 0
 637.002 584.999 636.002 578.999 634.002 575.999 c 2
 633.002 572.999 629.002 569.999 626.002 567.999 c 1
 623.002 566.999 620.002 563.999 618.002 561.999 c 1
 617.002 558.999 616.002 554.999 616.002 550.999 c 0
 616.002 545.999 614.002 542.999 608.002 534.999 c 0
 603.002 528.999 599.002 524.999 598.002 524.999 c 0
 597.002 524.999 596.002 522.999 596.002 520.999 c 0
 596.002 517.999 594.002 513.999 591.002 511.999 c 2
 582.002 502.999 l 2
 581.002 501.999 578.002 496.999 577.002 492.999 c 0
 576.002 488.999 574.002 482.999 571.002 478.999 c 0
 569.002 475.999 566.002 468.999 564.002 463.999 c 0
 562.002 457.999 559.002 450.999 556.002 447.999 c 0
 552.002 443.999 551.002 439.999 551.002 436.999 c 0
 551.002 432.999 549.002 429.999 543.002 424.999 c 0
 539.002 420.999 536.002 415.999 536.002 413.999 c 2
 535.002 411.999 535.002 408.999 535.002 408.999 c 2
 535.002 407.999 532.002 405.999 530.002 404.999 c 0
 525.002 401.999 524.002 400.999 525.002 393.999 c 1
 525.002 385.999 524.002 383.999 519.002 377.999 c 0
 516.002 373.999 510.002 367.999 507.002 364.999 c 1
 502.002 361.999 500.002 357.999 498.002 351.999 c 0
 497.002 347.999 495.002 342.999 493.002 340.999 c 0
 490.002 338.999 489.002 335.999 489.002 330.999 c 0
 489.002 325.999 488.002 320.999 487.002 319.999 c 2
 487.002 317.999 483.002 315.999 480.002 313.999 c 1
 477.002 312.999 475.002 310.999 474.002 308.999 c 1
 474.002 307.999 472.002 303.999 471.002 301.999 c 0
 469.002 298.999 468.002 293.999 468.002 289.999 c 0
 468.002 283.999 467.002 280.999 464.002 278.999 c 1
 462.002 275.999 458.002 272.999 455.002 271.999 c 1
 453.002 269.999 448.002 262.999 444.002 256.999 c 1
 439.002 245.999 438.002 243.999 439.002 236.999 c 0
 440.002 228.999 440.002 227.999 435.002 222.999 c 0
 432.002 220.999 428.002 215.999 426.002 211.999 c 2
 423.002 208.999 420.002 202.999 417.002 198.999 c 0
 415.002 194.999 412.002 190.999 410.002 189.999 c 0
 408.002 188.999 407.002 185.999 407.002 183.999 c 0
 407.002 180.999 405.002 177.999 402.002 175.999 c 0
 399.002 173.999 396.002 169.999 395.002 163.999 c 1
 393.002 158.999 391.002 155.999 389.002 154.999 c 1
 387.002 154.999 383.002 150.999 380.002 147.999 c 0
 376.002 142.999 375.002 139.999 375.002 133.999 c 0
 375.002 126.999 374.002 125.999 368.002 120.999 c 0
 363.002 116.999 361.002 113.999 361.002 110.999 c 0
 361.002 108.999 360.002 105.999 358.002 104.999 c 1
 357.002 103.999 356.002 101.999 356.002 99.999 c 0
 356.002 97.999 353.002 92.999 350.002 87.999 c 1
 346.002 83.999 343.002 76.999 342.002 73.999 c 1
 342.002 69.999 339.002 64.999 336.002 61.999 c 0
 334.002 58.999 329.002 50.999 325.002 43.999 c 1
 322.002 35.999 318.002 26.999 317.002 22.999 c 0
 316.002 18.999 316.002 14.999 316.002 12.999 c 1
 317.002 11.999 315.002 8.99902 312.002 6.99902 c 0
 309.002 3.99902 306.002 0.999023 305.002 -1.00098 c 0
 304.002 -4.00098 300.002 -6.00098 296.002 -7.00098 c 0
 293.002 -8.00098 283.002 -8.00098 275.002 -8.00098 c 0
 266.002 -8.00098 259.002 -7.00098 257.002 -6.00098 c 1
 256.002 -6.00098 256.002 -3.00098 256.002 -1.00098 c 0
 256.002 1.99902 257.002 6.99902 260.002 11.999 c 0
 262.002 15.999 267.002 22.999 271.002 27.999 c 1
 276.002 31.999 281.002 39.999 284.002 44.999 c 0
 287.002 49.999 289.002 55.999 289.002 57.999 c 0
 289.002 58.999 290.002 61.999 292.002 63.999 c 1
 293.002 65.999 294.002 68.999 294.002 70.999 c 0
 294.002 72.999 298.002 77.999 303.002 82.999 c 0
 308.002 86.999 313.002 90.999 314.002 92.999 c 1
 316.002 93.999 317.002 96.999 317.002 100.999 c 0
 317.002 104.999 318.002 110.999 319.002 113.999 c 0
 320.002 116.999 324.002 123.999 326.002 127.999 c 0
 329.002 131.999 333.002 137.999 335.002 139.999 c 0
 337.002 141.999 339.002 147.999 340.002 152.999 c 0
 341.002 159.999 343.002 162.999 348.002 167.999 c 0
 351.002 170.999 355.002 174.999 356.002 177.999 c 2
 358.002 180.999 360.002 186.999 361.002 189.999 c 0
 362.002 194.999 365.002 198.999 368.002 201.999 c 0
 371.002 203.999 373.002 206.999 373.002 209.999 c 0
 373.002 211.999 376.002 217.999 380.002 221.999 c 0
 385.002 227.999 388.002 232.999 388.002 236.999 c 1
 389.002 240.999 392.002 246.999 395.002 250.999 c 1
 399.002 254.999 401.002 258.999 401.002 260.999 c 0
 401.002 261.999 404.002 265.999 408.002 269.999 c 0
 412.002 274.999 413.002 278.999 413.002 280.999 c 1
 412.002 282.999 413.002 285.999 416.002 288.999 c 0
 419.002 290.999 421.002 293.999 421.002 294.999 c 0
 421.002 296.999 423.002 298.999 425.002 301.999 c 0
 427.002 303.999 431.002 310.999 433.002 315.999 c 0
 436.002 324.999 437.002 325.999 443.002 326.999 c 0
 446.002 327.999 450.002 329.999 451.002 331.999 c 1
 451.002 332.999 452.002 339.999 452.002 346.999 c 0
 452.002 357.999 453.002 359.999 456.002 361.999 c 0
 458.002 363.999 462.002 364.999 465.002 364.999 c 0
 467.002 364.999 470.002 365.999 471.002 366.999 c 0
 472.002 367.999 473.002 370.999 473.002 372.999 c 0
 473.002 373.999 474.002 377.999 476.002 379.999 c 1
 477.002 381.999 479.002 386.999 480.002 390.999 c 1
 480.002 395.999 483.002 400.999 488.002 406.999 c 0
 491.002 410.999 494.002 415.999 494.002 417.999 c 0
 494.002 419.999 497.002 425.999 501.002 430.999 c 1
 504.002 436.999 507.002 442.999 507.002 443.999 c 0
 507.002 445.999 508.002 448.999 510.002 450.999 c 0
 512.002 453.999 515.002 458.999 516.002 461.999 c 0
 518.002 465.999 521.002 468.999 525.002 470.999 c 0
 528.002 472.999 532.002 475.999 533.002 478.999 c 0
 534.002 480.999 535.002 483.999 535.002 484.999 c 0
 535.002 485.999 536.002 488.999 538.002 491.999 c 0
 540.002 493.999 542.002 500.999 543.002 506.999 c 0
 544.002 514.999 545.002 517.999 549.002 521.999 c 0
 552.002 523.999 554.002 527.999 554.002 529.999 c 0
 554.002 531.999 558.002 536.999 562.002 540.999 c 0
 567.002 545.999 570.002 550.999 571.002 554.999 c 0
 572.002 557.999 573.002 561.999 574.002 563.999 c 1
 576.002 564.999 578.002 568.999 579.002 572.999 c 2
 581.002 576.999 582.002 581.999 582.002 583.999 c 0
 582.002 585.999 584.002 589.999 586.002 591.999 c 0
 589.002 593.999 592.002 598.999 593.002 600.999 c 0
 595.002 603.999 598.002 609.999 601.002 613.999 c 0
 603.002 617.999 606.002 623.999 608.002 625.999 c 0
 610.002 628.999 612.002 631.999 612.002 632.999 c 0
 612.002 633.999 615.002 637.999 619.002 641.999 c 0
 623.002 645.999 626.002 649.999 626.002 651.999 c 0
 626.002 653.999 628.002 657.999 630.002 659.999 c 0
 632.002 662.999 633.002 665.999 633.002 666.999 c 0
 633.002 667.999 637.002 672.999 641.002 677.999 c 0
 648.002 684.999 649.002 686.999 649.002 693.999 c 0
 649.002 698.999 650.002 704.999 652.002 708.999 c 2
 653.002 712.999 656.002 716.999 657.002 718.999 c 1
 659.002 720.999 663.002 723.999 666.002 724.999 c 2
EndSplineSet
Validated: 33
EndChar

StartChar: uni0026
Encoding: 38 38 7
Width: 748
GlyphClass: 2
Flags: W
LayerCount: 2
Fore
SplineSet
290 352 m 2
 283 358 283 357.999 266 357.999 c 0
 257 357.999 249 356.999 247 356.999 c 1
 246 355.999 243 353.999 240 352.999 c 1
 238 350.999 235 348.999 233 348.999 c 0
 231 348.999 222 341.999 211 330.999 c 0
 199 318.999 193 310.999 192 306.999 c 0
 191 303.999 188 298.999 183 294.999 c 0
 179 291.999 172 284.999 169 279.999 c 0
 164 271.999 163 269.999 164 263.999 c 0
 165 257.999 164 254.999 162 252.999 c 0
 160 249.999 158 245.999 158 240.999 c 0
 158 235.999 158 216.999 157 197.999 c 0
 157 166.999 157 161.999 160 157.999 c 0
 162 155.999 163 151.999 163 150.999 c 0
 163 149.999 165 143.999 168 137.999 c 0
 171 130.999 175 125.999 177 124.999 c 1
 178 123.999 181 119.999 183 115.999 c 0
 185 110.999 188 107.999 191 106.999 c 0
 194 105.999 198 102.999 200 99.999 c 0
 202 95.999 204 90.999 204 86.999 c 0
 205 81.999 207 78.999 213 75.999 c 0
 219 71.999 222 70.999 232 70.999 c 0
 241 70.999 247 68.999 251 66.999 c 0
 256 63.999 259 63.999 272 63.999 c 0
 280 64.999 288 64.999 290 64.999 c 0
 292 64.999 300 63.999 307 63.999 c 1
 314 62.999 322 60.999 324 59.999 c 0
 328 57.999 333 57.999 345 57.999 c 0
 358 58.999 363 59.999 371 63.999 c 0
 377 66.999 384 69.999 386 70.999 c 1
 389 70.999 393 72.999 395 74.999 c 0
 397 76.999 400 78.999 401 77.999 c 1
 402 77.999 407 78.999 411 80.999 c 0
 415 82.999 420 83.999 422 83.999 c 0
 425 83.999 429 86.999 433 91.999 c 0
 438 98.999 440 99.999 445 99.999 c 0
 449 99.999 452 100.999 453 102.999 c 0
 454 104.999 457 106.999 459 107.999 c 1
 462 107.999 463 109.999 463 111.999 c 0
 463 112.999 465 115.999 467 118.999 c 0
 469 120.999 470 124.999 470 125.999 c 0
 470 127.999 472 130.999 473 132.999 c 1
 475 134.999 477 138.999 478 142.999 c 1
 478 144.999 478.444 149.222 478.444 154.185 c 0
 478.444 156.666 478.333 159.333 478 162 c 0
 477 176 477 176 466 181 c 0
 458 185 455 187 454 190 c 0
 453 193 450 198 447 202 c 0
 444 205 439 213 435 218 c 0
 430 226 427 229 420 233 c 0
 415 235 410 239 408 240 c 1
 406 242 403 244 400 245 c 1
 397 245 394 248 392 251 c 0
 390 253 386 259 382 263 c 2
 379 267 375 270 374 270 c 0
 373 270 370 274 366 279 c 0
 363 284 360 288 360 289 c 0
 360 290 354 296 347 302 c 0
 339 308 331 316 328 319 c 0
 325 323 319 327 316 329 c 0
 312 331 307 335 303 339 c 2
 290 352 l 2
361 683.999 m 2
 355 685.999 346 686.999 341 687.999 c 0
 336 688.999 331 688.999 331 688.999 c 1
 331 688.999 322 687.999 311 687.999 c 0
 295 687.999 290 686.999 287 684.999 c 0
 285 682.999 281 680.999 278 679.999 c 1
 275 679.999 270 677.999 266 676.999 c 1
 263 674.999 255 668.999 248 662.999 c 0
 242 656.999 235 648.999 232 644.999 c 0
 229 640.999 226 636.999 224 635.999 c 0
 222 634.999 221 630.999 220 626.999 c 0
 219 623.999 217 618.999 215 615.999 c 0
 213 612.999 212 607.999 212 598.999 c 0
 212 589.999 213 582.999 217 572.999 c 0
 220 564.999 224 556.999 225 554.999 c 1
 227 552.999 228 549.999 227 546.999 c 0
 226 544.999 227 540.999 229 535.999 c 0
 231 531.999 235 527.999 238 525.999 c 0
 241 523.999 245 520.999 247 518.999 c 1
 248 516.999 251 513.999 254 513.999 c 1
 257 512.999 263 507.999 269 502.999 c 0
 279 492.999 279 492.999 304 491.999 c 0
 328 491.999 328 491.999 336 497.999 c 0
 341 500.999 346 503.999 347 503.999 c 0
 348 503.999 351 505.999 353 508.999 c 0
 356 511.999 359 513.999 361 513.999 c 0
 362 513.999 368 519.999 375 525.999 c 0
 383 533.999 386 537.999 386 540.999 c 0
 386 543.999 388 546.999 391 549.999 c 0
 394 551.999 398 558.999 402 564.999 c 1
 405 571.999 408 579.999 408 583.999 c 1
 409 587.999 410 591.999 411 593.999 c 1
 413 595.999 414 602.999 415 607.999 c 1
 415 614.999 415 621.999 413 628.999 c 0
 412 633.999 409 639.999 407 642.999 c 0
 406 644.999 402 649.999 400 653.999 c 0
 398 657.999 394 662.999 390 665.999 c 0
 387 667.999 383 671.999 382 673.999 c 0
 380 676.999 378 679.999 376 679.999 c 1
 374 680.999 368 682.999 361 683.999 c 2
272 751.999 m 2
 275 753.999 280.001 753.997 282.001 753.997 c 1
 283.001 752.997 307.001 752.997 333.001 752.997 c 0
 376.001 751.997 382.001 751.997 386.001 748.997 c 0
 388.001 747.997 392.001 745.997 393.001 745.997 c 0
 395.001 745.997 399.001 743.997 402.001 741.997 c 0
 404.001 739.997 408.001 737.997 410.001 737.997 c 0
 411.001 737.997 415.001 735.997 419.001 733.997 c 0
 423.001 731.997 427.001 730.997 429.001 730.997 c 0
 431.001 730.997 435.001 728.997 438.001 725.997 c 0
 441.001 723.997 448.001 720.997 455.001 717.997 c 0
 461.001 715.997 468.001 711.997 470.001 709.997 c 0
 472.001 707.997 474.001 703.997 474.001 701.997 c 0
 474.001 700.997 474.001 698.997 475.001 697.997 c 1
 476.001 697.997 479.001 692.997 481.001 687.997 c 2
 484.001 682.997 487.001 674.997 490.001 669.997 c 1
 492.001 664.997 493.001 657.997 493.001 651.997 c 0
 493.001 645.997 494.001 641.997 497.001 636.997 c 0
 501.001 631.997 501.001 628.997 502.001 615.997 c 2
 502.001 596.997 l 2
 502.001 593.997 502.001 588.997 501.001 585.997 c 0
 500.001 581.997 499.001 577.997 498.001 576.997 c 1
 498.001 575.997 494.001 567.997 491.001 558.997 c 0
 487.001 549.997 484.001 541.997 484.001 541.997 c 1
 484.001 540.997 482.001 537.997 479.001 533.997 c 0
 476.001 530.997 472.001 521.997 469.001 515.997 c 0
 464.001 504.997 462.001 502.997 449.001 493.997 c 0
 440.001 488.997 432.001 481.997 429.001 478.997 c 0
 427.001 475.997 425.001 471.997 425.001 469.997 c 0
 425.001 468.997 422.001 463.997 419.001 460.997 c 0
 416.001 457.997 410.001 452.997 404.001 449.997 c 1
 398.001 447.997 392.001 444.997 390.001 443.997 c 0
 387.001 441.997 384.001 438.997 383.001 435.997 c 0
 382.001 432.997 381.001 428.997 379.001 427.997 c 1
 378.001 425.997 377.001 421.997 378.001 416.997 c 0
 378.001 412.997 380.001 406.997 381.001 403.997 c 0
 383.001 399.997 388.001 392.997 392.001 387.997 c 0
 397.001 382.997 405.001 372.997 410.001 365.997 c 2
 435.001 337.997 l 2
 446.001 326.997 452.001 318.997 455.001 311.997 c 0
 458.001 305.997 462.001 298.997 464.001 294.997 c 0
 468.001 287.997 469.001 287.997 474.001 288.997 c 0
 478.001 289.997 481.001 288.997 485.001 285.997 c 0
 488.001 283.997 492.001 282.997 494.001 282.997 c 0
 495.001 282.997 501.001 276.997 506.001 270.997 c 0
 512.001 264.997 518.001 258.997 521.001 256.997 c 1
 524.001 255.997 534.001 253.997 545.001 253.997 c 0
 556.001 252.997 566.001 252.997 567.001 253.997 c 2
 569.001 253.997 572.001 257.997 573.001 260.997 c 0
 575.001 264.997 576.001 269.997 577.001 273.997 c 1
 577.001 276.997 579.001 280.997 581.001 283.997 c 0
 584.001 287.997 584.001 290.997 584.001 303.997 c 0
 584.001 318.997 584.001 320.997 589.001 327.997 c 0
 591.001 331.997 593.001 335.997 592.001 336.997 c 1
 592.001 338.997 593.001 342.997 594.001 345.997 c 1
 597.001 350.997 598.001 355.997 598.001 383.997 c 0
 598.001 404.997 598.001 415.997 600.001 418.997 c 0
 601.001 420.997 603.001 428.997 604.001 435.997 c 0
 605.001 443.997 607.001 453.997 609.001 457.997 c 0
 612.001 461.997 614.001 465.997 615.001 465.997 c 0
 616.001 465.997 622.001 467.997 628.001 469.997 c 0
 634.001 471.997 641.001 473.997 644.001 475.997 c 0
 647.001 478.997 649.001 478.997 653.001 478.997 c 1
 656.001 477.997 662.001 477.997 665.001 479.997 c 1
 669.001 480.997 675.001 480.997 678.001 479.997 c 2
 681.001 479.997 687.001 476.997 691.001 473.997 c 0
 696.081 469.643 697.475 468.448 697.475 453.598 c 0
 697.475 447.984 697.275 440.42 697.001 429.997 c 0
 697.001 395.997 696.001 388.997 693.001 379.997 c 0
 690.001 371.997 690.084 367.004 691.001 355.997 c 0
 692.001 343.997 691.001 342.997 687.001 336.997 c 0
 685.001 333.997 683.001 329.997 683.001 328.997 c 0
 683.001 327.997 681.001 322.997 679.001 318.997 c 0
 677.001 314.997 675.001 309.997 673.001 308.997 c 1
 672.001 307.997 671.001 303.997 671.001 299.997 c 0
 671.001 296.997 670.001 289.997 670.001 285.997 c 1
 669.001 281.997 666.001 273.997 664.001 268.997 c 0
 662.001 263.997 659.001 258.997 658.001 258.997 c 1
 657.001 257.997 657.001 254.997 657.001 251.997 c 0
 657.001 247.997 654.001 242.997 650.001 236.997 c 0
 646.001 231.997 640.001 220.997 636.001 213.997 c 0
 628.001 200.997 628.021 200.996 627.001 175.997 c 0
 626.766 170.23 626.578 165.85 626.578 162.396 c 0
 626.578 151.477 628.403 149.834 636.001 142.996 c 1
 642.001 138.996 646.001 133.996 646.001 132.996 c 0
 646.001 130.996 648.001 128.996 651.001 126.996 c 0
 653.001 124.996 658.001 121.996 660.001 118.996 c 0
 663.001 115.996 665.001 111.996 665.001 110.996 c 0
 665.001 109.996 667.001 107.996 669.001 107.996 c 1
 671.001 106.996 682.001 96.9961 694.001 85.9961 c 0
 706.001 73.9961 719.001 61.9961 724.001 58.9961 c 0
 729.001 55.9961 735.001 52.9961 736.001 50.9961 c 2
 737.001 49.9961 740.001 44.9961 742.001 38.9961 c 0
 743.903 34.5586 744.6 31.7285 744.6 29.4873 c 0
 744.6 28.1934 744.367 27.0957 744.001 25.998 c 1
 742.001 23.998 739.001 19.998 735.001 16.998 c 0
 729.001 11.998 727.001 11.998 718.001 11.998 c 2
 700.001 11.998 l 2
 696.001 11.998 685.001 11.998 675.001 12.998 c 0
 663.001 12.998 656.001 13.998 652.001 15.998 c 0
 649.001 17.998 645.001 18.998 643.001 18.998 c 0
 641.001 18.998 636.001 21.998 632.001 23.998 c 1
 627.001 27.998 625.001 30.998 625.001 33.998 c 0
 625.001 36.998 623.001 41.998 620.001 44.998 c 0
 618.001 47.998 615.001 50.998 614.001 50.998 c 0
 612.001 50.998 609.001 53.998 606.001 56.998 c 0
 603.001 59.998 599.001 62.998 597.001 62.998 c 0
 595.001 62.998 588.001 68.998 579.001 76.998 c 0
 567.164 88.0459 564.668 90.376 558.245 90.376 c 0
 556.528 90.376 554.531 90.21 552 89.999 c 0
 544 88.999 539 87.999 536 85.999 c 0
 534 83.999 530 81.999 528 81.999 c 0
 524 81.999 522 80.999 519 75.999 c 0
 516 71.999 511 65.999 507 62.999 c 0
 504 59.999 497 55.999 493 53.999 c 0
 488 51.999 482 47.999 480 44.999 c 0
 478 42.999 472 38.999 468 37.999 c 2
 464 35.999 458 33.999 455 32.999 c 0
 452 31.999 447 28.999 444 26.999 c 0
 441 24.999 436 21.999 434 20.999 c 0
 432 19.999 424 16.999 415 12.999 c 0
 406 8.99902 397 6.99902 392 6.99902 c 0
 388 6.99902 380 4.99902 375 2.99902 c 0
 370 0.999023 363 -0.000976562 359 -0.000976562 c 0
 354 -0.000976562 351 -2.00098 347 -5.00098 c 0
 344 -7.25098 341.562 -8.37598 338.422 -8.37598 c 0
 337.375 -8.37598 336.25 -8.25098 335 -8.00098 c 0
 332 -8.00098 325 -7.00098 321 -7.00098 c 0
 317 -7.00098 306 -8.00098 296 -8.00098 c 0
 290.667 -8.33398 287 -8.55664 284.259 -8.55664 c 0
 278.777 -8.55664 277 -7.66797 273 -5.00098 c 0
 266 -1.00098 265 -0.000976562 241 -0.000976562 c 0
 216 -0.000976562 216 -0.000976562 202 6.99902 c 0
 190 12.999 187 12.999 180 12.999 c 1
 173 11.999 172 11.999 166 18.999 c 0
 162 24.999 159 25.999 156 25.999 c 1
 153 24.999 151 25.999 149 28.999 c 1
 148 31.999 142 34.999 138 37.999 c 1
 133 39.999 125 44.999 120 49.999 c 0
 115 54.999 108 59.999 106 61.999 c 1
 103 62.999 98 66.999 95 68.999 c 0
 92 70.999 89 74.999 88 76.999 c 0
 87 79.999 85 85.999 83 90.999 c 1
 80 95.999 76 104.999 74 109.999 c 1
 71 113.999 68 119.999 66 121.999 c 0
 64 123.999 63 127.999 63 129.999 c 0
 63 132.999 61 137.999 60 140.999 c 0
 58 144.999 57 151.999 56 168.999 c 2
 56 193.999 l 2
 56 194.999 56 202.999 57 210.999 c 0
 57 219.999 58 226.999 58 227.999 c 1
 59 227.999 58 229.999 57 231.999 c 0
 56 234.999 56 236.999 60 241.999 c 0
 63 245.999 65 249.999 65 251.999 c 0
 65 253.999 66 256.999 67 258.999 c 1
 69 260.999 70 264.999 70 269.999 c 0
 70 273.999 71 278.999 73 280.999 c 0
 75 282.999 77 286.999 77 289.999 c 1
 78 292.999 82 297.999 86 302.999 c 0
 90 307.999 93 312.999 93 315.999 c 0
 93 318.999 95 322.999 98 326.999 c 0
 101 330.999 105 332.999 106 332.999 c 1
 108 331.999 113 335.999 120 341.999 c 0
 126 346.999 135 355.999 141 361.999 c 0
 146 366.999 151 372.999 151 373.999 c 1
 151 373.999 154 376.999 159 379.999 c 0
 164 382.999 170 386.999 174 388.999 c 1
 177 391.999 182 392.999 185 392.999 c 0
 187 392.999 190 393.999 190 394.999 c 1
 191 395.999 193 402.999 194 409.999 c 0
 195 416.999 196 427.999 196 434.999 c 0
 196 445.999 196 447.999 190 456.999 c 0
 186 462.999 181 468.999 178 469.999 c 0
 174 471.999 170 477.999 167 481.999 c 1
 165 486.999 161 493.999 159 496.999 c 0
 156 499.999 154 504.999 153 507.999 c 1
 153 509.999 151 513.999 150 514.999 c 0
 149 515.999 146 519.999 145 522.999 c 2
 143 525.999 142 529.999 142 531.999 c 0
 142 534.999 141 539.999 139 543.999 c 2
 138 548.999 135 553.999 134 554.999 c 0
 132 556.999 131 559.999 130 561.999 c 1
 130 563.999 129 565.999 128 567.999 c 1
 128 568.999 127 578.999 127 590.999 c 0
 126 601.999 126 614.999 126 618.999 c 0
 126 622.999 127 629.999 128 635.999 c 0
 129 640.999 130 647.999 131 650.999 c 1
 131 654.999 134 657.999 137 659.999 c 0
 139 660.999 142 663.999 143 666.999 c 2
 145 668.999 145 672.999 144 674.999 c 1
 144 677.999 144 679.999 147 680.999 c 1
 150 682.999 155 686.999 159 690.999 c 0
 163 694.999 168 700.999 170 704.999 c 0
 172 708.999 175 713.999 177 714.999 c 0
 180 716.999 183 717.999 184 717.999 c 0
 186 717.999 191 722.999 196 727.999 c 0
 205 737.999 205 737.999 227 738.999 c 0
 248 738.999 249 738.999 257 743.999 c 0
 262 746.999 268 750.999 272 751.999 c 2
EndSplineSet
Validated: 33
EndChar

StartChar: uni0027
Encoding: 39 39 8
Width: 1091
GlyphClass: 2
Flags: W
LayerCount: 2
Fore
SplineSet
578 722 m 0
 580 724.667 581.111 725.556 590.815 725.556 c 0
 595.667 725.556 602.667 725.333 613 725 c 0
 630 724 645 723 646 722 c 0
 647 721 648 714 648 708 c 0
 647 697 646 694 641 686 c 0
 638 680 635 675 635 673 c 0
 635 672 622 658 606 642 c 2
 572 609 l 2
 570 607 568 603 567 601 c 0
 566 598 561 591 555 585 c 0
 549 578 543 572 541 571 c 0
 538 570 536 567 535 564 c 1
 535 561 533 557 531 555 c 1
 530 552 526 546 524 541 c 1
 521 536 517 531 515 530 c 0
 513 529 509 526 507 523 c 0
 505 520 501 518 499 518 c 0
 498 518 494 517 491 516 c 1
 489 514 484 513 480 512 c 0
 478.75 511.75 477.562 511.625 476.375 511.625 c 0
 472.812 511.625 469.25 512.75 464 515 c 0
 458 518 452 522 449 524 c 0
 444 528 443 530 443 538 c 0
 443 545 444 549 447 551 c 0
 449 553 451 555 452 555 c 0
 453 555 456 561 459 568 c 0
 463 576 469 586 473 590 c 0
 477 595 481 601 483 603 c 1
 484 605 486 610 487 614 c 1
 487 619 489 622 492 624 c 0
 494 625 496 627 497 628 c 1
 497 629 498 631 498 633 c 0
 498 636 499 638 501 639 c 0
 503 640 504 642 504 645 c 0
 504 647 505 650 506 652 c 1
 506 654 509 657 512 659 c 0
 514 661 519 667 523 674 c 0
 527 680 530 686 531 688 c 1
 531 690 532 692 533 692 c 0
 534 692 536 693 538 695 c 0
 540 698 542 701 542 705 c 0
 542 709 543 712 546 714 c 0
 548 715 555 716 562 717 c 0
 571 718 575 719 578 722 c 0
EndSplineSet
Validated: 1
EndChar

StartChar: uni0028
Encoding: 40 40 9
Width: 320
GlyphClass: 2
Flags: W
LayerCount: 2
Fore
SplineSet
241 807 m 1
 254.001 807.001 l 1
 261.001 806.001 264.001 805.001 267.001 802.001 c 0
 268.465 799.805 269.393 798.145 269.393 794.666 c 0
 269.393 788.489 265.869 777.738 264 774 c 0
 262 769 258 761 255 756 c 0
 252 750 248 742 247 737 c 0
 246 732 244 722 243 715 c 0
 242 708 240 699 238 695 c 0
 236 691 235 686 235 684 c 0
 235 681 233 676 231 674 c 0
 229 671 227 665 227 661 c 1
 226 657 224 652 222 650 c 0
 219 648 219 645 219 633 c 0
 219 624 218 618 216 616 c 0
 215 615 213 608 212 599 c 0
 212 589 210 581 208 577 c 0
 205 571 204.062 568.004 205 553 c 0
 206 537 206 536 202 532 c 0
 198 528 198 527 199 520 c 0
 200 514 199 513 192 508 c 0
 186 503 185 501 185 495 c 0
 185 492 187 487 188 485 c 1
 191 482 191 481 188 475 c 0
 185 470 185 464 185 415 c 0
 185 376 185 359 187 356 c 1
 188 353 190 346 190 342 c 2
 192 334 192 333 188 329 c 0
 184 324 184 323 184 297 c 0
 185 272 185 269 189 261 c 1
 191 255 193 248 193 243 c 0
 193 238 195 232 197 229 c 0
 199 225 200 222 199 214 c 0
 198 205 198 203 203 194 c 0
 207 188 208 184 206 183 c 1
 206 181 205 175 205 169 c 0
 205 160 206 157 208 153 c 0
 211 149 213 143 214 130 c 2
 216 121 218 110 219 107 c 1
 221 104 222 99 222 95 c 0
 222 92 224 86 226 83 c 0
 228 80 229 76 229 75 c 0
 229 73 231 69 232 68 c 1
 233 66 235 62 235 59 c 0
 235 56 236 51 238 47 c 0
 240 43 242 37 242 34 c 1
 243 30 244 24 245 21 c 0
 247 16 248 11 247 2 c 0
 245 -9 245 -10 249 -14 c 0
 252 -17 254 -20 254 -24 c 1
 253 -27 255 -31 256 -33 c 1
 258 -35 260 -40 260 -43 c 1
 261 -47 263 -53 265 -57 c 0
 267 -60 268 -67 268 -73 c 0
 268 -79 268 -86 267 -88 c 0
 266 -90 264 -92 262 -93 c 0
 260 -94 251 -94 243 -94 c 0
 231 -93 227 -92 225 -89 c 1
 223 -88 220 -86 218 -86 c 0
 216 -86 213 -85 212 -84 c 0
 211 -83 209 -76 206 -69 c 0
 204 -63 201 -55 200 -51 c 1
 198 -48 195 -44 194 -42 c 2
 192 -40 191 -37 191 -34 c 0
 191 -32 189 -27 187 -23 c 0
 186 -20 181 -10 178 -2 c 0
 175 6 172 15 171 18 c 0
 170 21 167 28 164 34 c 0
 161 40 156 49 154 53 c 0
 151 58 149 65 149 67 c 1
 148 70 147 76 145 80 c 0
 143 85 141 91 141 94 c 0
 141 97 140 102 137 106 c 0
 135 110 133 116 133 119 c 0
 133 123 131 129 130 134 c 1
 128 139 126 147 124 151 c 0
 122 155 120 162 120 166 c 0
 119 171 118 175 116 177 c 0
 114 179 113 184 113 193 c 0
 113 203 112 208 110 213 c 1
 107 218 106 223 107 233 c 0
 107 244 106 247 103 250 c 0
 100 254 99 256 99 272 c 0
 98 286 97 292 95 296 c 0
 92 300 92 305 91 326 c 0
 91 343 90 354 89 356 c 0
 88 359 87 363 88 366 c 2
 88 369 91 373 93 375 c 0
 96 377 98 381 98 384 c 0
 98 387 98 399 99 412 c 2
 99 457 l 2
 99 477 100 480 105 491 c 0
 107 497 110 504 110 505 c 0
 110 507 112 512 115 517 c 0
 118 524 119 529 120 539 c 0
 120 547 122 553 123 555 c 1
 125 557 126 562 127 566 c 0
 128 571 130 575 131 577 c 1
 132 578 133 582 133 586 c 0
 133 592 134 597 138 603 c 0
 142 610 143 614 142 616 c 1
 142 619 142 622 144 624 c 1
 145 627 147 630 147 631 c 0
 147 633 149 639 151 644 c 0
 154 650 155 656 154 658 c 1
 154 661 154 663 156 665 c 1
 157 667 161 673 163 678 c 0
 166 684 168 691 168 695 c 0
 168 700 169 704 171 707 c 0
 174 710 175 714 175 719 c 0
 175 723 176 728 177 729 c 1
 179 730 182 735 184 740 c 2
 187 745 189 752 191 756 c 2
 192 760 194 765 195 766 c 1
 197 767 198 770 198 772 c 0
 198 774 202 781 210 789 c 0
 220 798 225 803 230 804 c 0
 234 805 239 806 241 807 c 1
EndSplineSet
Validated: 33
EndChar

StartChar: uni0029
Encoding: 41 41 10
Width: 300
GlyphClass: 2
Flags: W
LayerCount: 2
Fore
SplineSet
65 812 m 1
 68 812 71 812 72 813 c 1
 74 813 80 811 86 808 c 0
 93 805 99 800 102 797 c 2
 106 791 l 1
 106 790 108 787 110 783 c 1
 113 780 114 776 114 775 c 1
 113 774 115 770 117 767 c 0
 120 764 121 760 121 754 c 0
 121 749 123 743 125 740 c 0
 127 736 128 731 128 729 c 0
 128 727 130 721 133 717 c 1
 135 712 137 706 138 703 c 1
 138 700 141 693 144 689 c 0
 147 684 149 678 149 675 c 0
 149 673 151 667 153 664 c 0
 155 660 157 654 157 652 c 0
 157 649 158 645 159 643 c 1
 161 642 162 638 162 636 c 0
 162 634 163 631 165 629 c 1
 167 628 169 622 170 616 c 2
 172 610 172 604 171 602 c 1
 171 600 172 597 175 593 c 1
 179 589 179 586 179 582 c 1
 178 578 178 575 180 573 c 0
 182 571 183 568 183 565 c 0
 183 563 185 557 188 552 c 0
 193 545 193 543 192 535 c 0
 191 529 192 526 194 523 c 0
 195 522 197 515 198 509 c 1
 198 502 200 497 202 494 c 0
 203 493 205 488 205 485 c 0
 205 482 207 477 209 474 c 0
 211 470 212 466 211 450 c 0
 211 433 211 430 215 424 c 0
 218 418 218 417 216 414 c 0
 215 412 214 406 214 400 c 2
 213 394 214 389 215 386 c 1
 217 383 218 375 218 368 c 2
 218 347 l 2
 218 342 217 337 215 334 c 0
 212 330 211 326 211 321 c 2
 211 299 l 2
 211 290 210 279 208 270 c 0
 206 263 204 252 204 247 c 0
 204 241 203 237 201 235 c 0
 198 232 198 228 198 218 c 0
 197 209 196 202 195 199 c 0
 193 195 192 191 192 188 c 0
 192 185 190 180 188 176 c 0
 186 171 185 168 187 165 c 1
 187 163 187 160 186 158 c 1
 186 156 185 152 185 150 c 0
 185 147 183 139 181 132 c 0
 179 125 175 116 172 113 c 0
 168 107 167 105 168 100 c 0
 169 94 168 92 164 87 c 0
 161 84 158 79 157 76 c 1
 155 73 155 68 156 61 c 0
 157 52 156 50 153 46 c 0
 151 43 149 39 149 37 c 0
 149 35 148 31 146 27 c 0
 144 24 142 18 142 16 c 0
 142 12 141 10 139 10 c 1
 137 9 135 7 134 3 c 1
 134 0 132 -3 131 -4 c 1
 129 -5 128 -8 128 -10 c 0
 128 -12 126 -16 124 -18 c 0
 120 -21 120 -24 120 -29 c 0
 120 -33 119 -38 117 -41 c 0
 116 -43 114 -47 114 -50 c 1
 113 -53 110 -56 108 -57 c 0
 105 -59 98 -65 93 -71 c 0
 83 -83 82 -83 74 -83 c 0
 66 -83 65 -82 58 -73 c 0
 53 -68 49 -62 49 -60 c 0
 49 -57 51 -54 53 -52 c 0
 55 -50 56 -47 56 -43 c 0
 56 -39 58 -34 60 -32 c 0
 62 -29 64 -25 66 -21 c 0
 67 -18 70 -13 72 -9 c 0
 74 -5 76 0 76 5 c 0
 76 10 77 16 78 19 c 0
 79 21 83 28 85 33 c 0
 87 39 90 46 91 49 c 1
 91 52 91 60 90 66 c 0
 88 77 88 78 92 81 c 0
 96 84 97 87 97 94 c 1
 98 100 99 107 101 111 c 0
 103 115 104 120 104 124 c 0
 104 127 106 134 108 139 c 0
 111 145 112 150 111 155 c 0
 111 159 111 163 113 165 c 1
 114 167 116 172 117 175 c 0
 118 179 118 187 118 194 c 0
 118 204 119 208 122 213 c 0
 125 220 126 222 126 265 c 0
 126 303 127 311 130 318 c 0
 132 324 133 329 132 346 c 2
 132 372 l 2
 132 374 132 380 133 385 c 0
 134 392 134 394 130 400 c 0
 125 406 125 407 126 423 c 0
 126 433 126 443 125 445 c 0
 124 448 125 454 126 459 c 0
 127 467 127 468 123 476 c 1
 118 483 118 486 118 500 c 0
 118 512 117 518 115 522 c 0
 113 525 111 534 111 545 c 0
 110 555 108 570 107 578 c 0
 105 587 103 597 101 601 c 1
 100 605 98 611 98 615 c 1
 97 619 96 623 94 625 c 0
 92 628 91 632 90 640 c 0
 90 648 89 656 86 664 c 0
 83 671 81 677 81 679 c 0
 81 681 80 683 78 685 c 0
 76 687 75 689 76 698 c 0
 77 708 77 709 73 713 c 1
 69 715 67 719 67 724 c 1
 66 728 65 735 64 740 c 0
 63 745 61 752 58 756 c 0
 56 760 55 766 55 770 c 0
 55 773 53 777 51 779 c 0
 49 781 48 784 48 789 c 0
 48 792 49 798 50 800 c 0
 52 803 55 807 57 808 c 2
 59 810 63 811 65 812 c 1
EndSplineSet
Validated: 33
EndChar

StartChar: uni002A
Encoding: 42 42 11
Width: 586
GlyphClass: 2
Flags: W
LayerCount: 2
Fore
SplineSet
356 721 m 0
 358 722 361 723 363 723 c 0
 365 723 369 722 371 720 c 0
 374 718 378 716 381 716 c 0
 384 716 387 715 388 714 c 0
 389 713 390 710 390 709 c 1
 391 707 394 704 397 702 c 0
 400 700 404 697 405 695 c 0
 406 693 407 688 406 684 c 2
 406 680 403 673 399 668 c 0
 396 663 391 657 387 654 c 0
 384 652 380 646 379 643 c 0
 377 639 372 634 368 630 c 1
 364 627 357 619 353 613 c 0
 349 606 345 597 344 592 c 0
 343 587 343 581 343 579 c 1
 344 576 346 573 348 572 c 0
 350 571 361 570 372 570 c 0
 384 570 395 569 397 568 c 1
 401 567 403 568 407 572 c 1
 413 576 414 576 438 577 c 0
 462 578 464 577 468 574 c 0
 471 572 474 568 475 566 c 0
 476 563 477 555 477 544 c 0
 477 529 477 527 472 521 c 0
 469 517 465 514 462 514 c 1
 459 513 454 512 452 512 c 2
 448 511 443 512 435 515 c 0
 425 519 422 520 417 518 c 0
 414 517 410 516 409 517 c 0
 408 518 408 519 408 521 c 0
 408 522 406 524 405 525 c 1
 403 526 392 526 380 526 c 0
 367 525 355 524 352 524 c 0
 347 523 345 521 344 517 c 0
 343 514 343 508 344 504 c 2
 344 500 346 494 348 491 c 0
 350 489 352 484 353 481 c 0
 354 478 358 474 363 471 c 1
 369 466 370 465 370 458 c 0
 370 453 371 449 372 448 c 0
 373 447 377 444 381 442 c 0
 387 439 390 436 391 433 c 0
 392 430 395 425 398 421 c 0
 401 417 404 413 404 412 c 0
 404 411 403 408 401 406 c 1
 400 404 399 401 400 400 c 1
 400 399 400 397 399 395 c 0
 398 393 395 390 392 389 c 0
 390 388 385 387 382 387 c 0
 379 387 375 386 373 385 c 0
 371 384 367 383 365 383 c 0
 362 383 359 385 355 391 c 0
 352 395 350 399 350 399 c 1
 350 400 348 403 345 407 c 0
 343 410 341 415 341 416 c 0
 341 418 340 422 338 425 c 1
 337 428 335 435 333 440 c 0
 331 444 328 451 325 454 c 0
 321 459 320 461 321 465 c 1
 321 472 l 1
 320 474 316 479 312 482 c 0
 306 486 301 488 295 489 c 0
 289 490 285 490 282 488 c 0
 280 486 276 480 273 474 c 1
 271 468 267 459 264 454 c 1
 262 449 260 444 260 442 c 0
 260 441 258 437 256 433 c 0
 254 429 250 421 248 415 c 0
 246 409 243 401 240 397 c 0
 237 393 232 388 228 385 c 0
 225 382 221 379 220 379 c 0
 219 379 217 381 215 383 c 1
 214 385 210 386 207 386 c 0
 204 386 200 388 196 392 c 1
 192 395 188 399 187 400 c 1
 186 402 184 405 184 407 c 1
 183 410 183 413 182 415 c 1
 181 416 185 422 195 433 c 0
 203 443 209 451 210 455 c 0
 211 458 214 462 219 465 c 1
 225 470 227 472 229 478 c 0
 230 483 232 487 233 488 c 0
 235 490 238 491 240 493 c 1
 243 494 243 496 243 508 c 0
 243 515 243 522 242 523 c 0
 241 524 234 527 227 529 c 0
 216 532 214 532 210 530 c 0
 208 529 199 527 187 526 c 0
 177 526 165 525 162 524 c 2
 158 524 154 523 152 522 c 0
 150 521 145 520 141 520 c 0
 137 520 131 521 128 522 c 0
 123 524 121 527 119 533 c 0
 117 538 114 543 112 545 c 0
 110.536 547.196 109.608 549.393 109.608 554.728 c 0
 109.608 556.68 109.732 559.053 110 562 c 0
 111 569 112 576 114 578 c 0
 116 580 120 582 123 583 c 1
 126 583 140 584 154 584 c 0
 175 584 179 583 185 581 c 1
 190 578 193 577 212 578 c 0
 225 579 233 580 234 582 c 1
 235 583 235 588 235 592 c 0
 235 597 234 605 232 610 c 0
 230 616 227 622 225 624 c 0
 223 626 221 630 219 632 c 1
 218 635 215 639 214 643 c 1
 212 646 208 651 206 654 c 0
 204 658 202 662 201 665 c 0
 200 668 198 672 196 675 c 0
 194 677 190 682 187 686 c 0
 184 689 181 693 181 694 c 0
 181 695 185 699 189 703 c 0
 194 708 200 712 206 714 c 0
 211 715 219 716 222 716 c 0
 227 716 229 715 230 712 c 0
 231 710 233 706 236 702 c 0
 239 699 241 695 241 694 c 0
 241 693 244 689 247 685 c 0
 250 681 253 676 253 673 c 0
 253 671 255 667 257 665 c 0
 259 662 262 657 263 652 c 1
 265 647 267 642 269 640 c 0
 271 638 273 634 275 630 c 0
 277 626 280 622 282 621 c 0
 285 619 290 618 298 618 c 0
 309 619 310 619 311 623 c 1
 311 626 314 630 318 634 c 0
 322 638 325 643 326 646 c 1
 326 649 328 654 330 655 c 1
 331 657 333 661 333 665 c 0
 333 669 334 673 334 674 c 0
 334 675 336 678 338 681 c 0
 341 684 343 688 343 692 c 0
 343 696 344 700 345 702 c 1
 347 704 348 706 348 708 c 0
 348 710 349 713 350 715 c 0
 351 718 354 720 356 721 c 0
EndSplineSet
Validated: 33
EndChar

StartChar: uni002B
Encoding: 43 43 12
Width: 690
GlyphClass: 2
Flags: W
LayerCount: 2
Fore
SplineSet
341 570 m 1
 353.999 570.002 l 2
 356.124 570.238 357.858 570.362 359.308 570.362 c 0
 363.999 570.362 365.707 569.058 367.999 566.002 c 2
 370.999 564.002 373.999 560.002 375.999 557.002 c 0
 378.999 554.002 380.999 548.002 381.999 543.002 c 0
 382.999 538.002 382.999 535.002 381.999 532.002 c 0
 380.999 530.002 379.999 526.002 379.999 523.002 c 0
 379.999 519.002 380.999 515.002 381.999 512.002 c 0
 382.999 509.002 381.999 506.002 378.999 500.002 c 0
 374.999 492.002 374.999 489.002 373.999 469.002 c 0
 373.999 446.002 373.999 446.002 377.999 443.002 c 1
 381.999 439.002 382.999 439.002 379.999 431.002 c 1
 378.999 426.002 376.999 417.002 375.999 411.002 c 0
 374.999 400.002 374.999 398.002 376.999 394.002 c 1
 378.999 392.002 379.999 389.002 379.999 387.002 c 0
 379.999 385.002 378.999 382.002 376.999 380.002 c 0
 373.999 376.002 373.999 375.002 374.999 369.002 c 0
 375.999 365.002 375.999 362.002 374.999 358.002 c 1
 372.999 354.002 372.999 352.002 375.999 345.002 c 0
 377.999 340.002 380.999 334.002 380.999 331.002 c 1
 382.999 327.002 383.999 325.002 387.999 325.002 c 1
 390.999 324.002 395.999 322.002 398.999 320.002 c 0
 400.999 318.002 403.999 316.002 404.999 316.002 c 0
 405.999 316.002 408.999 318.002 410.999 319.002 c 0
 414.999 322.002 417.999 323.002 431.999 323.002 c 0
 441.999 323.002 449.999 324.002 451.999 325.002 c 0
 454.999 327.002 457.999 327.002 465.999 325.002 c 0
 470.999 324.002 477.999 321.002 479.999 320.002 c 0
 482.999 318.002 489.999 317.002 500.999 316.002 c 0
 515.999 316.002 516.999 316.002 518.999 320.002 c 0
 521.999 324.002 522.999 324.002 557.999 324.002 c 0
 580.999 323.002 593.999 323.002 597.999 321.002 c 0
 600.999 320.002 603.999 317.002 604.999 314.002 c 2
 606.171 312.244 606.656 309.114 606.656 304.812 c 0
 606.656 301.771 606.414 298.144 606 294.001 c 0
 605 285.001 604 277.001 604 274.001 c 1
 603 272.001 601 270.001 599 269.001 c 0
 596 268.001 593 267.001 592 267.001 c 0
 590 267.001 587 265.001 584 263.001 c 0
 578 259.001 577 259.001 535 259.001 c 0
 504 259.001 490 258.001 485 257.001 c 1
 480 255.001 478 255.001 472 257.001 c 0
 467 258.001 455 259.001 428 259.001 c 0
 407 259.001 388 258.001 386 257.001 c 0
 383 256.001 382 255.001 382 249.001 c 0
 382 245.001 381 241.001 380 239.001 c 0
 379 236.001 379 233.001 380 230.001 c 0
 380.5 229.001 380.75 224.001 380.75 216.626 c 0
 380.75 209.251 380.5 199.501 380 189.001 c 2
 380 146.001 l 1
 381 144.001 381 127.001 381 110.001 c 0
 380 94.001 379 78.001 378 77.001 c 1
 377 75.001 376 72.001 376 70.001 c 0
 376 69.001 375 65.001 374 61.001 c 1
 374 58.001 374 53.001 375 50.001 c 1
 375 47.001 376 41.001 375 37.001 c 1
 375 31.001 374 29.001 370 28.001 c 0
 367 27.001 363 25.001 360 23.001 c 1
 357 22.001 348 21.001 340 21.001 c 0
 336.75 20.751 334.188 20.626 332.109 20.626 c 0
 325.875 20.626 324 21.751 321 24.001 c 1
 319 27.001 316 32.001 315 36.001 c 0
 314 40.001 312 46.001 311 49.001 c 0
 310 52.001 309 62.001 309 70.001 c 0
 308 78.001 308 87.001 308 89.001 c 0
 308 92.001 309 125.001 309 164.001 c 0
 309.268 179.81 309.392 192.244 309.392 202.074 c 0
 309.392 228.93 308.464 236.341 307 240.001 c 0
 306 244.001 302 249.001 300 251.001 c 0
 297 254.001 293 257.001 290 258.001 c 0
 287 259.001 283 262.001 281 263.001 c 0
 278 265.001 272 266.001 253 266.001 c 0
 239 266.001 222 265.001 213 265.001 c 2
 180 265.001 l 2
 161 266.001 161 266.001 156 261.001 c 0
 150 256.001 150 256.001 140 258.001 c 0
 134 259.001 127 262.001 125 264.001 c 1
 121 266.001 117 267.001 111 266.001 c 0
 104 265.001 103 265.001 95 273.001 c 0
 89 279.001 87 282.001 85 290.001 c 0
 84.1719 293.729 83.6865 295.912 83.6865 297.404 c 0
 83.6865 299.515 84.6572 300.242 87 302 c 0
 89 304 91 308 92 310 c 1
 93 315 94 315 103 316 c 0
 108 317 116 319 119 320 c 0
 124 322 135 323 155 324 c 0
 170 324 184 325 186 326 c 1
 187 326 191 325 195 323 c 0
 199 321 206 319 211 318 c 1
 218 318 223 318 225 319 c 0
 228 321 230 321 234 318 c 0
 237 316 241 316 262 316 c 0
 283 317 286 318 290 321 c 0
 292 323 295 325 296 325 c 0
 297 325 301 327 304 329 c 0
 308 332 310 335 310 338 c 0
 310 340 311 343 313 345 c 0
 316 348 317 351 317 428 c 2
 317 514 l 2
 317 516 316 527 316 536 c 0
 315 548 316 555 317 558 c 0
 319 562 321 564 328 566 c 0
 333 568 339 569 341 570 c 1
EndSplineSet
Validated: 33
EndChar

StartChar: uni002C
Encoding: 44 44 13
Width: 314
GlyphClass: 2
Flags: W
LayerCount: 2
Fore
SplineSet
164 115 m 1
 167 116 170 117.001 171 117.001 c 2
 171 117.001 175 116.001 180 115.001 c 0
 184 114.001 190 111.001 193 109.001 c 0
 196 107.001 200 105.001 202 105.001 c 0
 203 105.001 205 104.001 205 103.001 c 0
 205 102.001 206 96.001 207 90.001 c 0
 207.274 87.2578 207.474 85.2676 207.474 83.6992 c 0
 207.474 79.5498 206.08 78.3555 201 74.001 c 0
 196 69.001 194 66.001 193 59.001 c 0
 192 54.001 190 50.001 188 47.001 c 1
 185 45.001 183 42.001 183 41.001 c 0
 183 39.001 184 37.001 185 35.001 c 0
 187 32.001 187 31.001 184 28.001 c 0
 182 25.001 178 17.001 175 9.00098 c 0
 172 2.00098 169 -6.99902 168 -10.999 c 1
 166 -14.999 164 -18.999 161 -19.999 c 1
 158 -22.999 157 -24.999 157 -31.999 c 0
 157 -37.999 156 -40.999 153 -42.999 c 0
 151 -44.999 150 -48.999 150 -52.999 c 0
 150 -56.999 148 -60.999 147 -63.999 c 1
 145 -65.999 143 -68.999 142 -70.999 c 1
 142 -72.999 138.96 -80.9844 136 -88.999 c 0
 131.945 -99.9785 129 -104.999 122 -110.999 c 0
 118 -114.999 112 -119.999 109 -122.999 c 0
 106.333 -125.666 105 -126.555 101.741 -126.555 c 0
 100.111 -126.555 98 -126.332 95 -125.999 c 0
 90 -125.999 81 -122.999 77 -120.999 c 0
 71.5352 -118.267 66.6084 -115.65 66.6084 -107.627 c 0
 66.6084 -103.784 67.5361 -98.124 69 -93 c 0
 70 -87 72 -77 72 -70 c 1
 73 -64 74 -58 76 -56 c 1
 77 -54 79 -49 79 -44 c 0
 79 -39 81 -33 83 -31 c 2
 84 -28 87 -24 89 -23 c 0
 93 -20 93 -18 93 12 c 0
 93 40 93 45 96 49 c 0
 98 51 99 56 99 60 c 0
 99 64 101 68 105 74 c 0
 108 78 112 84 114 87 c 0
 116 90 120 95 124 99 c 1
 130 103 134 105 142 106 c 0
 148 107 154 108 155 110 c 1
 157 111 161 113 164 115 c 1
EndSplineSet
Validated: 1
EndChar

StartChar: uni002D
Encoding: 45 45 14
Width: 211
GlyphClass: 2
Flags: W
LayerCount: 2
Fore
SplineSet
169 307 m 0
 170.25 307.25 171.376 307.373 172.407 307.373 c 0
 175.501 307.373 177.751 306.248 180.001 303.998 c 0
 183.001 301.998 186.001 299.998 188.001 299.998 c 0
 190.001 299.998 194.001 295.998 196.001 290.998 c 2
 200.001 284.998 201.001 280.998 201.001 271.998 c 0
 201.001 261.998 200.001 257.998 197.001 250.998 c 0
 195.001 245.998 190.001 240.998 186.001 238.998 c 0
 182.001 235.998 176.001 233.998 171.001 233.998 c 0
 169.829 233.705 168.571 233.584 167.329 233.584 c 0
 164.329 233.584 161.415 234.291 160.001 234.998 c 0
 158.001 235.998 149.001 235.998 138.001 234.998 c 0
 132.997 234.543 123.751 234.248 112.876 234.248 c 0
 102.001 234.248 89.501 234.498 78.001 234.998 c 0
 70.667 235.317 63.334 235.443 56.7041 235.443 c 0
 43.4453 235.443 33.001 234.999 31.001 234.999 c 1
 29.0908 234.235 27.4727 233.909 26.0352 233.909 c 0
 23.709 233.909 21.8545 234.764 20 236 c 0
 18 237 14 241 13 244 c 0
 11 249 10 256 10 270 c 0
 10 284 11 290 12 292 c 0
 14 295 18 297 23 298 c 0
 25.8281 298.707 40.1562 299.414 61.0352 299.414 c 0
 69.6836 299.414 79.4561 299.293 90 299 c 0
 150 299 150 299 156 303 c 0
 160 305 166 307 169 307 c 0
EndSplineSet
Validated: 33
EndChar

StartChar: uni002E
Encoding: 46 46 15
Width: 400
GlyphClass: 2
Flags: W
LayerCount: 2
Fore
SplineSet
195 134 m 1
 209 133.999 l 2
 213 133.999 218 131.999 220 129.999 c 0
 222 127.999 226 126.999 233 126.999 c 0
 239 126.999 244 125.999 246 125.999 c 1
 247 124.999 250 118.999 253 112.999 c 0
 258 102.999 258 101.999 258 68.999 c 0
 258 40.999 258 34.999 255 29.999 c 0
 253 25.999 250 22.999 247 21.999 c 0
 244 20.999 237 17.999 231 15.999 c 0
 225.728 13.6562 223.198 12.6855 219.999 12.6855 c 0
 217.737 12.6855 215.142 13.1709 210.999 13.999 c 0
 204.999 14.999 195.999 15.999 190.999 14.999 c 1
 184.999 14.999 179.999 14.999 175.999 16.999 c 0
 173.999 17.999 168.999 18.999 165.999 19.999 c 0
 162.999 20.999 158.999 22.999 155.999 25.999 c 0
 153.999 28.999 150.999 33.999 149.999 37.999 c 0
 148.999 41.999 146.999 45.999 144.999 47.999 c 0
 143.348 50.2012 142.605 51.4941 142.605 52.8789 c 0
 142.605 54.0098 143.101 55.2012 144 56.999 c 1
 145 60.999 145 67.999 144 81.999 c 0
 143.333 88.666 143 93.2217 143 96.5918 c 0
 143 103.333 144.333 105.333 147 110 c 0
 149 115 154 121 156 123 c 0
 160 127 162 128 170 128 c 0
 175 128 181 129 183 130 c 0
 185 131 191 133 195 134 c 1
EndSplineSet
Validated: 33
EndChar

StartChar: uni002F
Encoding: 47 47 16
Width: 274
GlyphClass: 2
Flags: W
LayerCount: 2
Fore
SplineSet
275 787 m 1
 276 789 277 790.001 278 790.001 c 0
 279 790.001 282 789.001 285 788.001 c 0
 287 787.001 291 784.001 293 782.001 c 0
 297 779.001 297 777.001 297 767.001 c 0
 297 758.001 297 756.001 294 753.001 c 0
 291 751.001 290 747.001 289 741.001 c 0
 288 735.001 286 729.001 285 727.001 c 0
 283 724.001 282 720.001 282 717.001 c 0
 282 714.001 279 710.001 275 706.001 c 1
 272 702.001 269 698.001 269 697.001 c 0
 269 695.001 268 691.001 266 688.001 c 0
 264 684.001 262 678.001 262 675.001 c 0
 262 671.001 264 666.001 266 664.001 c 1
 269 659.001 269 659.001 266 656.001 c 0
 264 654.001 262 647.001 260 642.001 c 0
 258 636.001 258 631.001 258 629.001 c 1
 259 628.001 256 624.001 253 621.001 c 0
 249 617.001 246 613.001 246 612.001 c 0
 246 611.001 244 607.001 242 603.001 c 0
 239 598.001 238 596.001 239 593.001 c 0
 240 591.001 241 589.001 241 587.001 c 0
 241 585.001 239 582.001 237 578.001 c 1
 233 574.001 232 571.001 232 561.001 c 0
 232 552.001 232 547.001 229 543.001 c 0
 226 538.001 225 535.001 226 528.001 c 0
 227 521.001 226 518.001 224 515.001 c 0
 222 512.001 220 509.001 220 508.001 c 0
 220 507.001 218 504.001 216 502.001 c 0
 213 500.001 211 496.001 211 494.001 c 0
 211 493.001 210 489.001 208 485.001 c 0
 207 482.001 205 477.001 205 473.001 c 0
 205 468.001 203 463.001 201 461.001 c 0
 198 457.001 198 454.001 198 448.001 c 1
 199 441.001 199 439.001 197 437.001 c 1
 195 436.001 194 434.001 194 433.001 c 0
 194 432.001 192 429.001 190 426.001 c 0
 187 423.001 185 418.001 184 414.001 c 0
 183 409.001 181 404.001 180 402.001 c 0
 178 399.001 175 393.001 173 388.001 c 0
 171 382.001 170 377.001 170 373.001 c 0
 171 367.001 170 365.001 165 358.001 c 0
 162 353.001 159 349.001 159 348.001 c 1
 159 348.001 157 344.001 154 341.001 c 1
 151 335.001 150 332.001 150 322.001 c 0
 150 313.001 149 308.001 147 306.001 c 1
 146 303.001 143 298.001 142 294.001 c 0
 141 290.001 139 284.001 137 280.001 c 0
 136 277.001 133 272.001 131 269.001 c 0
 129 266.001 127 263.001 127 261.001 c 0
 127 259.001 125 254.001 123 250.001 c 0
 121 245.001 120 241.001 121 237.001 c 1
 121 233.001 121 230.001 118 227.001 c 0
 116 225.001 115 220.001 115 216.001 c 0
 115 211.001 114 208.001 110 205.001 c 0
 107 202.001 106 199.001 106 194.001 c 0
 106 191.001 105 187.001 104 186.001 c 1
 102 185.001 101 180.001 100 176.001 c 0
 99 172.001 97 165.001 95 161.001 c 1
 92 158.001 90 154.001 90 153.001 c 0
 90 151.001 89 147.001 87 144.001 c 0
 85 140.001 82 136.001 81 135.001 c 1
 79 134.001 78 131.001 78 129.001 c 0
 78 127.001 76 123.001 75 120.001 c 1
 72 116.001 71 111.001 71 103.001 c 0
 71 94.001 70 90.001 68 86.001 c 0
 66 83.001 64 78.001 63 75.001 c 1
 63 72.001 59 63.001 56 56.001 c 0
 51 46.001 50 41.001 50 36.001 c 1
 51 32.001 50 28.001 48 24.001 c 0
 46 21.001 44 16.001 44 13.001 c 0
 44 9.00098 43 5.00098 41 3.00098 c 0
 39 1.00098 37 -1.99902 37 -3.99902 c 0
 37 -5.99902 34 -10.999 30 -15.999 c 0
 26 -19.999 23 -25.999 22 -29.999 c 1
 22 -33.999 20 -39.999 18 -43.999 c 0
 16 -47.999 12 -52.999 9 -55.999 c 1
 5 -57.999 0 -60.999 -4 -62.999 c 0
 -6.61914 -64.3086 -8.09473 -65.0469 -9.42578 -65.0469 c 0
 -11.1436 -65.0469 -12.6191 -63.8174 -16 -61 c 0
 -21 -58 -22 -56 -23 -48 c 0
 -23 -44 -23 -35 -22 -28 c 0
 -21 -18 -19 -14 -15 -9 c 0
 -12 -5 -9 0 -8 3 c 0
 -7 7 -6 12 -6 15 c 0
 -6 18 -5 23 -3 27 c 0
 0 32 1 35 0 40 c 0
 -1 46 0 49 3 55 c 0
 6 60 8 66 8 69 c 0
 8 73 11 82 15 91 c 0
 19 99 24 108 27 111 c 0
 30 114 33 120 34 124 c 0
 35 128 35 135 35 139 c 0
 34 146 34 148 37 151 c 0
 39 153 41 158 42 163 c 0
 43 167 45 173 45 176 c 1
 46 179 49 183 52 186 c 1
 57 189 57 190 56 199 c 0
 55 206 56 211 59 218 c 0
 61 222 62 228 62 229 c 0
 62 231 64 234 65 236 c 1
 67 237 69 241 70 244 c 0
 71 247 74 254 77 260 c 0
 82 269 83 273 84 284 c 0
 85 292 86 300 89 304 c 2
 90 307 94 311 95 313 c 1
 98 314 99 317 99 325 c 0
 99 331 100 338 102 342 c 0
 104 346 106 352 106 355 c 0
 106 358 108 363 109 366 c 1
 112 369 113 374 113 379 c 0
 113 384 114 388 115 389 c 1
 116 389 119 394 121 399 c 0
 123 405 125 410 124 413 c 0
 123 416 124 419 126 422 c 0
 128 425 131 431 134 435 c 0
 136 439 138 448 139 454 c 0
 140 463 141 465 147 471 c 0
 153 478 153 480 154 488 c 2
 154 501 l 1
 153 503 155 510 157 516 c 0
 159 522 163 530 166 533 c 0
 169 536 172 541 173 543 c 0
 174 546 174 551 174 555 c 0
 174 559 176 564 178 566 c 0
 180 569 182 574 183 578 c 0
 184 582 186 588 187 591 c 0
 188 595 191 600 192 602 c 1
 194 604 196 607 196 609 c 0
 196 611 198 614 201 618 c 0
 205 623 206 625 205 632 c 0
 204 640 204 641 209 647 c 0
 212 651 215 657 216 661 c 0
 217 665 218 671 218 674 c 0
 218 679 220 683 222 685 c 0
 224 687 225 691 225 695 c 0
 225 699 227 704 228 707 c 0
 229 710 231 716 232 720 c 1
 232 724 234 729 236 732 c 0
 237 734 239 741 239 751 c 0
 239 759 241 767 242 768 c 2
 243 770 245 771 247 771 c 0
 248 771 253 774 257 778 c 0
 261 782 266 785 268 785 c 0
 271 785 273 786 275 787 c 1
EndSplineSet
Validated: 33
EndChar

StartChar: uni0030
Encoding: 48 48 17
Width: 615
GlyphClass: 2
Flags: W
LayerCount: 2
Fore
SplineSet
307 687 m 0
 304 685 299 685 289 686 c 0
 279 687 274 687 268 685 c 0
 263 684 255 682 250 682 c 1
 244 681 240 680 238 678 c 0
 236 676 234 674 232 674 c 0
 230 674 227 673 225 672 c 0
 222 671 219 667 217 664 c 0
 214 660 209 655 206 652 c 1
 202 650 198 645 197 643 c 0
 196 640 192 635 188 631 c 1
 184 628 179 622 177 618 c 0
 175 615 171 611 170 609 c 1
 167 607 167 605 168 598 c 0
 169 590 168 587 165 581 c 1
 163 575 162 569 162 560 c 0
 161 550 161 547 157 542 c 0
 153 537 153 536 154 518 c 0
 155 500 155 498 151 493 c 0
 149 490 148 486 148 481 c 0
 148 476 147 472 144 469 c 0
 140 466 140 463 139 440 c 0
 139 418 139 414 142 406 c 0
 146 398 146 393 146 377 c 0
 146 363 147 357 148 353 c 1
 150 349 151 347 150 343 c 1
 149 341 148 333 148 326 c 1
 149 319 148 311 147 309 c 0
 146 307 145 301 145 298 c 0
 145 294 146 284 148 276 c 0
 149 268 151 260 153 258 c 0
 155 255 158 249 159 245 c 0
 161 240 162 235 161 226 c 0
 160 217 160 213 163 208 c 1
 164 205 167 199 168 195 c 0
 169 190 169 185 169 183 c 1
 168 181 170 174 174 163 c 0
 178 154 183 144 185 142 c 1
 189 134 l 2
 190 131 193 127 197 123 c 2
 200 119 207 113 212 109 c 0
 217 104 220 100 220 97 c 0
 220 94 222 92 226 89 c 0
 231 85 234 85 239 85 c 1
 245 86 246 86 249 82 c 1
 253 78 254 78 275 78 c 0
 286 78 299 79 303 80 c 0
 309 81 312 80 314 79 c 0
 316.196 77.5361 318.929 76.6084 325.335 76.6084 c 0
 327.68 76.6084 330.517 76.7324 334 77 c 0
 345 78 353 80 355 81 c 0
 358 83 365 85 371 86 c 0
 381 87 383 88 388 94 c 1
 392 97 398 104 402 108 c 1
 406 111 410 116 410 118 c 1
 411 120 416 127 422 133 c 1
 427 140 433 148 435 153 c 0
 437 157 440 164 441 168 c 0
 442 173 444 180 444 184 c 0
 445 190 446 193 450 197 c 0
 454 201 455 203 455 211 c 0
 455 217 456 222 458 225 c 0
 460 228 461 233 461 249 c 2
 461 274 l 1
 460 276 460 281 461 285 c 2
 461 289 463 296 465 299 c 0
 468 306 469 310 469 338 c 2
 469 375 l 2
 469 378 469 387 468 396 c 0
 468 405 466 414 465 418 c 1
 463 422 462 435 461 458 c 0
 461 477 460 495 460 498 c 0
 460 502 459 507 457 510 c 0
 454 515 453 518 454 537 c 0
 454 558 454 560 450 570 c 0
 447 576 443 582 441 584 c 0
 439 586 438 588 439 592 c 1
 439 595 437 601 430 615 c 0
 424 625 416 638 411 644 c 0
 405 651 398 656 392 659 c 0
 385 663 380 664 370 665 c 0
 359 665 356 666 353 669 c 0
 351 671 347 673 345 673 c 0
 342 673 336 675 330 679 c 0
 325 683 319 687 316 688 c 1
 313 688 309 688 307 687 c 0
315 752 m 0
 320 754 327 754.001 329 754.001 c 1
 332 753.001 340 753.001 347 752.001 c 2
 355 752.001 360 751.001 363 748.001 c 0
 366 746.001 369 745.001 372 746.001 c 1
 375 746.001 378 745.001 385 738.001 c 0
 394 730.001 394 730.001 408 731.001 c 0
 421.005 731.93 423 732.001 426 729.001 c 0
 428 727.001 433 724.001 436 723.001 c 0
 441 722.001 444 719.001 446 716.001 c 0
 448 713.001 455 707.001 462 701.001 c 0
 469 695.001 475 690.001 477 690.001 c 0
 478 690.001 482 687.001 485 684.001 c 0
 488 680.001 491 675.001 492 672.001 c 0
 493 669.001 495 666.001 497 666.001 c 1
 499 665.001 501 660.001 502 654.001 c 1
 504 648.001 506 642.001 508 640.001 c 0
 511 637.001 511 633.001 511 623.001 c 0
 511 610.001 511 610.001 524 598.001 c 0
 534 590.001 538 584.001 540 580.001 c 1
 541 575.001 541 570.001 540 562.001 c 0
 539 556.001 538 547.001 539 542.001 c 2
 539 537.001 540 531.001 541 528.001 c 0
 542 526.001 542 522.001 542 520.001 c 1
 541 517.001 542 514.001 544 513.001 c 1
 545 511.001 546 508.001 546 503.001 c 0
 546 499.001 548 492.001 551 487.001 c 0
 555 480.001 555 476.001 555 469.001 c 2
 555 455.001 l 1
 555 441.001 l 2
 555 434.001 556 430.001 559 426.001 c 0
 560.902 423.465 561.599 421.732 561.599 418.511 c 0
 561.599 416.65 561.366 414.294 561 411 c 0
 561 407.667 560.556 399 560.556 388.852 c 0
 560.556 383.777 560.667 378.333 561 373 c 2
 561 320 l 2
 561 298 560 295 557 289 c 0
 554 284 553 281 554 274 c 0
 555 270 555 263 555 259 c 0
 555 255 555 247 554 241 c 2
 554 233 552 229 550 226 c 1
 547 224 546 220 546 213 c 0
 546 207 545 200 544 196 c 0
 543 192 542 185 541 181 c 2
 541 177 538 172 536 169 c 0
 534 166 532 162 532 160 c 0
 532 158 532 156 531 155 c 1
 530 155 529 152 529 149 c 0
 529 146 527 141 526 137 c 1
 524 134 520 128 517 125 c 0
 514 122 510 118 507 116 c 0
 503 114 501 110 500 106 c 0
 499 103 496 97 493 92 c 0
 490 87 482 78 476 71 c 0
 470 65 466 59 466 58 c 0
 466 57 462 53 457 50 c 0
 452 46 445 41 442 38 c 0
 439 35 435 33 434 34 c 0
 433 35 430 33 427 31 c 0
 424 29 417 27 412 26 c 1
 407 26 399 23 394 20 c 0
 389 17 383 14 380 13 c 1
 377 11 375 11 371 12 c 0
 368 13 362 14 359 13 c 2
 356 13 350 10 346 8 c 1
 342.667 5.33301 340.667 4.44434 338.223 4.44434 c 0
 337 4.44434 335.667 4.66699 334 5 c 0
 330 6 319 7 310 6 c 0
 294 6 291 6 285 9 c 0
 280 12 275 13 259 13 c 0
 242 13 239 14 234 17 c 1
 232 19 227 21 224 21 c 0
 221 21 217 23 213 27 c 0
 209 31 204 34 202 34 c 0
 200 34 195 36 192 37 c 0
 188 38 184 40 182 41 c 0
 180 42 175 44 171 46 c 0
 168 48 162 51 160 53 c 0
 158 55 154 56 153 56 c 0
 151 56 147 58 144 61 c 0
 141 63 137 68 136 72 c 1
 134 76 130 82 127 85 c 0
 124 88 120 91 117 91 c 1
 115 92 114 93 114 95 c 0
 114 96 114 99 115 100 c 1
 116 102 115 104 113 107 c 1
 111 108 108 112 105 115 c 0
 102 119 99 124 98 131 c 1
 96 137 92 146 89 151 c 0
 86 156 82 164 82 168 c 1
 81 171 80 176 78 178 c 1
 77 180 76 185 75 189 c 1
 75 193 73 199 72 204 c 0
 71 208 70 215 69 218 c 0
 67 222 67 229 67 233 c 2
 67 247 l 1
 68 252 67 260 67 266 c 0
 67 272 65 279 63 282 c 0
 60 286 60 292 60 327 c 0
 60 348 59 371 58 377 c 0
 57 384 56 391 55 393 c 0
 54 396 53 409 53 422 c 0
 53 435 54 450 54 454 c 1
 55 458 57 463 58 467 c 0
 60 472 60 473 57 480 c 0
 53 489 53 489 57 497 c 0
 61 505 62 508 61 518 c 0
 61 527 61 531 65 538 c 0
 67 543 69 549 69 555 c 0
 69 560 70 566 71 568 c 1
 73 570 74 576 74 582 c 0
 74 592 75 595 78 599 c 0
 81 602 83 605 83 607 c 0
 83 608 84 612 86 617 c 0
 88 621 91 626 92 627 c 1
 94 628 96 633 98 639 c 0
 100 645 103 650 106 653 c 0
 109 655 111 658 111 659 c 0
 111 660 113 664 116 667 c 0
 119 671 121 674 121 675 c 0
 121 676 126 682 132 687 c 2
 153 707 l 2
 159 712 165 716 167 716 c 0
 168 716 172 718 174 721 c 0
 176 723 179 725 180 725 c 0
 182 725 185 727 187 730 c 0
 189 733 192 734 196 734 c 0
 199 734 202 735 203 736 c 1
 205 737 209 738 213 738 c 0
 218 738 223 739 228 742 c 0
 232 745 236 746 237 745 c 1
 238 745 242 746 247 748 c 0
 251 750 258 752 262 752 c 0
 267 753 279 752 289 752 c 1
 303 750 308 750 315 752 c 0
EndSplineSet
Validated: 33
EndChar

StartChar: uni0031
Encoding: 49 49 18
Width: 589
GlyphClass: 2
Flags: W
LayerCount: 2
Fore
SplineSet
315 724 m 0
 318.292 726.469 320.906 728.26 323.4 728.26 c 0
 323.938 728.26 324.469 728.177 325 728 c 0
 327 727 331 725 334 724 c 0
 336 723 339 720 339 719 c 1
 340 717 342 713 345 711 c 1
 349 706 349 706 350 669 c 0
 350 648 351 625 351 617 c 0
 350 606 351 601 353 598 c 0
 355 595 356 588 357 568 c 0
 357 543 357 541 353 534 c 0
 350 529 349 526 350 522 c 0
 351 519 352 514 354 511 c 1
 356 506 357 500 357 485 c 0
 357.293 482.071 357.414 478.542 357.414 474.764 c 0
 357.414 465.643 356.707 455.071 356 448 c 0
 355 438 353 427 351 425 c 1
 350 422 349 418 349 416 c 0
 349 415 351 411 353 409 c 0
 357 406 357 405 356 386 c 0
 356 373 355 363 352 357 c 1
 350 350 349 343 349 319 c 2
 349 287 l 1
 349 262 l 2
 350 246 350 240 353 236 c 0
 355 234 356 229 356 226 c 2
 356 121 l 2
 356.25 96.25 356.438 77.6875 356.438 63.6406 c 0
 356.438 21.5 354.75 20 348 14 c 0
 342.194 8.91992 340.075 7.52637 335.91 7.52637 c 0
 334.336 7.52637 332.469 7.72559 330 8 c 0
 326 8 317 9 311 10 c 0
 305 11 295 13 290 13 c 1
 284 14 278 15 277 16 c 0
 276 17 275 20 275 24 c 0
 275 27 274 32 273 34 c 0
 272 37 271 52 271 67 c 0
 270 83 270 100 270 105 c 0
 270 111 269 116 267 118 c 0
 265 120 264 125 264 132 c 2
 263 138 263 145 263 148 c 2
 263 261 l 2
 264 364 264 368 267 372 c 0
 270 375 270 379 271 400 c 0
 271 422 271 424 268 430 c 0
 264 436 264 438 264 503 c 0
 263 540 263 572 262 574 c 0
 261 577 262 582 263 586 c 0
 264 591 264 595 262 601 c 0
 261 606 258 609 256 611 c 1
 253 612 247 612 240 612 c 0
 231 611 228 610 225 607 c 0
 223 605 219 601 216 599 c 0
 213 597 209 595 208 595 c 0
 207 595 202 591 197 587 c 0
 192 582 186 577 183 576 c 0
 180 575 175 572 172 569 c 0
 169 567 164 563 161 561 c 0
 157 559 151 556 146 554 c 1
 141 553 135 551 133 551 c 0
 130 551 128 552 126 555 c 0
 123 559 123 562 123 581 c 0
 124 603 124 603 136 614 c 0
 142 620 149 625 152 626 c 1
 156 626 158 628 159 631 c 0
 160 634 163 637 165 638 c 0
 168 639 171 642 173 645 c 0
 175 649 180 653 187 656 c 0
 194 659 202 665 205 669 c 1
 209 673 213 676 215 676 c 0
 216 676 219 678 222 680 c 0
 225 682 230 683 234 684 c 1
 240 684 241 685 244 691 c 2
 252 703 l 1
 256 707 258 708 268 709 c 0
 276 710 282 712 285 715 c 0
 288 717 292 718 299 718 c 0
 307 718 310 719 315 724 c 0
EndSplineSet
Validated: 33
EndChar

StartChar: uni0032
Encoding: 50 50 19
Width: 591
GlyphClass: 2
Flags: W
LayerCount: 2
Fore
SplineSet
287 746 m 0
 291 747 297 747 301 747 c 1
 304 746 311 745 315 745 c 1
 319 744 326 742 331 740 c 0
 335 739 341 738 345 738 c 0
 350 738 355 739 358 741 c 0
 361 743 365 745 367 745 c 0
 369 745 377 742 383 738 c 1
 391 735 398 732 402 733 c 1
 405 733 409 732 411 730 c 0
 413 728 415 727 416 727 c 1
 416 727 421 723 427 717 c 0
 433 711 440 707 445 705 c 0
 450 703 455 700 458 696 c 0
 460 693 463 690 463 689 c 0
 463 688 466 685 469 682 c 0
 473 679 477 675 479 672 c 1
 480 669 482 663 483 659 c 1
 485 655 487 651 489 650 c 0
 491 649 494 643 497 638 c 1
 499 633 501 627 501 626 c 0
 501 625 503 622 505 620 c 0
 507 618 508 615 508 614 c 2
 508 599 l 2
 508 588 509 585 512 581 c 1
 516 578 516 576 516 553 c 0
 516 532 516 529 512 522 c 0
 510 519 509 513 508 510 c 1
 508 507 507 502 506 500 c 1
 504 498 503 491 502 485 c 0
 501 480 500 472 498 469 c 2
 497 465 493 458 490 451 c 0
 487 445 483 438 481 435 c 0
 479 433 476 427 474 423 c 0
 472 418 470 414 469 413 c 0
 467 411 466 409 466 407 c 0
 466 405 464 400 461 397 c 0
 458 393 454 387 452 383 c 0
 450 379 447 376 446 376 c 0
 445 376 442 373 439 369 c 2
 435 365 431 359 429 355 c 0
 426 350 420 341 413 335 c 2
 407 328 400 320 397 317 c 0
 394 314 391 310 391 308 c 1
 390 307 384 300 377 292 c 0
 368 282 364 279 360 279 c 0
 358 279 354 278 353 276 c 2
 351 275 349 271 349 268 c 1
 348 265 345 261 342 258 c 0
 339 254 332 246 325 239 c 0
 319 232 310 224 306 221 c 0
 302 218 297 216 296 216 c 0
 295 216 292 213 290 210 c 0
 287 207 282 203 279 202 c 0
 274 200 272 197 269 192 c 0
 267 188 263 181 260 177 c 0
 257 173 251 168 247 167 c 1
 243 165 239 162 239 161 c 0
 239 160 237 160 235 160 c 0
 232 160 227 156 220 149 c 0
 213 143 207 139 205 139 c 0
 203 139 198 134 191 127 c 1
 186 120 179 112 176 108 c 0
 172 102 171 100 172 96 c 1
 172 93 174 88 176 86 c 0
 178 83 182 81 185 80 c 2
 188 78 195 76 200 74 c 1
 205 73 212 72 215 72 c 1
 218 73 226 74 231 75 c 0
 237 76 247 79 253 81 c 0
 262 84 268 84 298 84 c 2
 337 84 l 2
 339 84 355 84 374 85 c 0
 392.003 85.9473 414 86 422 86 c 0
 433 86 439 85 444 82 c 0
 447 80 453 79 455 79 c 0
 458 79 462 81 465 83 c 0
 469 86 471 86 475 84 c 0
 478 83 482 82 485 81 c 0
 488 80 493 78 497 78 c 1
 503 76 504 75 507 69 c 0
 510 62 510 62 506 55 c 0
 503 50 502 45 502 36 c 0
 502 28 501 24 499 23 c 1
 498 22 495 21 493 21 c 0
 491 21 488 19 487 17 c 1
 484 14 482 13 457 13 c 0
 442 12 428 12 426 12 c 2
 370 12 l 1
 315 12 l 1
 253 12 l 1
 174 12 l 2
 163 12 142 13 127 13 c 0
 107 13 99 14 94 16 c 1
 91 18 86 20 82 22 c 0
 78 24 75 28 71 35 c 0
 66 46 66 46 69 50 c 0
 71 53 72 56 71 61 c 0
 70 65 69 69 67 71 c 0
 66 72 65 79 65 88 c 0
 65 101 66 104 69 107 c 0
 71 109 75 111 78 112 c 1
 81 112 85 115 87 117 c 0
 89 120 94 125 97 129 c 1
 102 134 106 137 109 137 c 0
 112 137 113 138 113 140 c 0
 113 142 114 144 115 145 c 0
 116 146 118 147 120 147 c 0
 121 147 125 149 129 152 c 0
 133 154 136 158 137 159 c 1
 137 161 146 171 157 182 c 0
 173 199 178 203 183 203 c 1
 188 204 190 206 193 213 c 0
 195 217 199 221 201 222 c 0
 203 223 208 226 211 229 c 0
 215 233 219 238 220 241 c 0
 221 243 225 247 228 249 c 1
 231 250 237 255 241 258 c 0
 246 262 251 268 254 271 c 1
 256 275 260 279 264 281 c 0
 268 283 271 285 271 286 c 0
 271 288 275 293 281 299 c 0
 286 305 292 311 294 313 c 1
 295 315 299 318 302 320 c 0
 304 322 308 327 310 331 c 0
 313 336 321 346 329 354 c 0
 337 362 343 370 343 372 c 0
 343 374 345 377 347 378 c 2
 349 380 353 381 355 381 c 0
 357 381 359 382 360 384 c 1
 360 386 364 392 367 397 c 0
 370 402 373 407 373 408 c 0
 373 410 376 415 381 419 c 0
 385 423 389 428 389 430 c 0
 389 432 390 435 391 436 c 0
 393 438 394 441 394 443 c 0
 394 444 396 448 397 450 c 1
 399 452 401 457 402 460 c 0
 403 464 405 469 406 473 c 2
 409 479 410 483 409 489 c 0
 408 495 408 498 412 503 c 1
 415 509 416 512 416 530 c 0
 415 541 415 555 415 561 c 1
 414 567 413 573 412 575 c 0
 409 579 409 580 411 583 c 0
 412 585 414 589 415 593 c 0
 416 597 416 602 416 604 c 1
 415 606 410 611 405 615 c 0
 400 619 396 623 396 624 c 0
 396 626 393 629 390 633 c 0
 387 636 382 642 379 646 c 2
 375 650 372 656 370 659 c 1
 369 662 366 666 365 666 c 1
 363 667 361 667 359 667 c 0
 357 667 353 669 350 671 c 0
 346 673 339 676 333 678 c 0
 326 680 321 681 314 680 c 0
 307 679 305 680 300 683 c 0
 297 685 291 688 286 689 c 0
 278 690 277 690 272 685 c 0
 266 680 265 680 260 682 c 0
 256 683 253 683 248 682 c 1
 245 680 240 680 238 680 c 0
 236 680 231 678 228 676 c 0
 224 674 220 673 218 673 c 0
 217 673 212 670 209 667 c 0
 205 664 201 662 200 662 c 0
 199 662 195 659 191 655 c 0
 186 650 179 642 173 636 c 1
 168 629 163 622 162 617 c 0
 161 614 159 607 157 604 c 0
 155 601 153 595 152 592 c 0
 151 589 151 583 151 579 c 0
 152 573 152 572 144 566 c 1
 140 562 134 558 130 556 c 1
 126 555 120 553 116 552 c 0
 113 551 107 549 103 549 c 0
 98 548 92 549 79 553 c 0
 65 558 61 560 58 565 c 1
 55 568 53 572 53 573 c 0
 53 574 54 576 55 577 c 0
 57 579 57 584 57 592 c 0
 57 603 57 606 63 618 c 0
 66 625 69 632 69 633 c 0
 69 635 71 637 74 638 c 1
 77 640 80 642 80 644 c 0
 80 645 82 651 85 656 c 0
 89 662 92 669 93 672 c 0
 95 676 98 679 102 681 c 0
 106 683 111 687 113 690 c 0
 115 693 121 698 126 701 c 0
 131 705 137 710 139 712 c 0
 142 715 145 716 148 716 c 0
 151 716 154 718 157 721 c 0
 159 723 163 725 165 725 c 0
 167 725 170 727 171 729 c 0
 172 731 175 732 180 732 c 0
 184 732 189 734 192 736 c 0
 196 739 197.995 738.9 216 738 c 0
 236 737 237 738 240 741 c 0
 243 744 246 745 261 745 c 0
 271 745 282 745 287 746 c 0
EndSplineSet
Validated: 33
EndChar

StartChar: uni0033
Encoding: 51 51 20
Width: 586
GlyphClass: 2
Flags: W
LayerCount: 2
Fore
SplineSet
235 757 m 0
 240 759 244.999 760 255.999 760 c 0
 267.999 759 272.999 758 278.999 755 c 0
 284.249 752.75 287.249 751.625 297.702 751.625 c 0
 301.187 751.625 305.499 751.75 310.999 752 c 0
 331.999 752 335.999 752 339.999 749 c 0
 342.999 747 347.999 746 356.999 746 c 0
 366.999 746 369.999 746 373.999 743 c 0
 375.999 741 381.999 739 386.999 738 c 0
 393.999 737 396.999 736 400.999 731 c 0
 403.999 728 407.999 725 408.999 725 c 0
 409.999 725 415.999 722 421.999 719 c 0
 426.999 716 435.999 710 439.999 707 c 0
 443.999 704 451.999 699 456.999 696 c 1
 461.999 694 465.999 690 466.999 689 c 1
 466.999 687 468.999 684 470.999 682 c 0
 472.999 680 474.999 677 474.999 675 c 0
 474.999 673 475.999 670 476.999 668 c 1
 478.999 666 479.999 663 479.999 661 c 0
 479.999 659 481.999 655 483.999 653 c 0
 486.999 651 488.999 648 488.999 646 c 0
 488.999 644 489.999 642 491.999 641 c 1
 493.999 639 495.999 636 495.999 633 c 0
 495.999 630 496.999 627 497.999 625 c 1
 499.999 624 500.999 617 501.999 609 c 0
 502.999 602 503.999 594 504.999 592 c 1
 506.999 590 507.999 584 507.999 576 c 0
 507.999 566 506.999 564 503.999 561 c 0
 501.999 559 500.999 556 500.999 553 c 0
 500.999 550 501.999 546 503.999 543 c 0
 506.999 538 506.999 537 503.999 531 c 0
 501.999 528 500.999 523 500.999 521 c 0
 500.999 519 498.999 513 495.999 508 c 2
 493.999 502 490.999 496 489.999 495 c 1
 489.999 493 487.999 489 487.999 486 c 1
 486.999 482 483.999 477 480.999 474 c 0
 477.999 472 473.999 469 471.999 469 c 1
 469.999 468 467.999 465 466.999 462 c 0
 464.999 457 462.999 455 454.999 450 c 0
 448.999 447 441.999 442 438.999 440 c 0
 435.999 437 426.999 431 419.999 428 c 0
 412.999 424 403.999 419 401.999 416 c 0
 397.999 412 396.999 409 395.999 400 c 0
 395.999 393 395.999 387 396.999 385 c 0
 397.999 383 400.999 381 401.999 381 c 0
 403.999 381 406.999 379 409.999 377 c 1
 411.999 374 414.999 372 416.999 372 c 0
 418.999 372 422.999 371 423.999 369 c 1
 425.999 368 428.999 367 430.999 367 c 0
 432.999 367 436.999 366 438.999 364 c 2
 441.999 363 444.999 360 444.999 359 c 1
 445.999 357 450.999 353 458.999 349 c 0
 467.999 345 475.999 339 483.999 331 c 0
 489.999 325 495.999 318 495.999 316 c 0
 495.999 315 497.999 309 501.999 304 c 0
 504.999 300 507.999 295 507.999 294 c 0
 507.999 293 509.999 290 511.999 287 c 0
 513.999 284 515.999 279 515.999 272 c 1
 516.999 266 517.999 259 518.999 258 c 1
 520.999 257 521.999 250 522.999 243 c 1
 522.999 236 523.999 228 523.999 225 c 0
 523.999 221 522.999 209 521.999 197 c 0
 521.999 184 519.999 173 518.999 171 c 0
 517.999 169 516.999 165 516.999 164 c 0
 516.999 162 514.999 158 512.999 156 c 0
 510.999 153 509.999 149 509.999 146 c 0
 509.999 142 507.999 137 505.999 134 c 0
 503.999 130 500.999 123 498.999 117 c 1
 495.999 112 490.999 105 486.999 101 c 0
 482.999 97 479.999 92 479.999 90 c 0
 479.999 88 478.999 85 478.999 83 c 1
 477.999 82 474.999 79 470.999 77 c 0
 466.999 75 463.999 72 463.999 71 c 1
 455.999 61 l 2
 450.999 56 446.999 53 444.999 53 c 0
 443.999 53 434.999 47 424.999 40 c 0
 414.999 33 403.999 27 401.999 26 c 0
 399.999 25 395.999 23 393.999 21 c 0
 390.999 19 384.999 16 378.999 15 c 2
 372.999 13 365.999 12 361.999 12 c 0
 358.999 12 353.999 11 351.999 9 c 1
 347.999 7 342.999 6 329.999 6 c 0
 327.07 5.70703 324.056 5.58594 321.156 5.58594 c 0
 314.156 5.58594 307.828 6.29297 305 7 c 1
 301 7 281 7 260 6 c 0
 245.66 5.31738 236.884 4.75098 231.156 4.75098 c 0
 222.1 4.75098 220.676 5.9375 217 9 c 0
 211 14 210 14 202 13 c 0
 197 13 191 12 189 11 c 0
 186 10 184 11 182 13 c 0
 180 15 176 18 172 19 c 0
 168 20 162 21 159 20 c 0
 154 19 152 20 149 23 c 0
 146 26 143 28 142 28 c 0
 140 28 135 30 131 32 c 0
 126 35 121 38 120 40 c 1
 118 41 114 45 109 48 c 0
 105 50 100 53 99 53 c 0
 97 53 95 55 94 57 c 0
 93 59 92 62 92 64 c 0
 92 65 85 72 78 81 c 0
 70 89 64 97 64 98 c 0
 64 100 61 104 59 106 c 0
 56 109 51 116 49 121 c 2
 46 126 44 131 44 132 c 0
 44 133 42 137 39 140 c 1
 36 145 34 149 34 158 c 0
 33.7852 160.368 33.6621 162.272 33.6621 163.883 c 0
 33.6621 169.755 35.291 171.722 40 178 c 0
 44 183 48 189 50 192 c 1
 52 197 53 197 60 197 c 0
 65 197 69 198 73 200 c 0
 78 203 79 203 84 201 c 0
 88 199 93 198 96 198 c 0
 100 198 104 198 106 197 c 1
 107 196 112 191 116 186 c 0
 120 181 123 176 122 175 c 1
 122 173 123 171 126 169 c 0
 129 167 130 165 130 159 c 0
 130 153 132 150 140 139 c 0
 146 132 153 122 156 118 c 0
 160 113 164 108 166 107 c 0
 168 106 173 102 176 99 c 0
 180 95 184 93 186 93 c 0
 188 93 192 91 195 89 c 0
 199 87 204 85 206 86 c 1
 210 86 214 84 220 79 c 0
 225 75 231 72 236 71 c 0
 242 70 244 71 249 74 c 0
 255 77 259 78 279 78 c 0
 291 79 306 79 312 79 c 0
 317 79 322 80 323 81 c 1
 323 81 327 83 331 84 c 0
 335 85 338 87 338 89 c 0
 338 91 339 93 340 94 c 0
 341 95 346 96 352 97 c 0
 357 98 364 100 366 102 c 1
 378 106 l 2
 382 107 388 111 396 118 c 1
 402 125 408 131 408 133 c 0
 408 135 409 138 411 140 c 0
 413 143 415 146 415 147 c 0
 415 148 416 152 418 154 c 0
 420 157 422 163 422 168 c 2
 423 174 424 181 424 184 c 1
 425 187 426 192 428 194 c 1
 429 196 430 202 430 209 c 0
 430 218 430 221 426 226 c 0
 424 229 422 233 421 236 c 0
 420 238 421 243 422 246 c 0
 424 250 424 252 420 258 c 0
 417 261 414 268 412 273 c 0
 410 278 407 285 406 289 c 0
 405 294 402 298 397 303 c 1
 392 306 388 312 386 315 c 0
 384 318 381 322 377 324 c 0
 374 325 370 328 368 330 c 1
 367 332 362 334 359 335 c 1
 355 335 349 338 344 340 c 1
 339 343 335 344 332 343 c 1
 330 343 326 343 323 345 c 0
 320 347 315 350 313 352 c 0
 311 354 306 357 302 358 c 0
 298 359 292 359 284 358 c 0
 274 357 272 357 268 360 c 0
 265 362 261 364 258 364 c 1
 256 365 250 369 246 374 c 0
 240 382 239 383 239 394 c 0
 239 403 240 407 244 412 c 0
 246 415 248 420 248 422 c 0
 248 425 249 428 251 430 c 0
 253 432 258 434 261 435 c 0
 265 436 275 437 284 436 c 0
 296 436 301 437 304 439 c 1
 307 440 311 442 314 442 c 0
 317 442 324 443 330 443 c 0
 339 443 342 443 346 447 c 0
 349 449 352 451 354 451 c 0
 355 451 358 454 361 456 c 0
 364 459 369 462 372 464 c 1
 375 465 380 469 384 472 c 1
 388 476 393 483 397 488 c 0
 400 493 403 498 403 499 c 0
 403 500 405 504 407 507 c 0
 411 513 411 515 410 523 c 0
 409 528 408 538 408 545 c 2
 408 564 l 2
 408 567 409 576 408 584 c 0
 408 593 407 600 405 604 c 0
 404 607 402 613 401 617 c 0
 400 621 398 628 397 632 c 0
 396 636 392 643 389 648 c 0
 385 653 381 657 378 658 c 0
 376 659 373 660 371 660 c 0
 370 660 364 663 359 666 c 0
 354 670 348 673 345 673 c 0
 343 673 339 674 337 675 c 1
 335 677 329 679 323 679 c 1
 317 680 311 681 310 682 c 1
 308 683 303 685 297 686 c 0
 290 688 277 689 262 689 c 0
 246 688 235 688 229 686 c 0
 223 684 216 682 212 681 c 1
 209 681 204 679 201 677 c 0
 198 675 194 673 192 673 c 1
 189 672 182 666 175 658 c 0
 168 651 161 642 159 637 c 0
 157 633 154 628 153 626 c 1
 151 624 150 621 150 618 c 0
 150 615 150 611 151 608 c 0
 152 606 153 602 152 600 c 1
 152 599 150 597 148 596 c 1
 146 596 142 593 139 590 c 0
 136 587 134 583 134 582 c 0
 134 581 131 578 128 577 c 1
 125 575 121 573 119 571 c 0
 117 569 113 568 106 568 c 0
 101 568 93 569 90 569 c 2
 79 569 l 2
 76 569 69 570 65 571 c 0
 58 573 56 574 54 580 c 0
 52 584 51 593 51 600 c 0
 51 610 52 614 55 618 c 0
 57 622 58 627 58 631 c 0
 58 636 59 640 61 641 c 1
 62 642 64 644 64 646 c 0
 64 647 67 652 71 656 c 0
 76 662 79 667 80 671 c 0
 81 677 82 679 89 682 c 0
 95 685 97 687 101 695 c 0
 103 700 107 707 110 709 c 0
 114 712 119 716 122 717 c 2
 125 719 132 722 136 725 c 0
 141 728 146 730 148 730 c 0
 150 730 153 732 155 734 c 0
 158 736 162 738 166 739 c 1
 169 739 174 741 177 742 c 1
 180 744 188 745 195 746 c 1
 204 746 209 747 211 749 c 0
 213 751 217 752 221 753 c 1
 225 753 231 755 235 757 c 0
EndSplineSet
Validated: 33
EndChar

StartChar: uni0034
Encoding: 52 52 21
Width: 565
GlyphClass: 2
Flags: W
LayerCount: 2
Fore
SplineSet
336 588 m 0
 335 589 331.002 590 326.002 590 c 0
 322.002 590 316.002 589 313.002 588 c 0
 310.002 587 304.002 582 301.002 578 c 0
 298.002 574 294.002 568 293.002 565 c 2
 291.002 562 287.002 554 283.002 547 c 2
 275.002 535 l 1
 275.002 534 273.002 531 270.002 527 c 0
 267.002 524 265.002 520 265.002 518 c 0
 265.002 516 264.002 514 262.002 513 c 1
 261.002 512 259.002 510 258.002 508 c 0
 257.002 506 256.002 503 256.002 501 c 0
 256.002 498 253.002 494 246.002 490 c 1
 241.002 486 234.002 479 230.002 472 c 0
 226.002 465 223.002 458 223.002 456 c 0
 223.002 454 221.002 450 219.002 449 c 1
 217.002 447 214.002 442 211.002 437 c 1
 209.002 432 206.002 426 206.002 424 c 1
 205.002 421 202.002 418 200.002 416 c 1
 196.002 414 194.002 411 194.002 408 c 0
 194.002 405 191.002 400 184.002 392 c 0
 179.002 387 173.002 380 171.002 378 c 1
 170.002 376 166.002 370 164.002 366 c 0
 162.002 361 159.002 354 158.002 351 c 1
 158.002 348 155.002 342 152.002 339 c 0
 149.002 336 147.002 332 147.002 330 c 0
 147.002 328 143.002 324 139.002 320 c 0
 133.002 315 131.002 313 131.002 309 c 0
 131.002 306 128.002 302 121.002 294 c 0
 115.002 288 110.002 282 110.002 281 c 0
 110.002 279 108.002 276 106.002 274 c 0
 103.002 272 101.002 268 101.002 267 c 0
 101.002 265 100.002 260 98.002 257 c 0
 96.0996 253.196 95.4033 251 95.4033 249.138 c 0
 95.4033 248.062 95.6357 247.099 96.002 246.001 c 0
 97.002 243.001 99.002 240.001 101.002 238.001 c 0
 103.002 235.001 108.002 233.001 114.002 232.001 c 0
 117.517 230.829 121.031 230.344 124.345 230.344 c 0
 126.688 230.344 128.93 230.586 131.001 231 c 0
 133.122 231.707 145.743 232.414 161.439 232.414 c 0
 167.941 232.414 174.971 232.293 182 232 c 2
 254 232 l 2
 275 232 282 232 285 234 c 0
 287 235 291 237 294 238 c 1
 298 238 303 239 307 240 c 2
 310 240 317 241 322 241 c 1
 328 242 331 243 335 246 c 1
 339 251 339 251 339 326 c 0
 339 399 339 402 343 406 c 0
 346 409 346 412 346 437 c 0
 347 452 347 467 348 471 c 0
 348.309 472.545 348.522 473.804 348.522 474.982 c 0
 348.522 477.618 347.455 479.854 344 484 c 0
 339 490 338 492 339 497 c 0
 340 501 341 506 343 508 c 0
 345 510 346 513 345 521 c 0
 344 526 343 532 342 534 c 1
 341 535 340 547 340 561 c 0
 339 575 338 586 336 588 c 0
371.002 715 m 0
 372.002 716 374.004 715.999 376.004 715.999 c 0
 378.004 715.999 382.004 714.999 383.004 712.999 c 1
 386.004 709.999 388.004 708.999 401.004 709.999 c 0
 411.004 710.999 416.004 709.999 417.004 708.999 c 0
 418.004 707.999 418.004 696.999 418.004 685.999 c 0
 418.004 668.999 419.004 662.999 422.004 659.999 c 1
 424.004 655.999 425.004 648.999 426.004 612.999 c 0
 426.004 597.666 426.448 582.777 426.448 573.666 c 0
 426.448 569.11 426.337 565.999 426.004 564.999 c 1
 426.004 548.999 l 1
 426.004 530.999 l 1
 426.004 510.999 l 2
 426.004 501.999 425.004 498.999 422.004 496.999 c 1
 421.004 494.999 420.004 492.999 420.004 491.999 c 1
 421.004 490.999 419.004 485.999 418.004 480.999 c 1
 416.004 475.999 413.004 466.999 413.004 461.999 c 1
 412.004 454.999 413.004 451.999 416.004 444.999 c 0
 419.004 436.999 418.941 434.003 418.004 418.999 c 0
 417.004 402.999 418.004 399.999 421.004 390.999 c 0
 425.004 381.999 425.004 377.999 425.004 331.999 c 0
 424.004 304.999 424.004 280.999 424.004 277.999 c 1
 425.004 274.999 425.004 268.999 424.004 263.999 c 1
 424.004 258.999 425.004 252.999 425.004 250.999 c 1
 426.004 248.999 431.004 244.999 437.004 242.999 c 2
 443.004 239.999 451.004 236.999 455.004 235.999 c 0
 459.004 234.999 463.004 235.999 466.004 236.999 c 1
 469.004 238.999 476.004 239.999 486.004 239.999 c 0
 499.004 239.999 502.004 238.999 506.004 235.999 c 0
 509.004 232.999 513.004 231.999 515.004 231.999 c 0
 517.004 231.999 520.004 230.999 521.004 228.999 c 1
 522.004 227.999 522.004 225.999 522.004 223.999 c 1
 521.004 221.999 523.004 216.999 526.004 211.999 c 0
 529.004 206.999 532.004 202.999 532.004 201.999 c 0
 532.004 200.999 530.004 198.999 528.004 197.999 c 1
 526.004 195.999 525.004 192.999 525.004 189.999 c 0
 525.004 186.999 524.004 183.999 519.004 179.999 c 0
 514.004 175.999 512.004 174.999 508.004 175.999 c 1
 506.004 176.999 501.004 179.999 498.004 182.999 c 0
 495.004 184.999 491.004 187.999 490.004 187.999 c 0
 488.004 187.999 483.004 184.999 480.004 181.999 c 0
 477.004 179.999 471.004 175.999 468.004 174.999 c 0
 464.004 172.999 457.004 171.999 451.004 171.999 c 0
 442.004 171.999 441.004 171.999 433.004 163.999 c 0
 426.004 155.999 426.004 155.999 426.004 140.999 c 0
 425.004 129.999 426.004 122.999 428.004 117.999 c 0
 430.004 113.999 432.004 105.999 433.004 98.999 c 1
 433.004 91.999 434.004 85.999 433.004 84.999 c 1
 433.004 83.999 433.004 76.999 432.004 67.999 c 2
 432.004 51.999 l 2
 432.004 50.999 432.004 44.999 433.004 39.999 c 1
 433.004 14.999 l 1
 431.004 0.999023 431.004 -0.000976562 425.004 -7.00098 c 0
 419.004 -14.001 417.004 -15.001 408.004 -15.001 c 0
 405.337 -15.334 403.337 -15.5566 401.633 -15.5566 c 0
 398.226 -15.5566 396.003 -14.668 392.003 -12.001 c 0
 388.003 -8.00098 384.003 -7.00098 378.003 -7.00098 c 0
 372.003 -7.00098 367.003 -6.00098 364.003 -4.00098 c 0
 361.003 -2.00098 356.003 -0.000976562 354.003 -0.000976562 c 0
 351.003 -0.000976562 347.003 1.99902 345.003 3.99902 c 0
 342.003 6.99902 340.003 10.999 340.003 18.999 c 1
 339.003 24.999 338.003 47.999 338.003 68.999 c 2
 338.003 112.999 l 2
 338.003 115.999 339.003 121.999 339.003 126.999 c 0
 340.003 134.999 340.003 136.999 335.003 147.999 c 0
 331.003 155.999 328.003 159.999 325.003 161.999 c 1
 322.003 162.999 319.003 164.999 317.003 165.999 c 1
 315.831 167.171 311.914 167.656 298.217 167.656 c 0
 288.531 167.656 273.955 167.414 252.002 167 c 2
 179.002 167 l 2
 172.002 167 158.002 168 147.002 168 c 0
 136.002 168 119.002 167 109.002 166 c 0
 97.002 166 90.002 166 90.002 167 c 1
 89.002 168 86.002 168 81.002 168 c 1
 77.002 167 67.002 166 59.002 166 c 0
 44.002 166 43.002 166 40.002 170 c 0
 38.002 172 36.002 175 36.002 176 c 0
 36.002 177 34.002 182 31.002 186 c 0
 27.002 192 26.002 195 26.002 199 c 1
 27.002 202 28.002 208 28.002 212 c 0
 29.002 217 29.002 220 26.002 226 c 0
 23.002 231 22.002 235 22.002 249 c 0
 22.002 265 23.002 266 28.002 272 c 0
 31.002 276 36.002 280 39.002 281 c 1
 42.002 283 46.002 286 48.002 289 c 0
 51.002 292 52.002 295 52.002 297 c 0
 52.002 298 54.002 301 56.002 303 c 0
 58.002 305 59.002 307 59.002 308 c 0
 59.002 309 61.002 312 63.002 313 c 1
 65.002 315 66.002 319 66.002 323 c 0
 66.002 326 69.002 334 71.002 339 c 0
 74.002 345 80.002 355 85.002 360 c 0
 89.002 365 93.002 371 93.002 372 c 0
 93.002 374 98.002 380 104.002 387 c 0
 110.002 393 115.002 399 115.002 400 c 0
 115.002 401 118.002 405 120.002 409 c 0
 123.002 414 127.002 419 130.002 422 c 0
 133.002 424 135.002 428 135.002 430 c 0
 135.002 432 137.002 436 139.002 439 c 0
 142.002 442 143.002 446 143.002 447 c 0
 143.002 448 146.002 452 148.002 455 c 0
 151.002 458 155.002 461 158.002 463 c 1
 161.002 464 163.002 467 164.002 470 c 0
 165.002 473 167.002 477 168.002 480 c 1
 170.002 482 172.002 485 172.002 486 c 0
 172.002 487 173.002 490 175.002 494 c 0
 177.002 498 179.002 503 180.002 506 c 0
 181.002 509 184.002 511 189.002 513 c 1
 194.002 514 196.002 516 199.002 523 c 1
 202.002 527 206.002 537 210.002 544 c 0
 214.002 551 218.002 559 220.002 561 c 0
 222.002 564 225.002 569 226.002 572 c 0
 227.002 576 230.002 582 233.002 585 c 2
 235.002 589 238.002 593 241.002 594 c 1
 243.002 596 246.002 601 248.002 605 c 0
 250.002 609 253.002 614 255.002 616 c 1
 257.002 617 261.002 622 264.002 627 c 1
 266.002 632 270.002 638 272.002 640 c 0
 275.002 642 280.002 650 284.002 657 c 0
 288.002 665 291.002 672 290.002 674 c 1
 290.002 675 296.002 683 307.002 694 c 0
 324.002 711 324.002 711 330.002 709 c 1
 333.002 707 337.002 705 337.002 704 c 1
 338.002 703 341.002 702 345.002 702 c 0
 349.002 702 352.002 704 355.002 707 c 0
 357.002 709 361.002 711 364.002 712 c 0
 367.002 713 370.002 714 371.002 715 c 0
EndSplineSet
Validated: 33
EndChar

StartChar: uni0035
Encoding: 53 53 22
Width: 590
GlyphClass: 2
Flags: W
LayerCount: 2
Fore
SplineSet
251 736 m 1
 255.938 738.469 258.843 740.26 261.946 740.26 c 0
 262.614 740.26 263.291 740.177 263.999 740 c 1
 265.999 739 274.999 738 284.999 738 c 0
 293.999 738 302.999 737 305.999 737 c 0
 308.999 737 313.999 737 316.999 738 c 1
 320.999 738 324.999 737 325.999 736 c 0
 327.999 734 330.999 733 333.999 733 c 0
 336.999 733 343.999 732 349.999 731 c 0
 356.999 730 361.999 731 366.999 733 c 0
 370.999 735 373.999 735 377.999 734 c 1
 379.999 733 396.999 731 414.999 731 c 0
 425.332 730.667 432.555 730.444 437.888 730.444 c 0
 448.555 730.444 451.666 731.333 456.999 734 c 0
 460.999 736 467.999 738 471.999 739 c 0
 477.999 740 479.999 740 484.999 737 c 0
 487.999 735 490.999 733 490.999 731 c 1
 491.999 729 492.999 727 494.999 725 c 0
 495.999 724 496.999 718 497.999 712 c 0
 498.999 701 498.999 700 493.999 696 c 0
 489.999 692 487.999 690 487.999 685 c 0
 487.999 680 486.999 677 483.999 675 c 0
 481.999 674 478.999 673 476.999 673 c 0
 474.999 673 469.999 671 465.999 669 c 0
 462.999 667 457.999 666 454.999 666 c 0
 452.999 666 447.999 667 444.999 669 c 0
 440.999 672 434.999 673 424.999 674 c 0
 412.999 674 410.999 674 406.999 671 c 0
 404.999 669 401.999 667 400.999 667 c 1
 400.999 667 398.999 669 396.999 670 c 0
 393.999 672 387.999 673 357.999 674 c 0
 325.999 674 321.999 674 308.999 670 c 0
 299.999 668 289.999 666 283.999 666 c 0
 275.999 666 270.999 668 263.999 671 c 0
 254.999 675 252.999 676 246.999 674 c 1
 242.999 674 229.999 673 217.999 673 c 0
 212.252 673.262 208.008 673.454 204.693 673.454 c 0
 195.317 673.454 193.388 671.91 186 666 c 0
 180 662 174 656 172 654 c 0
 170 651 168 646 167 643 c 0
 166 640 166 631 166 624 c 0
 167 613 167 611 163 605 c 0
 160 599 159 596 159 578 c 0
 159 563 160 558 162 555 c 0
 164 552 165 547 165 540 c 0
 165 533 164 528 161 523 c 0
 159.098 518.562 158.401 516.134 158.401 504.504 c 0
 158.401 497.789 158.634 488.007 159 473 c 0
 159 450 160 429 161 428 c 1
 162 426 164 424 166 424 c 1
 168 423 172 423 173 423 c 1
 175 424 178 428 180 432 c 0
 183 438 186 441 189 442 c 1
 191 442 195 443 198 443 c 1
 201 444 206 448 210 451 c 1
 214 455 219 458 221 458 c 0
 223 458 226 459 229 461 c 0
 232 463 239 464 248 464 c 0
 259 464 264 464 268 467 c 0
 272 469 279 471 287 471 c 0
 295 472 301 474 304 476 c 0
 309 479 312 479 343 479 c 0
 373 478 378 478 386 474 c 1
 392 472 397 470 398 469 c 0
 399 468 401 467 402 467 c 0
 404 467 410 464 415 460 c 0
 421 456 428 453 430 453 c 0
 433 453 437 452 440 450 c 0
 443 448 449 445 453 442 c 0
 457 440 461 436 462 433 c 1
 464 431 472 423 479 415 c 0
 487 407 494 399 496 396 c 1
 497 393 500 389 501 388 c 1
 503 387 504 384 504 381 c 0
 504 377 506 373 510 369 c 0
 515 364 516 361 516 356 c 0
 516 352 518 346 519 343 c 0
 521 339 523 333 524 328 c 0
 525 324 527 319 529 316 c 0
 531 313 532 309 532 302 c 0
 532 294 533 291 536 288 c 0
 538.25 285 539.375 283.688 539.375 277.312 c 0
 539.375 275.188 539.25 272.5 539 269 c 0
 538 260 536 252 534 247 c 1
 531 242 530 239 531 231 c 0
 532 223 532 220 530 217 c 0
 528 215 526 207 525 201 c 0
 524 194 524 185 524 181 c 0
 525 174 525 172 522 168 c 0
 519 164 518 161 518 154 c 0
 518 146 517 143 513 137 c 0
 510 132 508 128 508 127 c 0
 508 125 506 121 504 117 c 0
 502 114 498 109 496 107 c 1
 493 106 490 104 490 103 c 1
 489 102 488 99 488 98 c 0
 488 96 486 91 483 87 c 0
 480 82 476 79 475 79 c 0
 473 79 467 74 461 67 c 0
 455 61 449 56 448 56 c 0
 446 56 442 52 437 48 c 0
 433 44 428 38 425 36 c 2
 423 33 419 31 417 31 c 0
 416 31 412 30 410 29 c 0
 407 28 404 25 402 24 c 1
 401 22 397 19 393 17 c 0
 389 15 384 14 381 14 c 0
 379 14 373 12 369 10 c 0
 361 5 360.003 5.05273 342 6 c 0
 323 7 323 7 315 2 c 0
 310 -1 306 -4 304 -4 c 0
 302 -4 299 -1 296 1 c 0
 291 6 290 6 279 6 c 0
 271 5 265 4 263 3 c 0
 260 1 256 0 253 0 c 0
 251 0 247 1 244 3 c 0
 241 6 237 7 232 7 c 0
 227 7 222 8 220 9 c 1
 219 11 214 12 210 12 c 0
 205 12 202 13 199 16 c 0
 197 19 195 19 186 18 c 0
 177 17 176 17 173 21 c 1
 165 29 l 2
 163 31 160 33 158 33 c 0
 157 33 152 37 147 42 c 0
 142 46 135 52 131 54 c 0
 127 56 122 58 119 59 c 0
 116 60 114 63 113 66 c 0
 112 71 110 73 105 76 c 0
 101 78 97 80 96 81 c 1
 96 82 95 87 95 91 c 0
 95 98 94 101 91 105 c 0
 88 108 86 112 86 113 c 0
 86 115 85 118 83 120 c 1
 82 122 81 125 81 126 c 0
 81 127 79 131 76 134 c 0
 74 136 72 140 72 141 c 0
 72 142 71 145 69 146 c 1
 66 149 66 151 66 161 c 0
 66 167 67 173 68 174 c 0
 69 175 79 176 90 177 c 0
 102 178 114 178 119 177 c 0
 124 176 132 176 138 176 c 1
 148 178 148 178 156 168 c 0
 164 160 165 158 165 151 c 0
 165 147 166 141 167 139 c 1
 169 137 171 132 174 128 c 0
 176 124 180 117 184 114 c 0
 187 111 194 104 199 98 c 0
 204 93 211 88 215 86 c 0
 219 84 223 82 224 81 c 0
 225 80 229 79 234 79 c 0
 240 79 245 78 250 75 c 0
 257 71 259 71 282 71 c 0
 301 71 308 72 311 74 c 0
 313 75 319 80 324 85 c 0
 332 93 332 93 347 92 c 0
 361.005 91.0664 362 91 368 95 c 0
 371 98 374 100 375 100 c 0
 376 100 381 104 387 110 c 0
 393 115 398 119 399 119 c 1
 399 119 401 122 403 126 c 0
 405 130 408 134 409 134 c 1
 411 135 414 138 416 142 c 0
 418 145 421 149 424 151 c 1
 427 152 430 154 431 155 c 0
 432 156 432 159 432 162 c 0
 432 165 433 169 435 170 c 1
 437 172 438 178 438 192 c 0
 438 207 439 211 442 214 c 0
 445 218 445 221 445 250 c 0
 445 277 444 284 442 287 c 0
 440 290 439 296 439 303 c 0
 438 311 437 318 434 323 c 2
 427 337 l 2
 425 341 423 347 423 353 c 0
 423 361 423 362 417 365 c 0
 414 366 409 370 408 373 c 0
 406 377 400 381 396 384 c 0
 391 387 387 390 386 391 c 0
 385 392 382 395 381 397 c 1
 378 400 376 400 372 400 c 0
 367 399 363 400 357 403 c 0
 350 407 348 408 341 406 c 1
 337 406 331 405 328 405 c 0
 325 405 317 406 310 407 c 0
 303 408 295 410 293 411 c 0
 288 414 285 414 274 413 c 0
 267 412 261 410 259 409 c 1
 258 408 253 407 248 407 c 1
 244 406 236 404 232 402 c 0
 228 400 223 399 221 399 c 0
 218 399 215 397 214 396 c 1
 213 394 210 391 208 389 c 0
 206 387 202 384 199 381 c 1
 195 379 193 376 193 373 c 0
 193 370 190 365 184 359 c 0
 177 352 174 348 174 345 c 0
 174 342 172 339 170 337 c 0
 166 334 165 332 165 327 c 0
 165 324 165 320 164 319 c 2
 164 317 161 316 159 316 c 0
 157 316 153 314 150 312 c 0
 144 309 140 309 121 308 c 0
 98 308 98 308 92 315 c 0
 88 319 84 324 83 330 c 1
 81 335 80 347 80 363 c 0
 80 382 81 389 83 393 c 1
 84 397 86 403 87 408 c 0
 88 415 87 416 84 421 c 1
 80 425 79 428 79 436 c 0
 79 445 80 447 83 450 c 1
 87 452 88 454 87 461 c 0
 87 465 85 470 83 473 c 0
 81 476 79 480 79 482 c 0
 79 485 81 489 83 492 c 0
 88 497 88 498 88 527 c 0
 87 556 87 558 83 561 c 1
 81 564 79 568 79 577 c 2
 78 584 79 591 80 596 c 1
 85 606 l 2
 86 608 87 617 87 637 c 0
 86.75 643.25 86.625 648.125 86.625 651.984 c 0
 86.625 663.562 87.75 666 90 669 c 0
 92 672 94 678 94 682 c 0
 95 689 95 691 92 694 c 0
 88 698 88 699 90 703 c 0
 92 706 93 711 94 715 c 0
 95 719 98 724 102 730 c 1
 110 738 110 738 131 738 c 0
 149 738 153 738 157 735 c 0
 160 733 165 732 170 732 c 0
 175 732 181 733 183 735 c 1
 186 736 189 738 191 738 c 0
 193 738 198 735 203 732 c 1
 207 728 214 725 218 725 c 0
 223 724 227 724 232 727 c 0
 236 729 240 731 241 731 c 0
 242 731 247 733 251 736 c 1
EndSplineSet
Validated: 33
EndChar

StartChar: uni0036
Encoding: 54 54 23
Width: 574
GlyphClass: 2
Flags: W
LayerCount: 2
Fore
SplineSet
290 415 m 1
 287 417 281 417.999 275 418.999 c 0
 272.75 419.249 270.875 419.374 269.219 419.374 c 0
 264.25 419.374 261.25 418.249 256 415.999 c 0
 252 413.999 242 409.999 234 406.999 c 0
 226 403.999 218 401.999 215 401.999 c 0
 211 401.999 208 399.999 201 391.999 c 2
 191 379.999 l 1
 191 378.999 189 375.999 185 373.999 c 1
 182 370.999 179 368.999 179 367.999 c 1
 175 361.999 l 2
 172 358.999 169 354.999 167 351.999 c 1
 166 348.999 163 345.999 161 343.999 c 0
 159 341.999 157 336.999 156 326.999 c 0
 155 319.999 152 310.999 151 308.999 c 1
 149 306.999 148 302.999 148 300.999 c 0
 148 298.999 146 295.999 144 293.999 c 0
 142 291.999 141 289.999 141 287.999 c 0
 141 286.999 142 282.999 144 278.999 c 0
 146 275.999 148 269.999 149 266.999 c 0
 150 262.999 150 255.999 149 250.999 c 0
 148 245.999 148 238.999 149 234.999 c 2
 149 231.999 151 226.999 153 224.999 c 0
 155 221.999 156 218.999 155 203.999 c 0
 154 188.999 154 186.999 158 181.999 c 0
 160 179.999 162 175.999 162 173.999 c 0
 162 171.999 163 167.999 165 164.999 c 0
 167 161.999 170 154.999 171 148.999 c 0
 172 143.999 174 136.999 175 134.999 c 0
 176 132.999 180 127.999 183 124.999 c 0
 187 121.999 190 115.999 191 112.999 c 1
 193 109.999 195 106.999 197 105.999 c 0
 199 104.999 203 101.999 207 98.999 c 0
 211 95.999 216 92.999 218 92.999 c 0
 220 92.999 225 89.999 229 85.999 c 0
 236 78.999 236 78.999 245 79.999 c 0
 252 80.999 254 79.999 260 75.999 c 0
 266 70.999 266 70.999 299 69.999 c 0
 316 69.999 333 69.999 335 70.999 c 2
 337 70.999 342 74.999 346 77.999 c 0
 350 80.999 355 83.999 358 83.999 c 0
 360 83.999 363 85.999 365 87.999 c 1
 367 88.999 372 92.999 376 94.999 c 0
 379 95.999 386 101.999 390 106.999 c 0
 394 111.999 398 115.999 399 115.999 c 0
 400 115.999 403 117.999 406 119.999 c 0
 408 121.999 413 127.999 416 133.999 c 0
 419 138.999 422 144.999 422 146.999 c 0
 422 148.999 423 153.999 425 156.999 c 0
 428 162.999 428 166.999 428 177.999 c 0
 427 190.999 427 191.999 432 196.999 c 1
 436 202.999 436 202.999 435 221.999 c 0
 434 240.999 434 241.999 438 245.999 c 0
 441.056 248.291 442.36 249.999 442.36 252.461 c 0
 442.36 255.169 439.33 262.504 437 266 c 0
 435 270 434 274 435 281 c 1
 435 289 435 291 431 295 c 0
 428 298 428 301 428 314 c 0
 428 328 427 330 423 336 c 2
 416 350 l 1
 415 354 413 359 413 361 c 1
 411 364 410 365 405 365 c 0
 402 365 398 366 396 368 c 2
 393 369 392 371 392 372 c 0
 392 374 386 381 379 388 c 0
 372 396 363 404 359 406 c 0
 355 408 350 410 348 412 c 1
 344 414 339 414 319 414 c 0
 301 413 293 414 290 415 c 1
260 748.999 m 0
 263 751.999 267 751.999 294 751.999 c 0
 311 751.999 329 750.999 335 749.999 c 0
 340 748.999 348 746.999 351 745.999 c 0
 356 743.999 358 743.999 363 746.999 c 0
 368 749.999 370 749.999 373 747.999 c 1
 376 746.999 379 746.999 380 746.999 c 1
 382 747.999 384 745.999 385 742.999 c 1
 387 739.999 389 737.999 391 736.999 c 1
 392 735.999 396 736.999 399 737.999 c 0
 404 738.999 405 737.999 411 732.999 c 0
 416 727.999 419 726.999 425 726.999 c 0
 429 726.999 433 725.999 434 723.999 c 1
 436 721.999 437 718.999 438 715.999 c 0
 439 712.999 440 710.999 442 710.999 c 0
 444 710.999 447 709.999 449 707.999 c 1
 450 705.999 454 702.999 458 701.999 c 0
 461 700.999 464 698.999 465 696.999 c 1
 465 693.999 469 689.999 473 685.999 c 0
 477 681.999 480 677.999 480 674.999 c 0
 480 671.999 482 666.999 487 661.999 c 0
 492 655.999 494 651.999 494 647.999 c 0
 494 643.999 495 639.999 496 638.999 c 1
 498 637.999 499 633.999 499 630.999 c 0
 499 626.999 501 619.999 503 614.999 c 1
 506 610.999 508 603.999 508 599.999 c 0
 508 593.999 506 591.999 500 585.999 c 0
 495 580.999 490 577.999 486 576.999 c 1
 483 576.999 474 575.999 465 574.999 c 0
 451 574.999 449 574.999 444 578.999 c 0
 439 581.999 437 582.999 431 581.999 c 1
 425 581.999 424 581.999 418 588.999 c 0
 415 592.999 413 597.999 413 598.999 c 0
 413 600.999 412 602.999 410 603.999 c 1
 409 604.999 408 607.999 408 608.999 c 0
 408 610.999 406 613.999 404 616.999 c 0
 402 619.999 399 626.999 397 633.999 c 0
 395 640.999 392 647.999 390 650.999 c 0
 388 653.999 382 658.999 377 661.999 c 0
 372 664.999 366 668.999 364 670.999 c 0
 362 672.999 358 675.999 354 677.999 c 0
 351 679.999 347 680.999 345 680.999 c 0
 343 680.999 340 682.999 338 684.999 c 0
 335 686.999 331 687.999 324 687.999 c 0
 319 687.999 313 687.999 311 686.999 c 0
 308 685.999 301 685.999 293 686.999 c 0
 282 687.999 278 687.999 264 684.999 c 0
 256 682.999 246 678.999 242 677.999 c 1
 239 675.999 233 672.999 229 670.999 c 1
 225 669.999 220 667.999 218 666.999 c 0
 215 664.999 209 659.999 205 654.999 c 0
 200 649.999 197 644.999 197 644.999 c 1
 197 643.999 195 641.999 192 640.999 c 0
 190 639.999 185 632.999 181 623.999 c 0
 177 615.999 171 606.999 167 602.999 c 0
 164 599.999 159 595.999 158 593.999 c 1
 156 592.999 155 588.999 155 586.999 c 0
 155 584.999 153 579.999 151 576.999 c 0
 148 571.999 147 568.999 148 561.999 c 0
 149 554.999 149 551.999 146 546.999 c 0
 144 543.999 142 537.999 141 532.999 c 1
 141 527.999 139 521.999 137 518.999 c 1
 136 515.999 135 507.999 134 497.999 c 0
 134 487.999 133 477.999 131 472.999 c 0
 128 465.999 128 457.999 127 431.999 c 0
 127 405.999 127 399.999 129 397.999 c 0
 131 395.999 136 394.999 142 394.999 c 0
 149 394.999 154 395.999 160 398.999 c 0
 165 401.999 168 404.999 168 406.999 c 1
 169 408.999 171 412.999 174 414.999 c 2
 176 417.999 180 420.999 183 421.999 c 0
 186 422.999 189 425.999 191 428.999 c 0
 194 432.999 198 436.999 205 439.999 c 0
 211 442.999 219 449.999 224 454.999 c 0
 229 458.999 234 463.999 235 463.999 c 0
 236 463.999 239 464.999 241 466.999 c 0
 244 468.999 249 470.999 253 471.999 c 1
 257 471.999 267 472.999 274 471.999 c 1
 282 471.999 288 472.999 291 474.999 c 1
 294 475.999 299 477.999 301 477.999 c 0
 304 477.999 310 479.999 316 481.999 c 1
 324 485.999 326 486.999 329 484.999 c 0
 331 482.999 335 480.999 338 479.999 c 0
 342 477.999 347 476.999 359 477.999 c 0
 375 479.999 375 478.999 379 474.999 c 0
 382 471.999 385 470.999 391 470.999 c 0
 395 470.999 399 469.999 400 468.999 c 0
 401 467.999 403 465.999 404 462.999 c 1
 406 459.999 410 457.999 414 456.999 c 0
 418 455.999 422 453.999 424 451.999 c 1
 426 450.999 428 449.999 430 450.999 c 1
 436 450.999 l 1
 439 449.999 444 446.999 447 443.999 c 0
 451 440.999 455 434.999 457 431.999 c 0
 459 427.999 462 424.999 463 424.999 c 0
 465 424.999 468 422.999 470 420.999 c 0
 472 418.999 477 411.999 480 405.999 c 2
 484 400.999 487 394.999 487 392.999 c 0
 487 391.999 489 387.999 492 384.999 c 0
 495 381.999 498 376.999 498 373.999 c 1
 502 365.999 l 1
 504 363.999 506 359.999 506 355.999 c 1
 507 351.999 511 344.999 514 339.999 c 0
 521 329.999 521 329.999 521 310.999 c 0
 520 293.999 520 291.999 524 284.999 c 0
 528 278.999 528 276.999 528 244.999 c 0
 527 212.999 527 209.999 523 203.999 c 0
 520 198.999 520 195.999 520 183.999 c 0
 521 171.999 521 169.999 518 167.999 c 0
 516 166.999 514 163.999 514 159.999 c 1
 513 155.999 512 150.999 510 148.999 c 1
 509 145.999 508 140.999 508 137.999 c 0
 508 133.999 506 128.999 504 126.999 c 1
 503 123.999 501 119.999 500 117.999 c 0
 499 115.999 497 112.999 494 110.999 c 0
 492 108.999 489 104.999 488 100.999 c 0
 487 97.999 482 91.999 478 86.999 c 0
 473 81.999 469 75.999 468 72.999 c 1
 468 69.999 465 67.999 463 66.999 c 0
 461 65.999 451 56.999 441 46.999 c 0
 431 36.999 420 27.999 414 24.999 c 0
 409 22.999 404 20.999 402 20.999 c 0
 399 20.999 396 18.999 393 15.999 c 0
 391 13.999 388 11.999 386 12.999 c 1
 385 12.999 380 12.999 375 10.999 c 2
 370 9.99902 363 6.99902 358 5.99902 c 0
 354 4.99902 347 4.99902 343 4.99902 c 0
 338 5.99902 327 5.99902 318 5.99902 c 0
 303 5.99902 300 4.99902 297 1.99902 c 0
 294 -0.000976562 291 -1.00098 282 -1.00098 c 0
 274 -1.00098 270 -0.000976562 266 2.99902 c 0
 263 4.99902 257 6.99902 251 6.99902 c 1
 246 7.99902 238 8.99902 234 10.999 c 0
 229 12.999 224 14.999 223 16.999 c 1
 221 17.999 217 19.999 213 19.999 c 0
 209 19.999 203 21.999 199 23.999 c 0
 196 25.999 191 27.999 189 27.999 c 0
 187 27.999 184 28.999 182 30.999 c 1
 180 31.999 177 32.999 175 32.999 c 0
 173 32.999 169 34.999 168 36.999 c 1
 166 38.999 161 41.999 156 44.999 c 0
 152 46.999 145 49.999 141 51.999 c 0
 136 54.999 133 57.999 132 60.999 c 0
 131 63.999 128 67.999 126 70.999 c 0
 124 72.999 120 78.999 118 84.999 c 0
 115 91.999 112 95.999 108 97.999 c 0
 105 98.999 100 102.999 97 105.999 c 0
 93 109.999 91 112.999 91 117.999 c 0
 91 120.999 89 127.999 87 133.999 c 0
 85 138.999 81 144.999 78 146.999 c 1
 76 149.999 74 152.999 74 155.999 c 0
 74 158.999 73 161.999 71 162.999 c 1
 70 163.999 67 168.999 65 172.999 c 0
 62 178.999 62 181.999 63 185.999 c 1
 65 189.999 64 194.999 63 200.999 c 0
 62 205.999 60 210.999 59 212.999 c 0
 58 214.999 57 223.999 56 232.999 c 0
 55 240.999 54 250.999 54 253.999 c 1
 55 257.999 55 270.999 54 283.999 c 0
 54 301.999 54 308.999 51 312.999 c 1
 49 317.999 49 324.999 48 352.999 c 0
 48 386.999 48 387.999 52 391.999 c 0
 54 393.999 56 397.999 56 399.999 c 0
 56 401.999 54 407.999 51 413.999 c 0
 47.5449 420.218 46.4775 423.095 46.4775 427.248 c 0
 46.4775 429.105 46.6914 431.218 47 433.999 c 0
 48 440.999 50 445.999 53 448.999 c 0
 56 451.999 56 453.999 55 458.999 c 0
 54 462.999 54 475.999 55 489.999 c 0
 55 507.999 57 514.999 59 519.999 c 0
 61 523.999 62 529.999 62 538.999 c 0
 62 546.999 63 551.999 65 553.999 c 0
 67 555.999 69 560.999 71 564.999 c 1
 72 569.999 74 574.999 74 575.999 c 0
 74 577.999 76 580.999 78 582.999 c 0
 80 584.999 83 589.999 83 592.999 c 1
 84 596.999 86 601.999 88 604.999 c 0
 90 607.999 91 611.999 91 612.999 c 0
 91 613.999 93 616.999 95 619.999 c 0
 97 622.999 98 626.999 98 633.999 c 0
 98 641.999 99 642.999 103 645.999 c 1
 106 646.999 110 652.999 114 660.999 c 0
 120 671.999 121 672.999 127 673.999 c 0
 130 674.999 135 676.999 138 678.999 c 0
 141 680.999 144 684.999 145 687.999 c 0
 146 690.999 149 695.999 153 699.999 c 2
 156 703.999 162 709.999 165 712.999 c 0
 169 715.999 175 721.999 179 724.999 c 0
 185 729.999 187 730.999 196 730.999 c 0
 201 730.999 208 731.999 213 733.999 c 0
 217 735.999 223 736.999 227 736.999 c 1
 231 737.999 237 739.999 242 741.999 c 0
 247 743.999 252 745.999 254 745.999 c 0
 256 745.999 259 747.999 260 748.999 c 0
EndSplineSet
Validated: 33
EndChar

StartChar: uni0037
Encoding: 55 55 24
Width: 543
GlyphClass: 2
Flags: W
LayerCount: 2
Fore
SplineSet
83 738 m 1
 85 738 92.335 738.442 101.149 738.442 c 0
 105.557 738.442 110.334 738.331 115.001 737.998 c 0
 139.001 737.998 140.001 737.998 147.001 732.998 c 0
 151.001 730.998 155.001 728.998 156.001 728.998 c 0
 157.001 728.998 159.001 729.998 161.001 730.998 c 0
 162.759 732.17 166.231 732.655 176.244 732.655 c 0
 183.324 732.655 193.675 732.413 209.001 731.999 c 0
 243.001 730.999 255.001 729.999 260.001 727.999 c 0
 265.001 725.999 273.001 724.999 293.001 724.999 c 0
 299.164 724.731 303.963 724.607 307.763 724.607 c 0
 318.145 724.607 321.072 725.535 324 726.999 c 0
 327 728.999 332 730.999 337 730.999 c 0
 341 730.999 350 728.999 356 726.999 c 0
 365 723.999 369 722.999 382 723.999 c 0
 390 724.999 398 725.999 401 725.999 c 0
 403 725.999 409 724.999 414 723.999 c 0
 419 722.999 424 723.999 427 724.999 c 0
 433 726.999 433 726.999 436 722.999 c 0
 438 719.999 441 717.999 443 717.999 c 0
 444 717.999 448 716.999 450 714.999 c 0
 453 712.999 456 710.999 457 710.999 c 0
 459 710.999 463 707.999 466 704.999 c 0
 469 700.999 473 696.999 475 694.999 c 0
 477 692.999 479 687.999 479 681.999 c 2
 480 676.999 479 668.999 478 665.999 c 0
 477 661.999 477 657.999 479 653.999 c 1
 479.707 651.171 480.414 646.843 480.414 642.429 c 0
 480.414 640.601 480.293 638.758 480 637 c 0
 480 632 478 627 477 626 c 0
 476 625 474 620 473 616 c 0
 472 611 470 606 469 604 c 1
 467 603 466 599 466 597 c 0
 466 595 464 591 462 589 c 0
 460 586 458 582 458 574 c 1
 457 568 456 561 454 558 c 0
 453 556 451 549 450 543 c 0
 449 538 448 531 447 528 c 1
 447 526 444 522 442 520 c 0
 440 517 438 514 438 513 c 0
 438 511 436 508 434 505 c 0
 433 503 430 498 429 494 c 0
 428 490 425 484 422 481 c 2
 420 477 416 473 414 470 c 0
 412 467 409 460 408 454 c 0
 407 449 405 443 404 441 c 0
 403 439 403 436 403 434 c 0
 403 432 401 429 398 427 c 1
 395 423 394 421 395 417 c 1
 395 413 395 411 392 408 c 0
 390 406 387 401 386 397 c 2
 384 394 383 389 382 387 c 1
 382 385 379 381 377 379 c 0
 374 376 373 373 373 369 c 0
 373 365 370 357 366 349 c 0
 363 342 358 332 356 327 c 0
 353 321 350 314 348 310 c 0
 346 307 345 303 345 301 c 0
 345 300 343 297 341 294 c 0
 339 292 338 287 338 284 c 0
 338 280 337 275 335 272 c 0
 334 270 332 265 332 261 c 1
 331 257 329 252 327 250 c 0
 325 247 324 243 324 240 c 0
 324 238 321 230 318 223 c 0
 316 216 311 208 309 205 c 1
 306 203 304 199 304 197 c 0
 304 195 303 192 302 191 c 1
 300 190 296 183 292 175 c 0
 288 167 285 160 283 159 c 1
 282 158 281 156 281 154 c 0
 281 152 280 148 279 147 c 0
 277 145 276 141 276 139 c 0
 276 137 274 133 272 131 c 0
 269 127 268 123 268 114 c 0
 268 108 267 101 266 99 c 0
 265 97 264 92 263 88 c 1
 263 84 261 79 260 77 c 0
 258 74 256 67 255 60 c 0
 254 54 251 45 250 42 c 0
 248 38 246 34 246 33 c 0
 246 31 244 27 242 24 c 0
 237 19 237 19 219 19 c 2
 195 19 l 1
 174 19 l 2
 166 19 158 20 156 21 c 1
 155 22 152 25 150 29 c 1
 146 34 146 37 147 46 c 0
 147 52 149 60 150 65 c 1
 152 69 155 75 158 77 c 1
 160 80 162 84 162 86 c 0
 162 87 163 90 165 92 c 1
 166 94 167 99 167 103 c 0
 167 110 168 112 174 117 c 0
 180 123 181 125 181 131 c 0
 181 135 182 139 184 140 c 1
 186 142 187 144 186 147 c 1
 186 150 187 152 190 155 c 1
 194 157 195 160 195 163 c 0
 195 166 197 170 199 173 c 0
 201 175 203 180 204 183 c 0
 205 186 207 191 208 195 c 0
 209 198 211 204 213 207 c 0
 215 211 216 215 216 216 c 0
 216 217 220 225 224 234 c 0
 229 243 233 254 234 259 c 0
 235 264 236 270 237 272 c 1
 237 275 240 279 242 281 c 0
 244 283 246 286 246 288 c 0
 246 290 248 294 249 297 c 1
 251 300 253 306 253 309 c 1
 254 312 256 319 258 324 c 0
 260 329 264 338 267 342 c 0
 270 347 273 352 273 353 c 0
 273 355 275 361 279 368 c 0
 282 375 286 381 287 382 c 0
 288 383 289 387 289 391 c 0
 289 394 290 399 291 401 c 1
 293 403 294 406 294 408 c 0
 294 410 295 413 297 415 c 0
 299 417 301 420 301 423 c 1
 302 425 304 433 306 439 c 0
 308 445 311 452 312 455 c 0
 313 457 315 462 315 464 c 1
 316 467 318 474 321 479 c 2
 323 485 327 492 329 496 c 0
 332 500 335 506 336 510 c 0
 337 514 339 519 341 521 c 0
 343 524 345 529 347 534 c 0
 349 538 352 544 355 547 c 0
 359 550 361 554 361 557 c 0
 361 560 362 565 364 569 c 0
 366 572 369 580 373 586 c 0
 376 591 378 599 378 602 c 0
 378 606 379 608 382 610 c 0
 386 612 387 614 387 622 c 0
 387 627 386 633 384 637 c 0
 383 640 381 643 379 643 c 0
 378 643 372 645 367 648 c 0
 361 651 356 653 355 653 c 0
 353 653 350 651 347 649 c 0
 342 646 340 645 334 646 c 0
 330 646 322 648 317 650 c 0
 312 652 304 653 298 653 c 0
 292 653 281 655 274 657 c 0
 267 659 259 660 256 660 c 0
 253 660 250 659 247 656 c 0
 244 652 242 651 237 652 c 0
 234 653 229 655 226 656 c 0
 222 658 213 659 186 659 c 0
 166 660 149 660 148 661 c 1
 148 661 140 661 131 660 c 0
 118 659 114 659 108 662 c 0
 104 664 97 666 93 666 c 0
 89 666 84 667 80 668 c 1
 77 670 72 671 71 671 c 0
 69 671 66 673 64 675 c 1
 63 678 60 680 57 681 c 1
 55 681 53 683 52 684 c 1
 52 686 51 691 50 696 c 1
 50 710 l 1
 51 713 54 718 58 722 c 2
 61 726 67 730 70 733 c 1
 74 735 79 737 83 738 c 1
EndSplineSet
Validated: 33
EndChar

StartChar: uni0038
Encoding: 56 56 25
Width: 579
GlyphClass: 2
Flags: W
LayerCount: 2
Fore
SplineSet
286 357 m 1
 285 358 280 360 277 360 c 0
 275.828 360.293 274.57 360.414 273.328 360.414 c 0
 270.328 360.414 267.414 359.707 266 359 c 0
 264 358 254 358 244 357 c 2
 222 357 l 1
 221 356 216 354 212 351 c 1
 208 347 202 344 195 342 c 0
 188 341 183 338 179 334 c 1
 175 331 170 327 167 326 c 1
 164 324 161 321 160 320 c 1
 160 318 159 315 160 314 c 1
 160 314 159 311 156 309 c 1
 154 306 151 302 149 300 c 1
 148 297 147 293 147 290 c 0
 147 288 144 280 140 273 c 0
 134 264 132 258 132 251 c 1
 131 244 130 240 127 238 c 1
 125 235 124 232 124 223 c 0
 124 213 125 209 128 204 c 0
 131 199 133 194 134 185 c 0
 134 178 136 171 138 168 c 1
 139 164 140 160 139 155 c 1
 139 150 139 146 142 141 c 0
 144 138 145 132 145 129 c 0
 145 124 147 121 152 116 c 0
 155 113 162 108 167 106 c 0
 172 104 179 99 184 95 c 0
 188 91 195 86 200 84 c 2
 204 81 209 79 211 79 c 0
 212 79 216 77 219 74 c 1
 223 72 227 70 231 70 c 0
 234 70 239 69 241 68 c 0
 245 66 255 65 280 65 c 0
 289.5 64.5 300 64.25 309.125 64.25 c 0
 318.25 64.25 326 64.5 330 65 c 0
 342 65 347 66 350 69 c 1
 352 70 355 72 357 72 c 0
 358 72 362 73 364 75 c 0
 367 77 370 79 371 79 c 0
 372 79 376 81 378 83 c 1
 389 90 l 1
 392 91 400 98 406 105 c 2
 413 111 421 121 423 125 c 0
 426 130 430 137 432 141 c 0
 434 145 436 152 437 156 c 0
 438 160 439 169 440 174 c 1
 440 180 442 187 444 190 c 1
 445.464 193.66 446.392 196.784 446.392 204.08 c 0
 446.392 206.751 446.268 209.98 446 214 c 0
 446 224 445 236 444 240 c 0
 443 243 441 251 440 255 c 1
 440 260 438 267 436 271 c 0
 434 275 432 280 431 283 c 1
 429 285 427 289 426 291 c 0
 425 294 423 297 422 299 c 2
 416 311 l 2
 413 316 410 320 408 321 c 1
 405 321 402 321 400 320 c 1
 398 320 396 320 394 323 c 2
 386 331 l 1
 382 333 377 335 374 335 c 0
 370 335 368 337 366 339 c 0
 364 342 362 343 351 344 c 0
 342 344 335 345 331 348 c 0
 327 350 322 351 320 351 c 0
 318 351 313 352 309 354 c 0
 305 356 300 356 296 356 c 1
 292 355 288 356 286 357 c 1
297 700 m 0
 294 701 290 702 289 702 c 0
 287 702 286 702 285 701 c 1
 285 701 281 700 277 700 c 2
 274 699 266 698 261 697 c 0
 256 696 246 695 238 694 c 0
 230 694 221 692 214 689 c 0
 207 686 199 682 194 679 c 0
 190 676 182 669 176 664 c 1
 171 658 165 651 164 647 c 1
 162 644 159 640 158 639 c 1
 156 638 154 636 153 633 c 0
 152 631 149 624 146 617 c 0
 143 610 140 601 139 595 c 0
 138 590 136 584 134 581 c 0
 131 577 131 575 132 567 c 0
 133 562 135 557 136 556 c 0
 139 553 140 551 139 545 c 0
 138 539 139 536 143 528 c 0
 145 523 148 518 150 516 c 0
 151 515 152 511 152 508 c 0
 152 505 154 501 157 497 c 0
 160 494 164 489 167 486 c 0
 169 483 173 477 174 473 c 0
 175 469 176 465 177 464 c 0
 178 463 182 461 186 460 c 0
 190 459 195 457 197 455 c 0
 199 453 201 450 202 448 c 0
 203 445 206 443 215 441 c 0
 222 439 228 437 230 437 c 0
 231 437 236 436 241 434 c 0
 246 432 258 430 272 428 c 0
 284 427 300 426 307 426 c 0
 315 425 322 426 324 428 c 1
 327 429 335 432 344 434 c 0
 354 437 360 439 364 443 c 0
 367 446 371 451 373 454 c 1
 374 457 378 462 381 464 c 0
 384 467 390 473 393 477 c 0
 397 482 401 489 403 493 c 0
 405 498 410 504 413 508 c 1
 417 512 419 516 419 519 c 0
 419 522 421 526 423 529 c 0
 426 533 426 535 426 567 c 0
 425 597 424 601 421 605 c 0
 419 608 418 611 419 612 c 1
 419 613 415 623 410 634 c 0
 404 645 397 658 393 663 c 0
 389 667 384 672 381 674 c 0
 379 675 374 679 371 682 c 0
 368 686 364 688 362 688 c 0
 361 688 357 690 354 692 c 0
 350 695 347 696 340 695 c 0
 335 694 325 695 317 695 c 1
 310 696 301 698 297 700 c 0
324 761 m 0
 324.5 761.5 325.499 761.749 326.624 761.749 c 0
 327.749 761.749 328.999 761.499 329.999 760.999 c 1
 332.999 760.999 339.999 759.999 344.999 758.999 c 0
 350.999 757.999 357.999 755.999 361.999 753.999 c 0
 364.999 752.999 371.999 751.999 375.999 751.999 c 0
 380.999 751.999 386.979 748.953 397.999 743.999 c 0
 406.982 739.961 413.999 734.999 416.999 730.999 c 0
 419.999 726.999 422.999 724.999 425.999 724.999 c 0
 428.999 724.999 431.999 723.999 433.999 721.999 c 0
 435.999 719.999 438.999 717.999 440.999 717.999 c 0
 442.999 717.999 446.999 714.999 450.999 710.999 c 0
 453.999 707.999 459.999 702.999 463.999 700.999 c 0
 466.999 699.999 473.999 694.999 477.999 690.999 c 0
 481.999 686.999 485.999 681.999 485.999 680.999 c 0
 485.999 678.999 486.999 675.999 488.999 673.999 c 0
 490.999 671.999 493.999 665.999 494.999 659.999 c 2
 496.999 654.999 497.999 647.999 497.999 643.999 c 0
 497.999 638.999 498.999 635.999 501.999 631.999 c 1
 504.999 629.999 506.999 625.999 506.999 623.999 c 0
 506.999 622.999 509.999 614.999 512.999 607.999 c 0
 518.999 594.999 518.999 593.999 517.999 583.999 c 0
 517.999 577.999 516.999 572.999 516.999 571.999 c 1
 517.999 570.999 517.999 565.999 517.999 560.999 c 1
 518.999 554.999 517.999 550.999 515.999 547.999 c 0
 513.999 545.999 511.999 540.999 511.999 535.999 c 0
 511.999 530.999 510.999 526.999 507.999 522.999 c 0
 504.999 518.999 503.999 513.999 503.999 511.999 c 0
 503.999 509.999 501.999 504.999 500.999 500.999 c 1
 498.999 496.999 490.999 486.999 480.999 476.999 c 2
 457.999 453.999 l 2
 453.999 449.999 447.999 443.999 442.999 439.999 c 0
 438.999 436.999 433.999 433.999 432.999 433.999 c 0
 431.999 433.999 424.999 427.999 417.999 419.999 c 0
 406.999 408.999 404.999 405.999 404.999 400.999 c 0
 404.999 397.999 406.999 392.999 408.999 388.999 c 0
 411.999 383.999 414.999 380.999 418.999 379.999 c 0
 421.999 378.999 425.999 376.999 427.999 374.999 c 0
 428.999 373.999 431.999 371.999 432.999 371.999 c 0
 433.999 371.999 436.999 368.999 439.999 365.999 c 1
 441.999 361.999 445.999 359.999 447.999 359.999 c 0
 449.999 359.999 454.999 357.999 457.999 354.999 c 0
 460.999 352.999 464.999 350.999 467.999 350.999 c 0
 469.999 350.999 471.999 349.999 472.999 348.999 c 0
 473.999 347.999 474.999 345.999 474.999 344.999 c 0
 474.999 342.999 480.999 336.999 486.999 329.999 c 0
 493.999 322.999 499.999 314.999 500.999 310.999 c 0
 501.999 307.999 502.999 302.999 502.999 301.999 c 1
 503.999 300.999 506.999 295.999 511.999 290.999 c 0
 517.999 284.999 521.999 278.999 522.999 273.999 c 0
 523.999 268.999 527.999 262.999 529.999 259.999 c 0
 533.416 256.582 534.965 255.033 534.965 251.842 c 0
 534.965 250.363 534.633 248.532 534 245.999 c 0
 533 241.999 533 228.999 533 217.999 c 0
 531.545 201.991 534.393 192.729 534.393 190.746 c 0
 534.393 188.784 533.464 186.928 532 184 c 0
 530 181 528 174 526 161 c 0
 525 150 523 141 522 140 c 1
 520 139 519 136 519 133 c 0
 519 131 518 127 516 125 c 1
 514 124 512 121 512 119 c 0
 512 117 510 111 506 105 c 2
 503 98 498 92 496 90 c 0
 495 89 493 85 493 83 c 0
 493 80 491 78 488 76 c 0
 485 74 481 70 479 67 c 1
 478 64 472 58 466 54 c 0
 461 50 455 47 454 47 c 0
 453 47 449 44 444 39 c 0
 440 35 435 31 434 31 c 0
 432 31 426 29 420 26 c 0
 413 23 407 21 402 21 c 0
 396 21 394 20 391 16 c 1
 387 12 386 12 376 12 c 0
 369 12 363 11 357 9 c 1
 350 5 346 5 333 5 c 0
 319 6 317 5 314 2 c 0
 311 -1 309 -1 276 -1 c 0
 242 -1 240 -1 236 3 c 0
 233 6 230 7 221 7 c 0
 216 7 209 8 207 9 c 0
 204 11 197 12 190 12 c 0
 180 12 177 13 174 16 c 0
 172 18 169 19 167 19 c 0
 164 19 160 21 157 24 c 0
 154 26 150 28 148 28 c 0
 146 28 140 30 134 32 c 1
 129 35 123 39 121 41 c 0
 119 44 117 47 117 49 c 0
 117 51 115 55 111 58 c 0
 108 61 102 66 98 69 c 0
 94 72 90 76 89 78 c 0
 88 80 87 84 86 86 c 1
 86 89 84 92 82 92 c 1
 80 93 76 97 73 104 c 0
 70 110 67 118 65 121 c 0
 63 124 60 131 58 136 c 0
 56 140 54 147 54 152 c 0
 54 156 52 163 50 168 c 0
 48 173 47 180 47 188 c 0
 47 195 46 202 45 204 c 0
 44 205.5 43.5 207 43.5 209 c 0
 43.5 211 44 213.5 45 217 c 0
 46 223 48 230 50 233 c 1
 52 238 53 243 53 252 c 1
 52 259 53 267 54 270 c 0
 55 273 59 278 63 281 c 0
 67 284 72 290 75 298 c 0
 78 304 81 312 81 315 c 1
 82 318 83 323 84 327 c 0
 85 331 87 334 88 334 c 1
 88 334 92 336 95 339 c 0
 98 342 102 344 103 344 c 0
 104 344 109 348 115 353 c 1
 120 359 128 364 131 366 c 0
 135 368 142 374 148 380 c 0
 154 387 158 393 158 395 c 0
 158 398 157 402 157 405 c 0
 157 408 154 413 150 418 c 0
 146 422 138 429 133 435 c 0
 128 440 119 446 115 448 c 0
 109 451 103 456 97 464 c 0
 92 470 87 476 87 477 c 0
 87 478 84 483 80 487 c 0
 76 492 73 496 73 498 c 0
 73 499 71 503 69 506 c 0
 64 511 64 512 66 518 c 0
 68 524 68 526 64 538 c 0
 60 549 59 554 60 562 c 0
 60 567 61 573 61 575 c 0
 61 577 61 585 60 594 c 0
 60 602 61 609 62 611 c 2
 62 612 64 617 65 621 c 1
 65 626 68 635 71 641 c 0
 74 648 77 654 77 657 c 0
 77 659 79 665 82 670 c 0
 85 675 94 686 102 694 c 0
 110 702 119 711 122 713 c 0
 127 717 130 718 136 718 c 0
 142 718 144 718 146 721 c 0
 148 724 150 725 152 725 c 0
 154 725 159 728 162 731 c 0
 166 734 175 740 183 743 c 2
 190 747 200 750 204 751 c 0
 208 752 218 752 227 752 c 0
 240 751 243 752 249 755 c 0
 256 759 260 759 290 759 c 0
 308 760 323 760 324 761 c 0
EndSplineSet
Validated: 33
EndChar

StartChar: uni0039
Encoding: 57 57 26
Width: 582
GlyphClass: 2
Flags: W
LayerCount: 2
Fore
SplineSet
314 678 m 1
 310 680 305.999 681.001 274.999 681.001 c 0
 239.999 681.001 239.999 681.001 222.999 672.001 c 0
 213.999 668.001 203.999 662.001 200.999 659.001 c 0
 197.999 656.001 192.999 652.001 189.999 651.001 c 1
 186.999 649.001 181.999 643.001 177.999 638.001 c 2
 169.999 626.001 l 1
 169.999 625.001 167.999 622.001 165.999 620.001 c 0
 162.999 617.001 160.999 614.001 160.999 611.001 c 0
 160.999 608.001 159.999 605.001 157.999 603.001 c 0
 154.999 601.001 153.999 598.001 153.999 593.001 c 0
 153.999 588.001 152.999 584.001 150.999 580.001 c 1
 147.999 577.001 146.999 573.001 146.999 568.001 c 0
 146.999 562.001 145.999 559.001 141.999 554.001 c 0
 138.943 549.417 137.639 547.751 137.639 543.208 c 0
 137.639 541.804 137.764 540.125 138 538 c 0
 139 532 140 525 140 522 c 2
 141 519 141 511 140 505 c 1
 140 499 140 493 141 491 c 1
 141 490 142 484 142 479 c 0
 142 473 143 468 145 465 c 0
 148 461 148 459 147 454 c 1
 145 449 146 447 148 444 c 0
 150 442 153 437 156 433 c 0
 159 428 161 423 161 415 c 0
 162 404 162 404 176 390 c 0
 184 383 192 374 193 372 c 0
 195 369 199 366 201 365 c 0
 203 364 207 360 209 357 c 0
 211 354 215 350 219 348 c 0
 222 347 230 346 235 346 c 0
 243 346 246 345 250 341 c 1
 254 338 256 337 262 338 c 0
 268 339 271 338 276 336 c 1
 281 333 285 332 298 332 c 0
 301 331.75 303.562 331.625 305.812 331.625 c 0
 312.562 331.625 316.5 332.75 321 335 c 0
 326 337 331 339 333 339 c 0
 335 339 340 340 344 342 c 2
 348 343 354 346 356 349 c 1
 359 351 363 354 366 355 c 0
 370 357 376 362 381 367 c 0
 385 371 391 376 393 377 c 0
 395 378 400 385 404 392 c 0
 408 399 411 408 411 411 c 0
 411 413 412 418 414 420 c 0
 416 422 418 426 419 428 c 1
 419 431 421 434 423 436 c 0
 425 439 426 446 426 497 c 0
 426 549 426 554 423 559 c 0
 421 562 420 566 420 568 c 0
 420 570 418 574 416 577 c 0
 414 580 412 587 412 592 c 1
 411 597 409 604 407 606 c 0
 405 609 404 613 404 615 c 0
 404 617 402 622 399 626 c 0
 396 630 390 637 385 641 c 0
 381 645 375 651 372 655 c 0
 369 658 365 660 362 660 c 0
 360 660 354 663 349 667 c 0
 341 674 339 674 329 674 c 0
 321 674 317 675 314 678 c 1
218.999 748.001 m 0
 225.909 751.456 228.044 752.523 237.611 752.523 c 0
 241.89 752.523 247.655 752.31 255.999 752.001 c 0
 273.999 752.001 285.999 750.001 289.999 749.001 c 1
 293.999 747.001 298.999 746.001 300.999 746.001 c 0
 302.999 746.001 306.999 748.001 308.999 750.001 c 0
 311.999 752.001 315.999 753.001 317.999 753.001 c 0
 319.999 753.001 324.999 751.001 327.999 749.001 c 0
 331.999 747.001 335.999 745.001 338.999 745.001 c 0
 341.999 745.001 347.999 743.001 352.999 740.001 c 2
 358.999 738.001 365.999 733.001 368.999 730.001 c 0
 371.999 726.001 375.999 723.001 376.999 723.001 c 0
 377.999 723.001 384.999 722.001 390.999 720.001 c 0
 397.999 718.001 407.999 714.001 413.999 711.001 c 0
 419.999 708.001 425.999 706.001 425.999 706.001 c 1
 426.999 706.001 432.999 701.001 439.999 695.001 c 0
 446.999 689.001 453.999 683.001 455.999 682.001 c 1
 457.999 682.001 464.999 675.001 469.999 668.001 c 0
 475.999 660.001 480.999 653.001 481.999 653.001 c 1
 483.999 652.001 484.999 648.001 484.999 645.001 c 0
 484.999 641.001 486.999 634.001 489.999 629.001 c 0
 492.999 623.001 495.999 616.001 497.999 613.001 c 0
 499.999 609.001 501.999 606.001 502.999 604.001 c 2
 503.999 603.001 505.999 598.001 506.999 594.001 c 0
 507.999 588.001 507.999 584.001 505.999 577.001 c 0
 504.999 572.001 503.999 567.001 503.999 565.001 c 0
 503.999 563.001 505.999 557.001 509.999 552.001 c 1
 512.999 546.001 516.999 540.001 517.999 537.001 c 1
 519.999 535.001 521.999 531.001 521.999 528.001 c 0
 521.999 524.001 521.999 521.001 522.999 521.001 c 1
 523.999 520.001 524.999 516.001 524.999 511.001 c 0
 524.999 505.001 525.999 501.001 528.999 498.001 c 1
 531.999 493.001 532.999 490.001 533.999 472.001 c 2
 533.999 442.001 l 1
 532.999 436.001 532.999 432.001 534.999 429.001 c 1
 535.499 427.001 535.749 425.501 535.749 424.126 c 0
 535.749 422.751 535.499 421.501 534.999 420.001 c 0
 533.999 417.001 532.999 396.001 532.999 372.001 c 0
 531.999 349.001 531.999 325.001 530.999 319.001 c 2
 530.999 314.001 529.999 307.001 528.999 304.001 c 0
 527.999 300.001 526.999 294.001 526.999 290.001 c 0
 526.999 286.001 527.999 279.001 528.999 274.001 c 0
 529.999 267.001 529.999 264.001 527.999 260.001 c 0
 525.999 257.001 524.999 252.001 524.999 248.001 c 0
 524.999 245.001 522.999 238.001 519.999 233.001 c 1
 516.999 225.001 515.999 223.001 516.999 215.001 c 0
 517.999 209.001 516.999 206.001 514.999 202.001 c 0
 513.999 200.001 511.999 195.001 511.999 191.001 c 0
 511.999 186.001 511.999 184.001 507.999 182.001 c 1
 505.999 180.001 503.999 177.001 503.999 175.001 c 0
 503.999 173.001 501.999 170.001 499.999 167.001 c 0
 497.999 165.001 496.999 160.001 496.999 157.001 c 0
 496.999 153.001 493.999 147.001 489.999 139.001 c 0
 485.999 133.001 482.999 126.001 482.999 124.001 c 0
 482.999 123.001 481.999 121.001 480.999 120.001 c 0
 479.999 119.001 476.999 115.001 474.999 110.001 c 0
 472.999 104.001 469.999 98.001 469.999 95.001 c 1
 468.999 91.001 464.999 87.001 457.999 81.001 c 0
 451.999 77.001 443.999 69.001 438.999 64.001 c 0
 434.999 59.001 427.999 52.001 423.999 48.001 c 0
 417.999 42.001 414.999 40.001 409.999 40.001 c 0
 405.999 40.001 401.999 39.001 397.999 35.001 c 0
 394.999 32.001 386.999 27.001 379.999 22.001 c 0
 369.999 16.001 365.999 14.001 359.999 14.001 c 0
 353.999 14.001 351.999 13.001 348.999 9.00098 c 0
 344.999 3.00098 344.999 3.00098 325.999 4.00098 c 0
 308.993 4.89648 304.999 5.00098 301.999 3.00098 c 0
 299.999 1.00098 295.999 0.000976562 293.999 0.000976562 c 0
 290.999 0.000976562 284.999 1.00098 279.999 3.00098 c 0
 271.999 6.00098 265.999 7.00098 258.999 6.00098 c 0
 249.999 5.00098 246.999 6.00098 242.999 9.00098 c 0
 238.999 12.001 234.999 13.001 217.999 13.001 c 0
 203.999 14.001 195.999 15.001 193.999 17.001 c 1
 191.999 18.001 188.999 19.001 186.999 19.001 c 0
 184.999 19.001 179.999 21.001 175.999 24.001 c 0
 171.999 27.001 166.999 30.001 164.999 32.001 c 0
 161.999 34.001 154.999 35.001 145.999 36.001 c 0
 130.999 37.001 130.999 37.001 120.999 47.001 c 0
 114.999 52.001 108.999 60.001 105.999 66.001 c 0
 103.999 71.001 101.999 77.001 101.999 79.001 c 0
 101.999 80.001 99.999 83.001 97.999 85.001 c 0
 95.999 87.001 94.999 90.001 94.999 92.001 c 0
 94.999 93.001 91.999 98.001 88.999 102.001 c 1
 84.999 106.001 81.999 112.001 80.999 116.001 c 1
 80.999 120.001 78.999 123.001 77.999 125.001 c 1
 75.999 126.001 74.999 129.001 74.999 131.001 c 0
 74.999 133.001 72.999 138.001 70.999 142.001 c 1
 66.999 147.001 66.999 150.001 66.999 162.001 c 0
 67.999 172.001 68.999 176.001 71.999 181.001 c 0
 73.999 185.001 76.999 188.001 78.999 189.001 c 1
 81.999 189.001 88.999 190.001 95.999 191.001 c 0
 103.999 192.001 109.999 192.001 112.999 191.001 c 0
 115.999 190.001 119.999 190.001 122.999 190.001 c 0
 125.999 190.001 130.999 188.001 132.999 187.001 c 0
 134.999 186.001 138.999 184.001 141.999 184.001 c 0
 146.999 183.001 148.999 182.001 153.999 176.001 c 0
 156.999 172.001 159.999 166.001 160.999 163.001 c 1
 160.999 161.001 162.999 157.001 163.999 154.001 c 1
 165.999 151.001 166.999 148.001 166.999 147.001 c 0
 166.999 145.001 168.999 143.001 170.999 140.001 c 0
 172.999 138.001 175.999 134.001 175.999 131.001 c 1
 176.999 128.001 179.999 122.001 181.999 118.001 c 1
 184.999 115.001 192.999 105.001 199.999 98.001 c 0
 208.999 89.001 214.999 84.001 217.999 84.001 c 0
 219.999 84.001 223.999 83.001 227.999 81.001 c 0
 232.999 79.001 241.999 78.001 284.999 78.001 c 0
 335.999 78.001 335.999 78.001 345.999 84.001 c 0
 350.999 87.001 356.999 92.001 359.999 95.001 c 0
 362.999 98.001 366.999 100.001 370.999 100.001 c 0
 375.999 101.001 376.999 102.001 377.999 108.001 c 1
 379.999 113.001 382.999 118.001 392.999 127.001 c 0
 399.999 134.001 405.999 140.001 405.999 142.001 c 0
 405.999 143.001 408.999 149.001 412.999 155.001 c 0
 415.999 161.001 419.999 167.001 419.999 168.001 c 0
 419.999 170.001 420.999 173.001 421.999 175.001 c 1
 423.999 177.001 424.999 181.001 424.999 185.001 c 0
 424.999 189.001 425.999 193.001 427.999 196.001 c 0
 430.999 200.001 431.999 204.001 432.999 214.001 c 0
 432.999 223.001 433.999 227.001 436.999 230.001 c 0
 439.999 234.001 439.999 236.001 438.999 253.001 c 2
 438.999 274.001 l 2
 438.999 275.001 438.999 288.001 439.999 303.001 c 0
 440.999 323.001 439.999 330.001 438.999 332.001 c 1
 436.999 334.001 431.999 335.001 426.999 336.001 c 0
 418.999 337.001 418.999 337.001 404.999 322.001 c 0
 395.999 312.001 389.999 307.001 385.999 306.001 c 1
 382.999 306.001 377.999 303.001 374.999 300.001 c 0
 370.999 297.001 365.999 294.001 362.999 293.001 c 0
 358.999 292.001 353.999 291.001 349.999 290.001 c 0
 346.999 289.001 341.999 287.001 338.999 285.001 c 0
 335.999 283.001 331.999 281.001 329.999 281.001 c 0
 327.999 281.001 321.999 279.001 317.999 277.001 c 0
 311.999 274.001 305.999 273.001 297.999 273.001 c 0
 288.999 273.001 284.999 272.001 280.999 269.001 c 0
 276.999 266.001 273.999 265.001 267.999 266.001 c 0
 263.999 267.001 257.999 268.001 253.999 270.001 c 1
 249.999 271.001 237.999 273.001 227.999 274.001 c 0
 214.999 275.001 207.999 276.001 204.999 278.001 c 0
 201.999 280.001 198.999 281.001 196.999 281.001 c 0
 194.999 281.001 187.999 283.001 181.999 286.001 c 0
 174.999 289.001 169.999 292.001 169.999 293.001 c 0
 169.999 294.001 167.999 296.001 165.999 298.001 c 0
 163.999 300.001 160.999 302.001 159.999 302.001 c 2
 152.999 302.001 l 2
 150.999 302.001 145.999 305.001 142.999 308.001 c 0
 138.999 311.001 132.999 314.001 129.999 315.001 c 1
 126.999 315.001 121.999 317.001 120.999 319.001 c 1
 118.999 321.001 116.999 325.001 115.999 328.001 c 1
 115.999 334.001 113.999 336.001 107.999 340.001 c 0
 103.999 343.001 98.999 349.001 97.999 352.001 c 2
 88.999 370.001 l 2
 85.999 375.001 80.999 382.001 78.999 385.001 c 0
 75.999 388.001 73.999 392.001 73.999 393.001 c 0
 73.999 395.001 71.999 397.001 70.999 399.001 c 1
 68.999 401.001 67.999 406.001 67.999 410.001 c 0
 67.999 414.001 66.999 420.001 64.999 424.001 c 0
 62.999 428.001 60.999 432.001 60.999 434.001 c 0
 60.999 435.001 59.999 439.001 56.999 442.001 c 0
 53.999 446.001 52.999 449.001 52.999 458.001 c 0
 52.999 465.001 52.999 475.001 51.999 482.001 c 0
 50.999 488.001 49.999 495.001 48.999 496.001 c 0
 47.999 497.001 46.999 503.001 46.999 509.001 c 2
 46.999 528.001 l 2
 46.999 533.001 47.999 540.001 49.999 542.001 c 1
 50.999 545.001 52.999 552.001 52.999 559.001 c 1
 53.999 565.001 54.999 573.001 56.999 576.001 c 1
 57.999 579.001 60.999 586.001 61.999 591.001 c 2
 63.999 596.001 64.999 602.001 65.999 606.001 c 1
 65.999 609.001 66.999 615.001 68.999 618.001 c 0
 70.999 621.001 73.999 630.001 75.999 637.001 c 0
 78.999 646.001 81.999 652.001 83.999 653.001 c 0
 85.999 654.001 89.999 659.001 92.999 663.001 c 0
 95.999 668.001 97.999 673.001 97.999 674.001 c 0
 97.999 676.001 100.999 681.001 104.999 686.001 c 0
 108.999 691.001 113.999 696.001 115.999 698.001 c 0
 117.999 701.001 121.999 703.001 123.999 703.001 c 1
 126.999 704.001 131.999 706.001 135.999 707.001 c 1
 138.999 709.001 142.999 712.001 144.999 715.001 c 1
 145.999 718.001 151.999 722.001 156.999 725.001 c 0
 161.999 728.001 170.999 732.001 175.999 734.001 c 0
 181.999 736.001 189.999 738.001 193.999 738.001 c 0
 197.999 738.001 203.999 739.001 205.999 740.001 c 0
 207.999 741.001 213.999 745.001 218.999 748.001 c 0
EndSplineSet
Validated: 33
EndChar

StartChar: uni003A
Encoding: 58 58 27
Width: 376
GlyphClass: 2
Flags: W
LayerCount: 2
Fore
SplineSet
170 130 m 0
 172 132 176 133 185 133 c 0
 192 133 199 132 201 131 c 1
 203 131 208 129 213 129 c 1
 219 128 225 127 227 125 c 0
 230 123 233 118 234 114 c 0
 235 110 237 103 239 100 c 0
 241 96 241 89 241 77 c 0
 241 67 240 59 239 56 c 1
 237 54 235 50 233 49 c 1
 232 48 229 43 227 39 c 0
 225 35 222 31 220 30 c 0
 218 29 205 27 191 27 c 0
 169 27 164 27 158 30 c 2
 154 31 148 36 145 39 c 0
 141 44 139 47 140 50 c 1
 140 52 141 61 142 69 c 0
 143 79 142 87 141 90 c 0
 140 93 140 98 140 102 c 1
 141 106 144 111 149 116 c 0
 154 121 159 125 162 126 c 1
 165 126 168 128 170 130 c 0
181 513 m 0
 197 513 212 514 213 514 c 0
 214 514 219 512 224 508 c 0
 233 502 234 502 234 493 c 1
 235 487 237 482 239 478 c 1
 241.343 475.071 242.313 473.515 242.313 471.521 c 0
 242.313 470.112 241.828 468.485 241 466 c 0
 240 462 238 458 237 457 c 0
 235 455 234 451 235 443 c 0
 235 432 234 430 230 424 c 0
 227 420 223 417 218 416 c 1
 213 414 202 414 188 414 c 0
 168 415 166 415 162 419 c 0
 160 421 155 424 151 424 c 1
 148 425 144 427 143 428 c 1
 142 430 141 436 141 443 c 0
 141 453 140 457 138 461 c 0
 136 464 134 469 134 473 c 0
 134 478 135 481 138 484 c 0
 140 486 142 490 142 492 c 0
 142 494 142 498 143 500 c 2
 143 502 145 506 147 508 c 0
 152 513 152 513 181 513 c 0
EndSplineSet
Validated: 33
EndChar

StartChar: uni003B
Encoding: 59 59 28
Width: 345
GlyphClass: 2
Flags: W
LayerCount: 2
Fore
SplineSet
202 117 m 1
 208 119 213 120 224 120 c 0
 232 120 240 119 241 118 c 1
 242 118 243 114 243 111 c 0
 243 107 241 100 239 96 c 1
 238 92 235 84 235 78 c 0
 234 69 232 66 228 61 c 0
 224 57 222 53 222 53 c 1
 222 52 219 47 215 43 c 0
 209 36 208 36 208 22 c 0
 208 9 208 9 201 2 c 0
 195 -4 194 -6 194 -11 c 0
 194 -14 192 -19 191 -20 c 1
 190 -22 188 -26 188 -28 c 0
 188 -31 187 -35 185 -37 c 0
 183 -39 181 -42 181 -44 c 0
 181 -45 179 -48 177 -50 c 0
 174 -53 172 -56 172 -60 c 0
 172 -64 171 -70 170 -75 c 1
 168 -80 164 -85 160 -88 c 1
 156 -92 153 -95 153 -98 c 0
 153 -100 152 -103 150 -105 c 0
 148 -107 145 -110 143 -111 c 0
 141 -112 135 -113 130 -113 c 0
 124 -113 119 -112 117 -110 c 1
 115 -109 112 -107 110 -107 c 0
 108 -107 104 -105 101 -102 c 0
 99 -99 97 -95 97 -94 c 0
 97 -92 98 -89 100 -86 c 0
 101 -84 102 -80 102 -77 c 0
 102 -75 103 -71 105 -68 c 1
 106 -65 107 -61 107 -58 c 0
 107 -56 109 -48 111 -41 c 0
 113 -33 116 -22 117 -15 c 0
 119 -8 121 4 122 12 c 0
 124 26 124 27 131 34 c 0
 137 40 138 41 137 48 c 0
 136 54 136 57 140 65 c 0
 143 70 144 76 144 81 c 0
 144 87 145 90 148 92 c 0
 150 93 151 96 151 99 c 0
 151 102 153 107 155 109 c 0
 158 113 159 113 176 113 c 0
 190 113 196 114 202 117 c 1
221 520 m 0
 224 525 225.999 526.999 229.999 526.999 c 0
 231.999 526.999 235.999 524.999 238.999 521.999 c 0
 241.999 518.999 243.999 514.999 243.999 512.999 c 0
 243.999 510.999 245.999 507.999 246.999 505.999 c 0
 250.223 499.553 251.36 494.938 251.36 492.173 c 0
 251.36 488.416 250.056 485.583 247 480.999 c 0
 243 473.999 243 471.999 244 463.999 c 0
 244 458.999 246 453.999 248 450.999 c 0
 250 446.999 250 444.999 248 437.999 c 0
 247 433.999 244 427.999 243 424.999 c 1
 241 421.999 235 416.999 229 412.999 c 0
 221 407.999 217 405.999 212 405.999 c 0
 208 405.999 201 406.999 196 408.999 c 0
 191 410.999 181 412.999 173 413.999 c 0
 159 414.999 159 414.999 154 422.999 c 0
 150.545 428.527 149.478 430.235 149.478 437.691 c 0
 149.478 441.026 149.691 445.511 150 452 c 0
 150.5 458 150.75 464.75 150.75 470.875 c 0
 150.75 477 150.5 482.5 150 486 c 0
 150 494 150 500 151 502 c 0
 153 505 154 506 159 505 c 0
 163 504 166 505 171 508 c 0
 176 512 180 513 187 513 c 2
 206 513 l 2
 216 513 216 513 221 520 c 0
EndSplineSet
Validated: 33
EndChar

StartChar: uni003C
Encoding: 60 60 29
Width: 754
GlyphClass: 2
Flags: W
LayerCount: 2
Fore
SplineSet
602 558 m 0
 609.5 560.25 614.75 561.374 620.281 561.374 c 0
 622.125 561.374 624 561.249 626 560.999 c 0
 631 560.999 636 558.999 637 557.999 c 0
 638 556.999 638 552.999 636 549.999 c 1
 635 546.999 634 541.999 634 538.999 c 0
 634 535.999 632 532.999 631 531.999 c 1
 629 530.999 627 526.999 626 522.999 c 1
 624 519.999 620 513.999 616 510.999 c 2
 612 506.999 606 503.999 602 502.999 c 1
 599 502.999 594 501.999 591 501.999 c 0
 588 501.999 581 499.999 576 496.999 c 0
 571 493.999 564 487.999 560 483.999 c 1
 557 479.999 553 475.999 553 474.999 c 0
 553 473.999 551 471.999 550 469.999 c 1
 548 467.999 544 466.999 539 466.999 c 0
 531 466.999 530 465.999 526 461.999 c 1
 523 456.999 522 455.999 515 456.999 c 0
 511 457.999 506 458.999 503 458.999 c 0
 500 458.999 497 457.999 497 455.999 c 1
 496 454.999 494 451.999 492 449.999 c 0
 489 446.999 486 445.999 480 445.999 c 0
 473 445.999 472 444.999 467 438.999 c 0
 464 434.999 460 431.999 458 431.999 c 0
 456 431.999 452 430.999 449 428.999 c 1
 446 427.999 441 425.999 438 425.999 c 1
 436 424.999 430 420.999 424 416.999 c 0
 419 412.999 414 408.999 413 408.999 c 0
 412 408.999 408 406.999 405 403.999 c 0
 401 400.999 397 398.999 395 398.999 c 0
 392 398.999 386 396.999 381 393.999 c 1
 376 391.999 369 389.999 366 389.999 c 0
 362 389.999 359 387.999 355 382.999 c 0
 349 376.999 347 375.999 341 375.999 c 0
 337 375.999 332 374.999 331 374.999 c 1
 329 373.999 327 370.999 325 367.999 c 1
 324 364.999 320 361.999 316 360.999 c 1
 313 358.999 310 356.999 309 354.999 c 1
 309 353.999 305 349.999 301 347.999 c 0
 294 342.999 292 341.999 279 341.999 c 0
 266 341.999 264 341.999 259 336.999 c 0
 256 334.999 251 330.999 248 328.999 c 1
 245 327.999 237 322.999 231 318.999 c 0
 224 313.999 217 310.999 216 310.999 c 0
 215 310.999 212 307.999 210 305.999 c 0
 207 302.999 202 298.999 199 297.999 c 0
 196 296.999 193 294.999 192 293.999 c 1
 192 292.999 191 290.999 191 287.999 c 0
 191 285.999 194 280.999 197 276.999 c 0
 200 271.999 203 268.999 204 268.999 c 0
 205 268.999 209 264.999 213 261.999 c 1
 219 255.999 222 254.999 227 254.999 c 0
 231 254.999 235 252.999 238 249.999 c 0
 241 246.999 244 245.999 248 245.999 c 0
 252 245.999 256 243.999 258 241.999 c 0
 260 239.999 264 238.999 266 238.999 c 0
 269 238.999 275 236.999 280 235.999 c 1
 285 233.999 290 230.999 291 229.999 c 1
 292 227.999 298 222.999 304 218.999 c 0
 311 213.999 319 209.999 322 208.999 c 1
 325 208.999 329 205.999 330 203.999 c 1
 333 200.999 335 199.999 340 199.999 c 0
 345 199.999 347 198.999 351 194.999 c 0
 353 191.999 356 189.999 358 189.999 c 0
 359 189.999 363 187.999 365 184.999 c 0
 368 181.999 370 180.999 375 181.999 c 0
 379 182.999 382 181.999 386 178.999 c 0
 389 176.999 392 174.999 393 174.999 c 0
 394 174.999 395 173.999 396 172.999 c 0
 397 171.999 401 168.999 404 166.999 c 0
 408 163.999 414 160.999 418 158.999 c 1
 422 157.999 426 155.999 427 155.999 c 0
 428 155.999 432 152.999 436 149.999 c 1
 440 145.999 444 143.999 448 143.999 c 0
 451 143.999 457 142.999 461 141.999 c 1
 465 139.999 470 137.999 471 135.999 c 1
 471 134.999 475 132.999 479 131.999 c 0
 482 130.999 490 126.999 495 122.999 c 0
 500 118.999 507 113.999 509 111.999 c 0
 511 108.999 518 104.999 524 101.999 c 0
 529 98.999 535 95.999 536 95.999 c 0
 537 95.999 542 93.999 546 89.999 c 1
 553 84.999 556 83.999 563 82.999 c 1
 569 82.999 574 81.999 577 79.999 c 0
 580 77.999 585 73.999 589 71.999 c 0
 593 69.999 599 67.999 604 65.999 c 0
 608 64.999 613 62.999 616 60.999 c 0
 618 58.999 623 56.999 627 55.999 c 0
 634 54.999 635 54.999 642 41.999 c 0
 647 33.999 653 24.999 656 20.999 c 0
 659 16.999 662 11.999 663 8.99902 c 1
 663 6.99902 663 1.99902 662 -2.00098 c 0
 661 -6.00098 658 -11.001 655 -13.001 c 0
 651.181 -16.0566 649.695 -17.3613 642.965 -17.3613 c 0
 640.885 -17.3613 638.305 -17.2363 635 -17 c 0
 627 -16 619 -15 617 -14 c 1
 616 -13 613 -9 611 -4 c 0
 609 1 606 3 604 3 c 0
 602 3 599 6 596 9 c 0
 593 12 588 15 585 17 c 1
 582 18 577 19 574 19 c 0
 570 19 564 22 556 27 c 0
 550 32 543 36 542 38 c 1
 541 39 537 40 531 40 c 0
 526 40 521 41 518 44 c 1
 515 45 511 47 508 48 c 0
 504 49 500 52 497 56 c 0
 495 59 488 66 483 71 c 0
 476 77 471 81 467 81 c 1
 463 82 458 82 455 82 c 0
 451 82 446 84 442 87 c 0
 439 90 434 93 433 94 c 2
 431 95 428 98 426 101 c 1
 425 104 420 109 415 112 c 0
 409 116 405 118 398 118 c 0
 389 118 388 118 381 125 c 0
 374 131 373 132 366 131 c 0
 359 130 357 130 353 133 c 0
 350 135 346 137 344 137 c 0
 342 137 337 140 332 144 c 0
 327 149 321 154 317 156 c 0
 314 158 310 159 308 159 c 1
 306 158 305 159 303 161 c 1
 302 163 298 167 295 168 c 0
 291 170 286 175 283 179 c 0
 278 187 278 187 266 186 c 0
 256 186 254 186 252 189 c 0
 251 191 247 194 244 196 c 1
 240 197 234 200 230 203 c 1
 225 205 219 207 215 207 c 0
 208 207 206 208 196 219 c 0
 189 225 183 230 182 230 c 0
 181 230 176 234 171 239 c 0
 166 244 160 248 158 249 c 1
 155 249 152 250 150 251 c 0
 148 252 142 255 137 258 c 0
 133 261 127 263 126 263 c 0
 125 263 120 267 116 271 c 0
 111 277 108 279 104 279 c 0
 101 279 97 281 96 282 c 0
 94 284 92 287 92 290 c 2
 91 293 92 297 93 300 c 1
 95 302 97 306 99 307 c 2
 101 309 107 312 113 314 c 0
 121 316 125 319 134 327 c 1
 139 333 145 337 146 337 c 0
 147 337 150 338 152 339 c 0
 155 341 161 342 165 343 c 0
 170 344 176 346 179 348 c 1
 182 349 188 352 193 353 c 2
 197 355 203 357 207 357 c 1
 210 358 216 361 219 364 c 0
 223 368 229 372 233 374 c 0
 236 376 242 378 245 378 c 1
 248 379 251 380 252 381 c 1
 252 382 257 385 261 387 c 0
 266 390 272 392 273 392 c 0
 274 392 281 397 287 403 c 0
 298 413 300 414 306 414 c 0
 310 414 317 416 323 418 c 0
 328 420 335 424 339 426 c 0
 343 429 346 432 346 434 c 1
 347 436 349 438 350 439 c 0
 351 440 358 443 364 445 c 1
 371 446 379 449 382 449 c 1
 386 450 392 452 396 454 c 0
 401 456 405 458 407 459 c 1
 408 460 413 462 418 465 c 1
 423 467 427 469 428 469 c 0
 429 469 434 472 439 475 c 0
 443 478 447 482 448 483 c 2
 454 487 l 2
 456 489 464 494 471 497 c 0
 478 500 486 503 489 503 c 1
 492 504 496 506 498 508 c 0
 499 509 505 512 509 514 c 1
 513 515 522 517 528 518 c 1
 538 518 539 519 543 525 c 0
 545 529 551 534 555 537 c 0
 560 541 564 545 565 548 c 0
 566 551 568 554 570 555 c 0
 572 556 576 556 581 555 c 0
 588 554 592 554 602 558 c 0
EndSplineSet
Validated: 33
EndChar

StartChar: uni003D
Encoding: 61 61 30
Width: 802
GlyphClass: 2
Flags: W
LayerCount: 2
Fore
SplineSet
229 223 m 1
 230 224 231.997 224.001 232.997 224.001 c 0
 234.997 224.001 237.997 222.001 240.997 220.001 c 0
 243.997 217.001 247.997 215.001 252.997 214.001 c 1
 259.997 214.001 263.997 214.001 271.997 218.001 c 0
 280.997 222.001 282.997 222.001 296.997 222.001 c 0
 306.997 221.001 314.997 220.001 317.997 218.001 c 0
 321.997 216.001 327.997 215.001 336.997 215.001 c 0
 345.997 215.001 350.997 216.001 352.997 218.001 c 0
 355.997 221.001 363.997 221.001 446.997 222.001 c 0
 496.997 222.001 539.997 223.001 542.997 223.001 c 0
 544.997 223.001 568.997 223.001 594.997 222.001 c 0
 621.997 222.001 645.997 223.001 648.997 223.001 c 1
 652.997 224.001 655.997 224.001 659.997 222.001 c 0
 661.997 221.001 666.997 220.001 668.997 220.001 c 1
 671.997 221.001 673.997 220.001 675.997 218.001 c 0
 676.997 217.001 679.997 216.001 682.997 216.001 c 0
 684.997 216.001 690.997 214.001 694.997 212.001 c 0
 697.997 210.001 702.997 207.001 703.997 206.001 c 0
 704.896 205.102 705.392 204.404 705.392 203.637 c 0
 705.392 202.697 704.649 201.652 702.998 200.001 c 2
 701.998 198.001 698.998 194.001 696.998 191.001 c 1
 695.998 188.001 691.998 183.001 688.998 180.001 c 1
 685.998 175.001 683.998 171.001 683.998 167.001 c 0
 683.998 161.001 682.998 159.001 677.998 155.001 c 0
 672.998 151.001 670.998 150.001 655.998 150.001 c 2
 608.998 150.001 l 1
 568.998 150.001 l 2
 563.998 150.001 553.998 150.001 547.998 151.001 c 1
 502.998 151.001 l 2
 484.998 150.001 467.998 149.001 465.998 149.001 c 2
 464.9 148.635 463.937 148.402 463.009 148.402 c 0
 461.401 148.402 459.901 149.099 457.999 151.001 c 1
 455.999 152.001 450.999 154.001 446.999 155.001 c 0
 441.999 156.001 438.999 155.001 435.999 153.001 c 0
 431.999 150.001 426.999 150.001 398.999 150.001 c 0
 380.999 151.001 364.999 151.001 362.999 151.001 c 0
 361.999 151.001 354.999 150.001 348.999 150.001 c 0
 337.999 149.001 335.999 149.001 332.999 152.001 c 0
 330.999 154.001 324.999 156.001 318.999 157.001 c 0
 311.999 158.001 308.999 157.001 302.999 154.001 c 0
 296.999 151.001 292.999 150.001 268.999 150.001 c 0
 253.999 150.001 240.999 151.001 239.999 151.001 c 1
 239.999 152.001 228.999 152.001 216.999 151.001 c 0
 202.999 149.001 193.999 149.001 189.999 151.001 c 1
 184.999 152.001 178.999 152.001 167.999 150.001 c 0
 161.556 148.829 156.828 148.344 153.414 148.344 c 0
 151 148.344 149.242 148.586 148 149 c 0
 146 150 139 151 133 151 c 0
 127 151 120 152 115 154 c 0
 111 156 105 160 102 163 c 0
 98.5449 167.146 97.4775 168.904 97.4775 171.245 c 0
 97.4775 172.292 97.6914 173.455 98 175 c 0
 99 179 100 186 100 192 c 0
 100 201 101 203 105 208 c 0
 107 211 113 215 117 217 c 1
 122 218 129 220 134 220 c 2
 140 221 145 220 147 219 c 0
 149 218 156 216 162 216 c 2
 171 214 173 214 176 217 c 0
 179 220 183 221 204 221 c 2
 229 223 l 1
145.997 440.001 m 1
 151.997 441.001 158.997 441.001 160.997 441.001 c 1
 163.997 440.001 174.997 440.001 185.997 439.001 c 2
 209.997 439.001 l 1
 242.997 439.001 l 2
 258.997 438.001 274.997 438.001 277.997 438.001 c 0
 280.997 438.001 318.997 439.001 362.997 439.001 c 0
 405.997 440.001 442.997 440.001 444.997 440.001 c 2
 564.997 440.001 l 2
 681.997 439.001 681.997 439.001 686.997 434.001 c 0
 689.997 431.001 691.997 426.001 691.997 424.001 c 0
 691.997 422.001 692.997 419.001 694.997 417.001 c 1
 695.997 415.001 696.997 412.001 696.997 410.001 c 0
 696.997 408.001 695.997 404.001 694.997 403.001 c 0
 692.997 401.001 691.997 398.001 691.997 396.001 c 0
 691.997 394.001 689.997 388.001 686.997 383.001 c 0
 682.997 376.001 680.997 374.001 675.997 374.001 c 1
 672.997 373.001 669.997 371.001 667.997 370.001 c 1
 666.997 369.001 664.997 368.001 661.997 368.001 c 1
 659.997 369.001 655.997 370.001 653.997 371.001 c 1
 651.997 373.001 647.997 374.001 644.997 374.001 c 0
 641.997 374.001 634.997 373.001 629.997 372.001 c 0
 620.997 370.001 617.997 370.001 609.997 373.001 c 0
 599.997 376.001 599.997 376.001 593.997 373.001 c 0
 588.997 370.001 587.997 370.001 583.997 372.001 c 0
 580.997 374.001 573.997 374.001 565.997 374.001 c 0
 558.997 374.001 549.997 373.001 545.997 372.001 c 0
 539.997 371.001 536.997 370.001 533.997 372.001 c 0
 532.997 373.001 519.997 373.001 506.997 374.001 c 2
 474.997 374.001 l 1
 435.997 374.001 l 2
 418.997 375.001 401.997 375.001 398.997 375.001 c 2
 397.497 375.501 387.997 375.751 373.747 375.751 c 0
 359.497 375.751 340.497 375.501 319.997 375.001 c 0
 250.997 375.001 245.997 375.001 240.997 372.001 c 0
 237.997 370.001 233.997 368.001 230.997 368.001 c 0
 228.997 368.001 225.997 369.001 224.997 370.001 c 0
 223.997 371.001 219.997 373.001 215.997 374.001 c 0
 209.997 376.001 206.997 376.001 204.997 375.001 c 0
 202.997 374.001 199.997 374.001 198.997 374.001 c 1
 196.997 375.001 192.997 373.001 187.997 371.001 c 0
 183.997 369.001 176.997 367.001 173.997 367.001 c 0
 170.997 367.001 165.997 368.001 162.997 370.001 c 0
 158.997 373.001 154.997 374.001 148.997 374.001 c 0
 143.997 374.001 137.997 373.001 135.997 371.001 c 1
 130.997 368.001 129.997 368.001 120.997 371.001 c 0
 115.997 373.001 109.997 375.001 108.997 375.001 c 1
 106.997 376.001 105.997 379.001 105.997 381.001 c 0
 105.997 383.001 104.997 387.001 102.997 389.001 c 1
 101.997 392.001 99.9971 397.001 98.9971 401.001 c 0
 98.6885 403.164 98.4746 404.754 98.4746 406.066 c 0
 98.4746 409.001 99.542 410.546 102.997 414.001 c 0
 107.997 419.001 108.997 421.001 107.997 425.001 c 0
 106.997 428.001 107.997 431.001 111.997 435.001 c 0
 115.997 440.001 116.997 441.001 124.997 440.001 c 2
 145.997 440.001 l 1
EndSplineSet
Validated: 33
EndChar

StartChar: uni003E
Encoding: 62 62 31
Width: 746
GlyphClass: 2
Flags: W
LayerCount: 2
Fore
SplineSet
107 571 m 0
 111 573 116 573 125 573 c 1
 132 572 139 571 141 569 c 1
 143 568 146 567 148 567 c 0
 149 567 152 564 155 561 c 0
 157 558 163 555 167 554 c 2
 171 552 177 550 179 549 c 0
 182 548 188 545 191 543 c 0
 194 541 202 538 208 536 c 0
 216 534 221 530 231 522 c 0
 241 513 245 510 251 509 c 0
 255 509 260 507 262 506 c 0
 264 505 269 503 273 503 c 0
 278 502 285 500 289 497 c 0
 293 495 297 491 298 489 c 0
 299 487 301 485 302 484 c 0
 303 483 307 482 311 481 c 0
 315 480 320 476 326 469 c 0
 330 464 335 460 337 460 c 0
 338 460 342 458 345 456 c 0
 349 453 350.994 452.076 363 453 c 0
 376 454 376 454 386 445 c 1
 391 439 400 433 407 430 c 0
 413 427 422 421 427 418 c 0
 432 415 438 412 441 412 c 0
 444 412 449 410 457 403 c 0
 463 397 468 393 469 393 c 0
 470 393 475 391 480 389 c 1
 485 386 490 383 491 382 c 1
 492 380 498 377 503 375 c 2
 508 372 514 370 515 370 c 0
 516 370 519 368 521 366 c 0
 523 363 526 361 527 361 c 0
 528 361 531 360 533 358 c 0
 536 356 539 354 541 354 c 0
 543 354 547 353 548 352 c 0
 550 350 555 349 559 349 c 0
 566 349 567 348 569 344 c 0
 572 339 573 339 579 340 c 0
 585 341 587 340 592 336 c 0
 595 333 600 328 604 326 c 2
 607 323 613 321 616 320 c 0
 620 319 623 316 625 313 c 1
 627 308 629 308 638 307 c 0
 643 307 648 306 648 305 c 0
 648 304 650 300 652 296 c 0
 655 292 656 288 656 287 c 0
 656 286 651 284 646 282 c 0
 640 279 636 276 634 273 c 0
 632 270 630 267 629 266 c 0
 628 265 624 264 621 263 c 0
 617 262 613 260 612 258 c 0
 611 256 606 252 601 248 c 0
 596 244 590 240 588 240 c 1
 585 239 580 236 577 233 c 0
 573 229 567 225 562 223 c 0
 557 221 550 219 546 218 c 1
 541 218 535 216 532 213 c 1
 528 211 522 207 517 205 c 2
 512 202 507 200 506 200 c 0
 504 200 500 196 495 192 c 0
 489 187 485 184 482 184 c 0
 479 184 472 181 465 178 c 0
 459 175 450 171 447 170 c 0
 443 169 440 167 439 165 c 0
 438 163 437 161 435 159 c 0
 433 156 431 156 425 157 c 0
 418 158 418 158 412 151 c 0
 407 145 403 143 394 139 c 0
 387 137 380 134 378 132 c 0
 376 130 372 128 370 127 c 0
 367 126 363 123 360 118 c 1
 355 112 353 110 348 110 c 1
 344 109 339 108 336 108 c 0
 333 108 330 107 328 104 c 0
 326 102 323 100 321 100 c 0
 319 100 315 97 312 93 c 0
 308 88 305 86 302 86 c 0
 299 86 295 83 291 80 c 1
 286 75 284 74 273 73 c 0
 261.008 71.9102 260 72 258 67 c 1
 256 64 255 61 254 61 c 2
 253 60 247 59 241 58 c 1
 235 58 228 56 225 55 c 1
 223 53 217 49 214 45 c 1
 208 40 206 38 200 38 c 0
 197 38 192 37 191 35 c 1
 189 34 184 32 179 30 c 1
 174 29 168 26 167 24 c 1
 166 23 162 21 159 20 c 0
 155 19 151 17 149 14 c 1
 146 12 143 10 140 10 c 1
 137 11 133 9 130 7 c 0
 127 5 122 1 118 -2 c 0
 113.857 -5.31348 111.088 -7.25488 107.417 -7.25488 c 0
 106.656 -7.25488 105.857 -7.17188 105 -7 c 1
 99 -7 98 -6 95 1 c 0
 92 6 91 13 90 18 c 1
 90 24 91 27 95 31 c 0
 97 33 100 38 101 41 c 0
 102 44 105 48 106 49 c 0
 107 50 112 52 116 52 c 1
 120 53 123 54 124 56 c 0
 125 58 127 61 127 62 c 1
 128 64 131 66 133 66 c 0
 135 66 140 68 142 70 c 0
 145 72 150 74 153 74 c 0
 156 74 160 75 161 75 c 0
 163 75 167 78 171 81 c 1
 175 86 178 87 183 87 c 0
 187 87 191 89 194 91 c 0
 197 94 202 97 206 99 c 0
 210 101 216 103 221 104 c 0
 227 105 231 107 238 114 c 0
 246 121 248 123 254 123 c 0
 260 123 263 124 267 127 c 1
 269 130 278 134 285 138 c 1
 293 141 301 144 303 144 c 0
 306 144 311 146 316 150 c 0
 320 153 324 156 326 156 c 0
 327 156 331 159 335 163 c 0
 341 168 345 170 352 172 c 0
 358 173 363 176 369 180 c 1
 374 185 380 188 389 190 c 0
 398 193 402 195 406 199 c 0
 409 202 415 206 418 208 c 0
 422 210 428 214 432 217 c 0
 436 220 440 223 442 223 c 0
 443 223 446 224 449 226 c 0
 451 228 455 230 456 230 c 0
 458 230 463 231 467 233 c 0
 470 235 475 237 477 237 c 0
 479 237 482 238 483 239 c 0
 485 241 488 242 489 242 c 0
 491 242 495 244 499 247 c 2
 504 249 510 254 514 257 c 0
 518 260 523 263 524 263 c 0
 526 263 529 265 532 266 c 1
 534 268 540 270 544 271 c 0
 550 272 552 274 556 280 c 0
 559 284 561 289 561 290 c 1
 560 292 556 295 551 298 c 0
 547 301 541 304 539 305 c 1
 536 305 533 307 531 308 c 0
 529 309 524 311 520 312 c 0
 516 313 510 316 507 319 c 0
 504 322 499 325 497 325 c 0
 495 325 492 326 490 328 c 2
 488 329 485 333 484 335 c 0
 483 337 479 340 477 341 c 1
 474 341 470 343 469 344 c 0
 467 346 460 348 452 350 c 0
 441 353 437 355 431 360 c 0
 427 363 422 367 419 367 c 1
 417 368 412 371 409 374 c 0
 405 377 401 381 399 382 c 0
 396 383 393 385 392 386 c 1
 390 387 385 389 381 391 c 0
 376 393 369 396 365 397 c 0
 360 399 355 400 352 401 c 1
 349 401 345 404 343 406 c 0
 341 409 338 411 336 411 c 0
 334 411 330 410 328 410 c 1
 324 409 322 409 319 413 c 0
 317 415 315 420 314 423 c 0
 313 430 313 430 307 430 c 0
 303 430 298 432 294 434 c 0
 290 437 285 439 282 439 c 0
 279 439 273 441 268 443 c 0
 263 445 257 449 255 452 c 0
 254 454 250 457 246 457 c 1
 243 458 239 459 238 461 c 1
 237 462 235 463 233 463 c 0
 231 463 227 466 224 469 c 0
 221 471 217 474 215 474 c 0
 213 474 207 478 201 484 c 0
 191 493 190 494 181 494 c 0
 175 494 169 495 166 495 c 0
 164 495 159 498 153 504 c 0
 147 510 142 514 139 515 c 1
 135 515 131 518 128 519 c 1
 126 521 122 523 120 523 c 0
 117 523 114 524 111 525 c 0
 108 526 107 528 106 533 c 0
 105 537 103 544 100 549 c 0
 96 558 96 558 99 563 c 0
 101 566 104 570 107 571 c 0
EndSplineSet
Validated: 33
EndChar

StartChar: uni003F
Encoding: 63 63 32
Width: 552
GlyphClass: 2
Flags: W
LayerCount: 2
Fore
SplineSet
216 118 m 0
 221 120 227 121 236 121 c 0
 247 121 249 120 259 115 c 1
 264 111 272 105 276 101 c 0
 281 96 283 93 282 91 c 1
 282 89 283 86 284 84 c 1
 285 83 287 76 288 69 c 0
 288.268 66.5889 288.392 64.4648 288.392 62.5312 c 0
 288.392 57.249 287.464 53.3926 286 49 c 0
 284 45 280 38 276 34 c 0
 272 30 268 26 266 26 c 0
 265 26 262 25 260 24 c 0
 257 22 249 21 233 21 c 0
 226 20.667 221.111 20.4443 217.556 20.4443 c 0
 210.444 20.4443 208.667 21.333 206 24 c 0
 203 26 198 28 196 28 c 0
 193 28 190 29 187 31 c 0
 185 32 183 36 182 40 c 1
 182 43 180 48 179 50 c 0
 178 52 176 57 176 60 c 0
 175.634 61.8301 175.401 63.3926 175.401 64.834 c 0
 175.401 67.3301 176.098 69.4639 178 72 c 0
 181 76 182 79 181 86 c 0
 180 94 180 94 188 103 c 0
 194 109 199 112 203 113 c 0
 206 114 212 116 216 118 c 0
241 763 m 0
 244 764 246 766 247 766 c 0
 248 766 251 764 253 762 c 0
 256 760 260 759 271 759 c 0
 282 760 285 759 287 756 c 0
 290 753 292 753 304 753 c 0
 315 754 318 753 324 750 c 0
 330 747 334 746 342 746 c 0
 350 746 353 746 357 743 c 0
 360 741 363 739 364 739 c 0
 365 739 369 737 374 733 c 0
 379 730 387 727 392 725 c 1
 399 724 402 721 409 714 c 0
 414 709 420 703 421 700 c 0
 423 696 427 692 430 690 c 0
 433 688 439 682 443 674 c 0
 448 666 450 660 450 656 c 0
 450 652 452 649 454 647 c 0
 456 645 457 642 457 640 c 1
 456 638 457 634 459 631 c 0
 462 628 463 623 464 617 c 1
 464 611 465 606 467 604 c 0
 469 602 470 598 470 590 c 0
 470 580 469 578 466 575 c 0
 463 573 463 570 463 561 c 0
 463 555 464 547 465 543 c 0
 467 535 466 534 459 523 c 0
 455 516 451 508 449 504 c 1
 448 500 445 496 443 495 c 1
 441 493 436 489 431 484 c 0
 427 480 423 473 421 468 c 1
 420 463 417 459 415 458 c 0
 413 457 409 454 407 450 c 1
 404 447 400 443 398 442 c 0
 396 441 393 438 392 436 c 0
 391 434 387 430 385 428 c 0
 382 426 376 419 372 413 c 0
 369 408 364 401 361 398 c 0
 359 396 354 393 352 392 c 1
 349 392 343 387 337 382 c 0
 332 377 326 370 323 366 c 0
 321 363 316 359 314 359 c 1
 311 358 307 357 305 356 c 0
 303 355 301 354 301 353 c 0
 301 352 299 348 296 345 c 2
 294 341 288 335 284 330 c 0
 280 325 276 319 275 317 c 0
 274 315 274 294 274 271 c 0
 274 232 274 228 271 223 c 1
 269 221 268 216 268 213 c 0
 268 210 267 207 265 205 c 0
 264 204 260 202 256 200 c 0
 251 197 246 196 232 196 c 0
 215 196 214 196 204 202 c 0
 193 208 193 208 194 215 c 0
 194 219 194 242 195 267 c 0
 195 309 195 312 199 320 c 0
 201 324 204 329 205 329 c 1
 206 330 208 334 210 339 c 1
 213 344 216 350 217 351 c 1
 219 352 220 355 220 357 c 0
 220 360 222 363 225 365 c 0
 228 367 231 371 233 374 c 0
 234 376 238 379 240 381 c 1
 243 382 245 385 246 386 c 1
 246 388 252 394 258 399 c 0
 265 405 271 409 273 409 c 0
 275 409 281 413 286 419 c 2
 292 424 296 429 296 430 c 0
 296 431 298 433 301 435 c 1
 304 436 308 441 311 446 c 0
 314 450 322 461 330 470 c 0
 337 479 344 489 346 492 c 1
 347 495 349 499 351 500 c 1
 352 501 354 505 355 509 c 0
 356 512 357 517 359 519 c 0
 360 520 362 527 363 533 c 0
 364 541 365 546 368 548 c 1
 370 551 371 554 371 557 c 0
 371 559 370 562 369 563 c 1
 368 565 368 567 369 572 c 0
 370 576 371 581 371 584 c 0
 371 587 370 592 369 595 c 0
 368 599 366 602 366 604 c 1
 365 605 364 609 364 613 c 0
 363 618 361 624 357 629 c 2
 355 633 352 637 352 638 c 1
 352 638 346 645 339 652 c 0
 332 659 325 667 324 669 c 1
 322 671 318 673 316 673 c 0
 313 673 309 674 306 677 c 0
 304 680 299 682 295 682 c 0
 292 682 288 684 286 685 c 1
 283 688 278 688 250 688 c 0
 219 687 217 687 213 684 c 1
 209 680 208 680 188 681 c 0
 176 682 160 682 151 682 c 0
 137 681 136 681 132 685 c 0
 129 687 126 692 125 697 c 1
 123 701 121 706 119 709 c 0
 117 711 115 715 115 716 c 0
 115 717 117 721 120 725 c 0
 123 728 125 732 125 733 c 0
 125 734 128 738 132 741 c 0
 135 744 139 746 140 746 c 0
 142 746 144 748 145 750 c 1
 147 752 149 753 155 753 c 0
 160 753 164 754 166 756 c 0
 169 759 170 759 178 757 c 0
 182 756 190 754 196 754 c 1
 203 753 206 754 210 757 c 0
 214 759 218 760 226 760 c 0
 232 760 239 762 241 763 c 0
EndSplineSet
Validated: 33
EndChar

